<svg xmlns="http://www.w3.org/2000/svg" width="36" height="36" fill="none" viewBox="0 0 36 36">
  <path fill="#FFDBDB" d="M25.154 34H28a1 1 0 0 0 1-1V21.187a1 1 0 0 0-1-1h-2.846a1 1 0 0 0-1 1V33a1 1 0 0 0 1 1Zm-8.077 0h2.846a1 1 0 0 0 1-1V18a1 1 0 0 0-1-1h-2.846a1 1 0 0 0-1 1v15a1 1 0 0 0 1 1ZM9 34h2.846a1 1 0 0 0 1-1v-6.5a1 1 0 0 0-1-1H9a1 1 0 0 0-1 1V33a1 1 0 0 0 1 1Z"/>
  <path fill="#E89897" d="M18.163 11.669c-.283 0-.554-.117-.753-.326l-3.197-3.331-5.985 6.236a1 1 0 0 1-1.443 0l-.12-.126a1 1 0 0 1 0-1.385l6.482-6.755c.2-.208.47-.325.753-.325h.625c.282 0 .553.117.753.325l3.197 3.331 4.575-4.767L20.606 2H27v6.663l-2.443-2.547-5.016 5.227c-.2.209-.471.326-.754.326h-.624Z"/>
  <path fill="#E89897" fill-rule="evenodd" d="M15.077 14.25a1.75 1.75 0 0 0-1.75 1.75v15c0 .966.783 1.75 1.75 1.75h2.846a1.75 1.75 0 0 0 1.75-1.75V16a1.75 1.75 0 0 0-1.75-1.75h-2.846Zm-.25 1.75a.25.25 0 0 1 .25-.25h2.846a.25.25 0 0 1 .25.25v15a.25.25 0 0 1-.25.25h-2.846a.25.25 0 0 1-.25-.25V16Zm8.327 1.438a1.75 1.75 0 0 0-1.75 1.75V31c0 .966.783 1.75 1.75 1.75H26A1.75 1.75 0 0 0 27.75 31V19.187a1.75 1.75 0 0 0-1.75-1.75h-2.846Zm-.25 1.75a.25.25 0 0 1 .25-.25H26a.25.25 0 0 1 .25.25V31a.25.25 0 0 1-.25.25h-2.846a.25.25 0 0 1-.25-.25V19.187ZM7 22.75a1.75 1.75 0 0 0-1.75 1.75V31c0 .966.784 1.75 1.75 1.75h2.846a1.75 1.75 0 0 0 1.75-1.75v-6.5a1.75 1.75 0 0 0-1.75-1.75H7Zm-.25 1.75a.25.25 0 0 1 .25-.25h2.846a.25.25 0 0 1 .25.25V31a.25.25 0 0 1-.25.25H7a.25.25 0 0 1-.25-.25v-6.5Z" clip-rule="evenodd"/>
</svg>
