<svg xmlns="http://www.w3.org/2000/svg" width="27" height="33" fill="none" viewBox="0 0 27 33">
  <path fill="#CEF4C8" d="M27 26a7 7 0 1 1-14 0 7 7 0 0 1 14 0Z"/>
  <path fill="#549E47" d="M4 14.25a.75.75 0 0 1 .75-.75h12.5a.75.75 0 0 1 0 1.5H4.75a.75.75 0 0 1-.75-.75Zm10.102 12.625a.384.384 0 0 0 .319.123l1.034-.094 4.347-4.346-1.36-1.359-4.346 4.347L14 26.581a.38.38 0 0 0 .101.294Zm4.613-5.947 1.358 1.358.814-.815a.384.384 0 0 0 0-.543l-.814-.815a.384.384 0 0 0-.544 0l-.814.815Z"/>
  <path fill="#549E47" fill-rule="evenodd" d="M13.883 30.072H2.75A2.75 2.75 0 0 1 0 27.322V6.548a2.75 2.75 0 0 1 2.75-2.75h5.357A3.003 3.003 0 0 1 11 0a3 3 0 0 1 2.893 3.798h5.552a2.75 2.75 0 0 1 2.75 2.75V17.65a7.5 7.5 0 0 1-8.312 12.421ZM12.5 3a1.5 1.5 0 1 1-3 0 1.5 1.5 0 0 1 3 0ZM2.75 5.298h3.307a.995.995 0 0 0-.131.496V7.11a1 1 0 0 0 1 1h7.952a1 1 0 0 0 1-1V5.794c0-.18-.048-.35-.132-.496h3.699c.69 0 1.25.56 1.25 1.25v10.164A7.47 7.47 0 0 0 17.5 16c-.951 0-1.86.177-2.698.5H4.75a.75.75 0 0 0 0 1.5h7.65a7.535 7.535 0 0 0-1.245 1.5H4.75a.75.75 0 0 0 0 1.5h5.677A7.487 7.487 0 0 0 10 23.5a7.47 7.47 0 0 0 1.975 5.072H2.75c-.69 0-1.25-.56-1.25-1.25V6.548c0-.69.56-1.25 1.25-1.25ZM23.5 23.5a6 6 0 1 1-12 0 6 6 0 0 1 12 0Z" clip-rule="evenodd"/>
</svg>
