<svg xmlns="http://www.w3.org/2000/svg" width="36" height="36" fill="none" viewBox="0 0 36 36">
  <path fill="#FFD6C0" d="M29.074 17.307c-.534.502-.568 1.596-.893 3.08-.502 2.403-1.251 2.84-2.16 3.495-.91.656-2.616 1.093-.91-.764.84-.915.918-1.573.74-1.994-.173-.408-.71-.288-1.01.037-1.067 1.147-2.591 2.6-3.369 3.814-.59.921-.522 2.864-.354 4.206a.95.95 0 0 0 .955.819h2.201c.617 0 1.116-.57 1.274-1.166.215-.812.761-1.842 1.95-2.767C29.886 24.21 30 21.807 30 20.933V18c0-.553-.524-1.072-.926-.693Zm-22.148 0c.534.502.568 1.596.893 3.08.502 2.403 1.251 2.84 2.16 3.495.91.656 2.616 1.093.91-.764-.84-.915-.918-1.573-.74-1.994.173-.408.71-.288 1.01.037 1.066 1.147 2.591 2.6 3.369 3.814.59.921.522 2.864.354 4.206a.949.949 0 0 1-.955.819h-2.201c-.617 0-1.116-.57-1.274-1.166-.215-.812-.761-1.842-1.95-2.767C6.114 24.21 6 21.807 6 20.933V18c0-.553.524-1.072.926-.693Z"/>
  <path fill="#E16736" d="M17 7a1 1 0 0 0-1 1v2h-2a1 1 0 1 0 0 2h2v2a1 1 0 1 0 2 0v-2h2a1 1 0 1 0 0-2h-2V8a1 1 0 0 0-1-1Z"/>
  <path fill="#E16736" fill-rule="evenodd" d="M17 18.5a7.5 7.5 0 1 0 0-15 7.5 7.5 0 0 0 0 15Zm6-7.5a6 6 0 1 1-12 0 6 6 0 0 1 12 0Zm2.352 7.58c.15.078.286.173.406.284.056-.268.102-.525.148-.78l.013-.071c.051-.286.105-.585.166-.86.119-.535.332-1.347.96-1.938a1.929 1.929 0 0 1 1.401-.536 2 2 0 0 1 1.204.474c.532.445.85 1.14.85 1.847v2.933c0 1.035-.142 4.032-3.08 6.318-.926.72-1.29 1.467-1.422 1.967a3.288 3.288 0 0 1-.866 1.495c-.43.42-1.066.787-1.858.787h-2.2c-1.183 0-2.284-.852-2.444-2.132a15.243 15.243 0 0 1-.118-2.517c.038-.817.177-1.873.697-2.685.466-.727 1.12-1.477 1.74-2.144.317-.34.64-.677.945-.993l.028-.03c.297-.307.572-.593.82-.86a2.42 2.42 0 0 1 1.5-.764c.32-.032.717.002 1.11.204Zm-.207 4.213c.29-.207.561-.402.813-.658.492-.5.906-1.233 1.223-2.748.087-.397.153-.765.213-1.102.036-.202.07-.393.106-.571.029-.144.058-.28.09-.409a4.32 4.32 0 0 1 .087-.305c.096-.292.219-.526.397-.693.402-.379.926.14.926.693v2.933c0 .874-.114 3.277-2.502 5.134-1.189.925-1.735 1.955-1.95 2.767-.158.597-.657 1.166-1.274 1.166h-2.2a.949.949 0 0 1-.956-.819c-.168-1.342-.236-3.285.354-4.206.59-.921 1.61-1.98 2.534-2.939l.306-.318.123-.128c.14-.147.276-.29.405-.43.302-.324.838-.444 1.01-.036.102.238.12.551-.034.944a2.16 2.16 0 0 1-.124.264c-.058.107-.13.22-.213.337a4.231 4.231 0 0 1-.327.403l-.041.046c-1.609 1.751-.184 1.462.747.874a3.309 3.309 0 0 0 .162-.11l.125-.089Zm-16.903-3.93a30.358 30.358 0 0 1-.148-.778l-.013-.072a21.749 21.749 0 0 0-.166-.86c-.119-.535-.332-1.347-.96-1.938a1.926 1.926 0 0 0-1.401-.536 2 2 0 0 0-1.204.474A2.433 2.433 0 0 0 3.5 17v2.933c0 1.035.142 4.032 3.08 6.318.926.72 1.29 1.467 1.422 1.967a3.29 3.29 0 0 0 .866 1.495c.43.42 1.066.787 1.858.787h2.2c1.183 0 2.284-.852 2.444-2.132.091-.724.159-1.636.118-2.517-.038-.817-.177-1.873-.697-2.685-.466-.727-1.12-1.477-1.74-2.144-.317-.34-.64-.677-.945-.993l-.028-.03a59.788 59.788 0 0 1-.82-.86 2.42 2.42 0 0 0-1.5-.764 1.974 1.974 0 0 0-1.11.204 1.874 1.874 0 0 0-.406.284Zm1.066 2.469a2.522 2.522 0 0 1-.124-.264c-.154-.393-.136-.706-.035-.944.173-.408.71-.288 1.01.037l.406.43.123.127.306.318c.923.959 1.944 2.018 2.534 2.939.59.921.522 2.864.354 4.206a.949.949 0 0 1-.955.819h-2.201c-.617 0-1.116-.57-1.274-1.166-.215-.812-.761-1.842-1.95-2.767C5.114 23.21 5 20.807 5 19.933V17c0-.553.524-1.072.926-.693.178.167.3.4.397.693.031.095.06.198.087.305.032.128.061.265.09.409.035.178.07.369.106.57.06.338.126.706.213 1.103.317 1.515.731 2.249 1.223 2.748.252.256.524.451.813.658l.125.09a3.14 3.14 0 0 0 .162.109c.93.588 2.356.877.747-.874a5.117 5.117 0 0 1-.368-.449 3.245 3.245 0 0 1-.213-.337Z" clip-rule="evenodd"/>
</svg>
