<svg xmlns="http://www.w3.org/2000/svg" width="36" height="36" fill="none" viewBox="0 0 36 36">
  <path fill="#FFE6BE" d="M6.005 9.975a2.536 2.536 0 0 1 .784-1.829 2.728 2.728 0 0 1 1.894-.757 2.728 2.728 0 0 1 1.997.862c.622.67.97 2.734.97 2.734 1.251 3.3 3.407 4.622 6.855 4.622 3.945 0 6.465-2.615 7.143-5.632a2.536 2.536 0 0 1 .784-1.829 2.728 2.728 0 0 1 1.894-.757 2.728 2.728 0 0 1 1.997.862c.438.473.682 1.086.682 1.724 0 4.355-2.389 8.17-5.97 10.293l2.767 10.67a3.114 3.114 0 0 1-2.176 3.77 2.993 2.993 0 0 1-3.709-2.14l-1.052-4.057a9.306 9.306 0 0 0-2.575-.38c-1.407 0-2.369.37-2.729.584l-.928 3.578a3.068 3.068 0 0 1-3.801 2.194 3.192 3.192 0 0 1-2.23-3.864l2.781-10.728c-3.25-2.18-5.378-5.81-5.378-9.92Z"/>
  <path fill="#EBB558" fill-rule="evenodd" d="M22.005 6.5a5.5 5.5 0 1 1-11 0 5.5 5.5 0 0 1 11 0Zm-1.5 0a4 4 0 1 1-8 0 4 4 0 0 1 8 0Z" clip-rule="evenodd"/>
  <path fill="#EBB558" fill-rule="evenodd" d="M4.79 6.146a2.536 2.536 0 0 0-.785 1.829c0 3.11 1.219 5.947 3.22 8.087 1.162 1.24 1.873 2.934 1.446 4.58l-2.07 7.98a3.192 3.192 0 0 0 2.23 3.865 3.068 3.068 0 0 0 3.802-2.194l.515-1.986c.265-1.02.932-1.92 1.972-2.087a7.427 7.427 0 0 1 1.521-.082c1.402.06 2.44 1.203 2.792 2.561l.484 1.869a2.993 2.993 0 0 0 3.709 2.14 3.114 3.114 0 0 0 2.176-3.77L23.79 21.18c-.447-1.725.353-3.492 1.624-4.74 2.22-2.178 3.59-5.167 3.59-8.465a2.536 2.536 0 0 0-.784-1.829 2.728 2.728 0 0 0-1.894-.757 2.728 2.728 0 0 0-1.996.862 2.551 2.551 0 0 0-.643 1.283 7.08 7.08 0 0 0-.046.311 3.78 3.78 0 0 1-.103.56c-.812 2.831-3.277 5.202-7.033 5.202-3.318 0-5.44-1.224-6.71-4.257-.1-.24-.166-.493-.22-.748-.133-.63-.441-1.861-.895-2.351a2.728 2.728 0 0 0-1.997-.862 2.73 2.73 0 0 0-1.894.757Zm21.536.743a1.228 1.228 0 0 1 .896.381c.187.201.283.453.283.705 0 2.871-1.19 5.48-3.141 7.394-1.503 1.474-2.654 3.765-2.026 6.187l2.012 7.759a1.614 1.614 0 0 1-1.125 1.948 1.493 1.493 0 0 1-1.856-1.072l-.485-1.868c-.458-1.77-1.91-3.587-4.179-3.684a8.922 8.922 0 0 0-1.822.1c-1.864.298-2.844 1.868-3.187 3.191l-.515 1.986a1.568 1.568 0 0 1-1.949 1.125A1.692 1.692 0 0 1 8.053 29l2.07-7.981c.599-2.31-.427-4.511-1.802-5.981-1.757-1.878-2.816-4.353-2.816-7.062a1.036 1.036 0 0 1 .326-.75c.218-.21.523-.336.852-.336a1.228 1.228 0 0 1 .887.37l.002.003c.007.011.033.05.073.132.057.118.119.272.18.457.125.371.222.774.283 1.061.062.292.15.65.304 1.017.725 1.732 1.75 3.075 3.18 3.961 1.414.878 3.076 1.217 4.913 1.217 4.492 0 7.498-2.881 8.475-6.29a4.63 4.63 0 0 0 .129-.636l.023-.172a4.94 4.94 0 0 1 .031-.21 1.052 1.052 0 0 1 .311-.574c.218-.21.523-.336.852-.336Z" clip-rule="evenodd"/>
</svg>
