<svg xmlns="http://www.w3.org/2000/svg" width="36" height="36" fill="none" viewBox="0 0 36 36">
  <path fill="#D9667B" d="M22.672 16.66a.2.2 0 0 1-.34-.142v-2.8a.2.2 0 0 1 .2-.2h2.815a.2.2 0 0 1 .14.342l-1.264 1.26a2.966 2.966 0 0 0 2.108.885 3 3 0 0 0 2.824-1.99h.01l.027-.08c.075-.236.283-.417.53-.417.307 0 .546.27.464.566A3.998 3.998 0 0 1 26.331 17h-.005a3.98 3.98 0 0 1-2.826-1.164l-.828.824Zm.799-4.553c-.077.236-.285.417-.533.417-.305 0-.544-.27-.463-.565a3.998 3.998 0 0 1 3.854-2.917h.002a3.98 3.98 0 0 1 2.827 1.164l.832-.826a.2.2 0 0 1 .341.142v2.801a.2.2 0 0 1-.2.2h-2.815a.2.2 0 0 1-.141-.341l1.267-1.26a2.966 2.966 0 0 0-2.11-.885 3 3 0 0 0-2.825 1.99h-.009c-.01.026-.019.053-.027.08Z"/>
  <path fill="#D9667B" fill-rule="evenodd" d="M11.942 5a1 1 0 0 0-.989.852l-.45 3a.997.997 0 0 0 .3.873 4.5 4.5 0 1 0 8.118-.066.995.995 0 0 0 .238-.807l-.45-3a1 1 0 0 0-.99-.852h-5.777Zm.265 5h5.342a3.132 3.132 0 1 1-5.342 0Zm-3.55 14.797a1.36 1.36 0 0 1-.63-.152 1.146 1.146 0 0 1-.447-1.662l2.668-4.175a1.417 1.417 0 0 1 1.817-.481c.079.04.15.088.216.142.078.005.156.018.234.04a8.508 8.508 0 0 0 2.336.325c.91 0 1.79-.143 2.62-.411l.021-.007c.063-.05.132-.096.207-.135a1.412 1.412 0 0 1 1.81.48l2.668 4.174c.377.59.177 1.332-.446 1.657-.14.073-.29.119-.443.14a1.413 1.413 0 0 1-1.368-.62l-.23-.36.276 1.462.661 3.204c.144.695-.288 1.45-.964 1.685-.675.235-1.34-.139-1.484-.834l-.01-.046c-.3-1.457-1.46-2.636-2.96-2.665a13.218 13.218 0 0 0-.696.005c-1.382.047-2.399 1.153-2.676 2.496l-.007.035c-.145.701-.814 1.077-1.495.84-.681-.236-1.116-.996-.971-1.697l1.013-4.905-.532.833a1.41 1.41 0 0 1-1.189.633Zm-.282 1.363a2.741 2.741 0 0 1-.994-.297 2.516 2.516 0 0 1-.974-3.616l2.668-4.176c.765-1.198 2.371-1.623 3.637-.962l.097.053.09.024a7.109 7.109 0 0 0 3.973-.02c.059-.036.119-.07.18-.103 1.264-.66 2.867-.235 3.63.96l2.669 4.176a2.512 2.512 0 0 1-.973 3.61c-.26.137-.536.227-.815.273l.425 2.06c.283 1.37-.533 2.797-1.865 3.26-1.47.51-2.992-.344-3.304-1.857l-.01-.046c-.2-.972-.915-1.55-1.628-1.564a12.034 12.034 0 0 0-.62.004c-.571.02-1.177.494-1.363 1.396l-.008.035c-.313 1.518-1.84 2.376-3.315 1.863-1.336-.464-2.156-1.897-1.872-3.272l.372-1.801ZM14.83 9a.5.5 0 0 1-.5-.5V8h-.5a.5.5 0 1 1 0-1h.5v-.5a.5.5 0 1 1 1 0V7h.5a.5.5 0 0 1 0 1h-.5v.5a.5.5 0 0 1-.5.5Z" clip-rule="evenodd"/>
</svg>
