<svg xmlns="http://www.w3.org/2000/svg" width="36" height="36" fill="none" viewBox="0 0 36 36">
  <path fill="#D9667B" fill-rule="evenodd" d="M8.75 5.5c-.69 0-1.25.56-1.25 1.25v22c0 .69.56 1.25 1.25 1.25h8.956a6.03 6.03 0 0 0 1.378 1.5H8.75A2.75 2.75 0 0 1 6 28.75v-22A2.75 2.75 0 0 1 8.75 4h8.273a2.75 2.75 0 0 1 1.96.822l5.8 5.9 1.985 1.986c.09.089.158.186.208.289a2.75 2.75 0 0 1 .524 1.615v8.472a6.03 6.03 0 0 0-1.5-1.378v-7.094c0-.038-.002-.075-.005-.112H18.75A1.75 1.75 0 0 1 17 12.75V5.5H8.75Zm14.967 6.278L18.5 6.561v6.189c0 .138.112.25.25.25h6.169l-1.202-1.222Z" clip-rule="evenodd"/>
  <path fill="#D9667B" d="M11.5 16.75a.75.75 0 0 0 0 1.5H22a.75.75 0 0 0 0-1.5H11.5Zm6.053 7H11.5a.75.75 0 0 0 0 1.5h5.439a5.963 5.963 0 0 1 .614-1.5ZM10.75 21a.75.75 0 0 1 .75-.75h9.75a.75.75 0 0 1 .723.55c-.93.12-1.794.454-2.54.95H11.5a.75.75 0 0 1-.75-.75Z"/>
  <path fill="#D9667B" d="m26.71 29.291.252-.47a4.98 4.98 0 0 0 .593-2.365v-.002c0-2.777-2.263-5.029-5.055-5.029s-5.056 2.252-5.056 5.03c0 2.777 2.264 5.028 5.056 5.028h.002a5.047 5.047 0 0 0 2.378-.59l.472-.252 1.745.386-.388-1.736Zm2.187 3.169a.3.3 0 0 1-.357.358l-2.98-.658a6.5 6.5 0 0 1-3.06.76c-3.59 0-6.5-2.895-6.5-6.466 0-3.57 2.91-6.465 6.5-6.465s6.5 2.894 6.5 6.465a6.41 6.41 0 0 1-.764 3.045l.661 2.96Z"/>
  <path fill="#D9667B" d="M20.5 26.75a.75.75 0 1 1-1.5 0 .75.75 0 0 1 1.5 0Zm2.5 0a.75.75 0 1 1-1.5 0 .75.75 0 0 1 1.5 0Zm2.5 0a.75.75 0 1 1-1.5 0 .75.75 0 0 1 1.5 0Z"/>
</svg>
