<svg xmlns="http://www.w3.org/2000/svg" width="36" height="36" fill="none" viewBox="0 0 36 36">
  <path fill="#D9667B" fill-rule="evenodd" d="M9.95 10.715c0-.874.884-1.015 1.05-1.015h7.05v4.4c0 .589.45 1.24 1.35 1.24h4.65v6.657H9.95V10.715Zm15.15 9.026v-3.682c0-.51-.21-1.002-.588-1.37l-.312-.304v-.003h-.003L19.03 9.345a2.167 2.167 0 0 0-1.511-.604H11c-1.16 0-2.1.884-2.1 1.974v9.026H7.065c-.517 0-.975.31-1.139.771l-.864 2.44a1.059 1.059 0 0 0-.062.356v3.202c0 .623.537 1.128 1.2 1.128h2.7v1.128c0 1.09.94 1.975 2.1 1.975h12c1.16 0 2.1-.884 2.1-1.974v-1.129h2.7c.663 0 1.2-.505 1.2-1.128v-3.202c0-.12-.02-.241-.062-.356l-.864-2.44c-.164-.46-.622-.771-1.139-.771H25.1Zm.3 4.513c0-.623.537-1.129 1.2-1.129.663 0 1.2.506 1.2 1.129s-.537 1.128-1.2 1.128c-.663 0-1.2-.505-1.2-1.128ZM11 29.782c-.166 0-1.05-.141-1.05-1.015V26.51h14.1v2.256c0 .156-.3 1.016-1.05 1.016H11Zm11.446-15.4H19.4c-.166 0-.3-.126-.3-.282v-2.983l3.346 3.265Z" clip-rule="evenodd"/>
  <path fill="#D9667B" d="M16.473 7.5a1.5 1.5 0 0 1 1.5-1.5h5.26a1.4 1.4 0 0 1 1.006.428l5.332 5.527c.27.28.42.653.42 1.042v9.735A1.5 1.5 0 0 1 29 24.144v1.036a2.501 2.501 0 0 0 1.992-2.448v-9.735a2.5 2.5 0 0 0-.7-1.736l-5.333-5.528A2.399 2.399 0 0 0 23.232 5h-5.26a2.5 2.5 0 0 0-2.5 2.5v1.24h1V7.5Z"/>
</svg>
