<svg xmlns="http://www.w3.org/2000/svg" width="36" height="36" fill="none" viewBox="0 0 36 36">
  <path fill="#D9667B" fill-rule="evenodd" d="M15.107 6.798H9.75A2.75 2.75 0 0 0 7 9.548v20.774a2.75 2.75 0 0 0 2.75 2.75h16.695a2.75 2.75 0 0 0 2.75-2.75V9.548a2.75 2.75 0 0 0-2.75-2.75h-5.552a3 3 0 1 0-5.785 0ZM19.5 6a1.5 1.5 0 1 1-3 0 1.5 1.5 0 0 1 3 0Zm3.247 2.298a.995.995 0 0 1 .132.496v1.317a1 1 0 0 1-1 1h-7.953a1 1 0 0 1-1-1V8.794c0-.18.048-.35.132-.496H9.75c-.69 0-1.25.56-1.25 1.25v20.774c0 .69.56 1.25 1.25 1.25h16.695c.69 0 1.25-.56 1.25-1.25V9.548c0-.69-.56-1.25-1.25-1.25h-3.698Z" clip-rule="evenodd"/>
  <path fill="#D9667B" fill-rule="evenodd" d="M23.416 25.818H12.584a.593.593 0 0 1-.506-.273.514.514 0 0 1 0-.546l5.416-8.727A.593.593 0 0 1 18 16c.209 0 .401.104.506.272L23.922 25a.514.514 0 0 1 0 .545.593.593 0 0 1-.506.273ZM17.4 22.883a.6.6 0 0 1 1.2 0 .6.6 0 0 1-1.2 0Zm0-1.794v-2.381a.6.6 0 0 1 1.2 0v2.38a.6.6 0 0 1-1.2 0Z" clip-rule="evenodd"/>
</svg>
