<svg xmlns="http://www.w3.org/2000/svg" width="36" height="36" fill="none" viewBox="0 0 36 36">
  <path fill="#D9667B" d="M24.286 22.968a.3.3 0 0 0-.528 0l-.647 1.197-1.31.282a.3.3 0 0 0-.164.49l.912 1.049-.15 1.393a.3.3 0 0 0 .428.302l1.195-.57 1.194.57a.3.3 0 0 0 .428-.302l-.15-1.393.912-1.049a.3.3 0 0 0-.163-.49l-1.311-.282-.646-1.197Z"/>
  <path fill="#D9667B" fill-rule="evenodd" d="M10.022 7.26V4.75a.75.75 0 0 1 1.5 0v2.51h8.282V4.75a.75.75 0 0 1 1.5 0v2.51h3.435a2 2 0 0 1 2 2v10.61a5.978 5.978 0 1 1-1.5-.528v-5.56H6.5V27a.5.5 0 0 0 .5.5h11.504c.228.546.535 1.05.906 1.5H7a2 2 0 0 1-2-2V9.26a2 2 0 0 1 2-2h3.022ZM7 8.76h17.74a.5.5 0 0 1 .5.5v3.023H6.5V9.26a.5.5 0 0 1 .5-.5Zm17.022 20.914a4.478 4.478 0 1 0 0-8.957 4.478 4.478 0 0 0 0 8.957Z" clip-rule="evenodd"/>
  <path fill="#D9667B" d="M11.521 19.217a1.087 1.087 0 1 0 0-2.174 1.087 1.087 0 0 0 0 2.174Zm1.087 3.261a1.087 1.087 0 1 1-2.174 0 1.087 1.087 0 0 1 2.175 0Zm3.262-3.261a1.087 1.087 0 1 0 0-2.174 1.087 1.087 0 0 0 0 2.174Zm1.087 3.261a1.087 1.087 0 1 1-2.174 0 1.087 1.087 0 0 1 2.174 0Zm3.26-3.261a1.087 1.087 0 1 0 0-2.174 1.087 1.087 0 0 0 0 2.174Z"/>
</svg>
