<svg xmlns="http://www.w3.org/2000/svg" width="36" height="36" fill="none" viewBox="0 0 36 36">
  <path fill="#D9667B" d="M12.75 17a.75.75 0 0 0 0 1.5h10.5a.75.75 0 0 0 0-1.5h-10.5Z"/>
  <path fill="#D9667B" fill-rule="evenodd" d="m26.033 10.972-5.8-5.9a2.75 2.75 0 0 0-1.96-.822H10A2.75 2.75 0 0 0 7.25 7v22A2.75 2.75 0 0 0 10 31.75h16A2.75 2.75 0 0 0 28.75 29V14.862a2.75 2.75 0 0 0-.524-1.615c-.05-.103-.119-.2-.208-.29l-1.985-1.985ZM10 5.75c-.69 0-1.25.56-1.25 1.25v22c0 .69.56 1.25 1.25 1.25h16c.078 0 .155-.007.23-.02l-2.087-2.087a4.502 4.502 0 0 1-7.031-2.643H12.75a.75.75 0 0 1 0-1.5h4.277c.082-.734.34-1.416.73-2H12.75a.75.75 0 0 1 0-1.5h6.686a4.5 4.5 0 0 1 5.757 6.572l2.051 2.05c.004-.04.006-.08.006-.122V14.862c0-.038-.002-.075-.005-.112H20A1.75 1.75 0 0 1 18.25 13V5.75H10Zm9.75 1.06V13c0 .138.112.25.25.25h6.169l-1.201-1.222-5.218-5.217ZM24.5 24.5a3 3 0 1 1-6 0 3 3 0 0 1 6 0Z" clip-rule="evenodd"/>
</svg>
