<svg xmlns="http://www.w3.org/2000/svg" width="36" height="36" fill="none" viewBox="0 0 36 36">
  <path fill="#D9667B" d="M18.396 14.915a.4.4 0 1 0-.782.17l.223 1.023-.901.309.373 1.72a.4.4 0 1 0 .782-.17l-.222-1.024.9-.309-.373-1.719Zm2.902 1.139a.4.4 0 0 0-.793-.108l-.14 1.038-.953-.018-.236 1.744a.4.4 0 1 0 .792.107l.141-1.038.952.018.237-1.743Zm-5.991-.31a.4.4 0 0 0-.614.512l.7.841-1 .6 1.3 1.56a.4.4 0 0 0 .614-.513l-.7-.841 1-.6-1.3-1.56Z"/>
  <path fill="#D9667B" fill-rule="evenodd" d="M15.107 6.798H9.75A2.75 2.75 0 0 0 7 9.548v20.774a2.75 2.75 0 0 0 2.75 2.75h16.695a2.75 2.75 0 0 0 2.75-2.75V9.548a2.75 2.75 0 0 0-2.75-2.75h-5.552a3 3 0 1 0-5.785 0ZM19.5 6a1.5 1.5 0 1 1-3 0 1.5 1.5 0 0 1 3 0Zm3.247 2.298a.995.995 0 0 1 .132.496v1.317a1 1 0 0 1-1 1h-7.953a1 1 0 0 1-1-1V8.794c0-.18.048-.35.132-.496H9.75c-.69 0-1.25.56-1.25 1.25v20.774c0 .69.56 1.25 1.25 1.25h2.767l.24-.528c.112-.248.03-.66-.243-1.02-.575-.755-1.123-1.966-1.123-3.298 0-.885.327-1.899.835-2.609.254-.356.583-.676.983-.84a1.43 1.43 0 0 1 1.105-.01 3.704 3.704 0 0 1 6.544-1.91c.105-.053.22-.098.342-.13.496-.135 1.093-.077 1.763.191 1.409.563 2.216 2.059 2.44 3.623.225 1.58-.116 3.377-1.173 4.7a.459.459 0 0 0-.1.18 1.95 1.95 0 0 0 .338 1.56l.067.09h1.91c.69 0 1.25-.559 1.25-1.25V9.549c0-.69-.56-1.25-1.25-1.25h-3.698Zm-9.132 23.274h9.752a2.903 2.903 0 0 1-.218-1.85c.052-.252.18-.455.3-.605.852-1.068 1.158-2.573.963-3.934-.196-1.376-.874-2.458-1.82-2.837-.535-.214-.903-.216-1.131-.155a.575.575 0 0 0-.398.317c-.124.28-.011.684.425.83 1.01.337 1.549 1.49 1.549 2.611 0 1.171-.564 2.47-1.932 3.29-2.334 1.4-4.96.525-5.972.019a3.216 3.216 0 0 1-1.33-1.26c-.29-.503-.443-1.101-.315-1.658.054-.233.19-.568.3-.824.116-.27.227-.505.252-.557l.002-.003a1.4 1.4 0 0 0 .098-.409c.012-.192-.036-.265-.105-.306a.455.455 0 0 0-.444-.04c-.165.068-.36.229-.552.498a3.76 3.76 0 0 0-.648 2.027c0 1.073.45 2.077.919 2.693.377.496.69 1.308.357 2.04l-.052.113Zm1.215-5.939c-.038.082-.08.178-.124.279a4.919 4.919 0 0 0-.243.652c-.055.239 0 .578.206.935.202.35.522.67.91.864.917.459 3.127 1.15 5.011.019 1.045-.627 1.447-1.587 1.447-2.433 0-.596-.19-1.072-.447-1.366a3.705 3.705 0 0 1-6.76 1.05Zm6.144-2.048a1.104 1.104 0 0 1-.307-.276 2.704 2.704 0 1 1-.212-.723.992.992 0 0 1 .049-.241c.242.365.407.786.47 1.24Z" clip-rule="evenodd"/>
</svg>
