<svg xmlns="http://www.w3.org/2000/svg" width="36" height="36" fill="none" viewBox="0 0 36 36">
  <path fill="#D9667B" fill-rule="evenodd" d="M15.107 6.798H9.75A2.75 2.75 0 0 0 7 9.548v20.774a2.75 2.75 0 0 0 2.75 2.75h16.695a2.75 2.75 0 0 0 2.75-2.75V9.548a2.75 2.75 0 0 0-2.75-2.75h-5.552a3 3 0 1 0-5.785 0ZM19.5 6a1.5 1.5 0 1 1-3 0 1.5 1.5 0 0 1 3 0Zm3.247 2.298a.995.995 0 0 1 .132.496v1.317a1 1 0 0 1-1 1h-7.953a1 1 0 0 1-1-1V8.794c0-.18.048-.35.132-.496H9.75c-.69 0-1.25.56-1.25 1.25v20.774c0 .69.56 1.25 1.25 1.25h16.695c.69 0 1.25-.56 1.25-1.25V9.548c0-.69-.56-1.25-1.25-1.25h-3.698Z" clip-rule="evenodd"/>
  <path fill="#D9667B" d="M18.008 24.962A1.008 1.008 0 0 1 17 23.968h2.003a.998.998 0 0 1-.075.388 1.02 1.02 0 0 1-.72.586h-.024a.974.974 0 0 1-.177.02Zm4.006-2.106c0 .34-.275.614-.614.614h-6.784a.614.614 0 0 1-.274-1.164l.661-.328v-2.735a3.989 3.989 0 0 1 .463-2.02 2.33 2.33 0 0 1 1.54-1.123v-.083a1.001 1.001 0 1 1 2.003 0v.083c1.291.305 2.003 1.421 2.003 3.143v2.735l.66.328c.21.104.341.317.341.55Zm.939-4.38a.465.465 0 0 1-.474.518c-.268 0-.485-.213-.525-.478A4.304 4.304 0 0 0 20.73 16.1c-.214-.212-.24-.563-.027-.776a.463.463 0 0 1 .643-.026c.446.412.813.904 1.08 1.451.267.545.444 1.128.527 1.726Zm-8.907.04c-.04.265-.257.478-.525.478a.465.465 0 0 1-.474-.519 5.7 5.7 0 0 1 .526-1.726 4.926 4.926 0 0 1 1.081-1.451.463.463 0 0 1 .643.027c.213.212.187.563-.027.775a4.302 4.302 0 0 0-1.224 2.416Z"/>
</svg>
