<svg xmlns="http://www.w3.org/2000/svg" width="36" height="36" fill="none" viewBox="0 0 36 36">
  <path fill="#D9667B" fill-rule="evenodd" d="M25 9a4 4 0 1 1-8 0 4 4 0 0 1 8 0Zm-1.2 0a2.8 2.8 0 1 1-5.6 0 2.8 2.8 0 0 1 5.6 0Z" clip-rule="evenodd"/>
  <path fill="#D9667B" fill-rule="evenodd" d="M15.048 11.394a1.892 1.892 0 0 0-2.973 2.315l2.322 3.597c.26.404.627.697 1.04.867l-.656.65-.564-.351a2.477 2.477 0 0 0-2.698-.296l-2.994 1.523a2.058 2.058 0 0 0 1.388 3.841l2.06-.467.914.57-1.9 3.331a1.779 1.779 0 0 0 2.835 2.106l2.94-3.095a3.636 3.636 0 0 0 5.114-1.834l1.338-3.32-.302 2.08a2.036 2.036 0 0 0 3.925.997l1.186-3.213a2.388 2.388 0 0 0 .054-1.493 2.531 2.531 0 0 0-.45-1.002l-2.58-3.457a2.541 2.541 0 0 0-.546-.54 2.36 2.36 0 0 0-1.534-.57l-5.85-.018-2.069-2.221Zm-1.648.65a.692.692 0 0 1 .77.167l2.423 2.602 6.37.02c.295.001.563.11.768.292l.025.022.027.019c.112.079.215.177.302.295l2.58 3.457c.124.167.203.353.24.543l.006.03.01.03c.072.24.07.504-.024.758l-1.185 3.214a.836.836 0 0 1-1.613-.41l.38-2.616-1.567-2.1-2.15 5.336a2.436 2.436 0 0 1-3.568 1.144l-.338-.216-.077-.023a1.35 1.35 0 0 1-.316-.145l-4.273-2.67-2.542.577a.858.858 0 0 1-.579-1.601l2.994-1.523a1.277 1.277 0 0 1 1.41.168l.034.03 1.444.901 3.218-3.194-1.735-.005-.045-.001-.023-.001h-.022a1.07 1.07 0 0 1-.939-.489l-2.322-3.597a.692.692 0 0 1 .317-1.015Zm.398 12.425-1.768 3.1a.579.579 0 0 0 .922.685l2.637-2.777-1.79-1.008Z" clip-rule="evenodd"/>
  <path fill="#D9667B" d="M7.779 7.96c-.816 1.32-.624 3 .412 4.104.178.19.481.136.618-.085.112-.18.073-.411-.065-.572a2.533 2.533 0 0 1-.048-.057l.004-.007a2.543 2.543 0 0 1-.191-2.94 2.53 2.53 0 0 1 1.595-1.133l.34 1.418a.2.2 0 0 0 .365.058l1.21-1.957a.199.199 0 0 0-.065-.274L9.985 5.31a.2.2 0 0 0-.3.216l.215.904a3.396 3.396 0 0 0-2.12 1.528l-.001.001Zm16.159 21.358a.2.2 0 0 1-.37-.007l-.845-2.138a.2.2 0 0 1 .112-.259l2.15-.841a.2.2 0 0 1 .258.266l-.583 1.334a2.544 2.544 0 0 0 3.58-2.417l.007-.003-.004-.073a.49.49 0 0 1 .292-.497c.244-.095.52.045.547.305a3.404 3.404 0 0 1-2.151 3.524l-.004.002a3.415 3.415 0 0 1-2.617-.046l-.372.85Z"/>
</svg>
