<svg xmlns="http://www.w3.org/2000/svg" width="36" height="36" fill="none" viewBox="0 0 36 36">
  <mask id="a" width="24" height="32" x="6" y="2" fill="#000" maskUnits="userSpaceOnUse">
    <path fill="#fff" d="M6 2h24v32H6z"/>
    <path fill-rule="evenodd" d="M15.107 6.798H9.75A2.75 2.75 0 0 0 7 9.548v20.774a2.75 2.75 0 0 0 2.75 2.75h16.695a2.75 2.75 0 0 0 2.75-2.75V9.548a2.75 2.75 0 0 0-2.75-2.75h-5.552a3 3 0 1 0-5.785 0ZM19.5 6a1.5 1.5 0 1 1-3 0 1.5 1.5 0 0 1 3 0Zm3.247 2.298a.995.995 0 0 1 .132.496v1.317a1 1 0 0 1-1 1h-7.953a1 1 0 0 1-1-1V8.794c0-.18.048-.35.132-.496H9.75c-.69 0-1.25.56-1.25 1.25v20.774c0 .69.56 1.25 1.25 1.25h16.695c.69 0 1.25-.56 1.25-1.25V9.548c0-.69-.56-1.25-1.25-1.25h-3.698Z" clip-rule="evenodd"/>
    <path d="M15.896 19.755a1.987 1.987 0 1 1-3.974 0 1.987 1.987 0 0 1 3.974 0Z"/>
    <path fill-rule="evenodd" d="M23.151 17.494a2.494 2.494 0 1 1-4.989 0 2.494 2.494 0 0 1 4.989 0Zm-1 0a1.494 1.494 0 1 1-2.989 0 1.494 1.494 0 0 1 2.989 0Zm-6.506 4.714c.123.015.244.051.356.107l-.247.39-.597.943c-.356.563-.207 1.72.383 2.03.204.108.429.151.648.137l.013.069.02.096-.203 1.01a1.31 1.31 0 0 0 .57 1.333 1.087 1.087 0 0 1-.366.222.938.938 0 0 1-1.257-.71c-.104-.524-.495-.875-.926-.88h-.055c-.046 0-.09 0-.133.002-.368.01-.702.314-.8.798a.942.942 0 0 1-1.26.713 1.148 1.148 0 0 1-.726-1.283l.208-1.039a1.078 1.078 0 0 1-.629-.114.982.982 0 0 1-.375-1.407l1.205-1.904a1.09 1.09 0 0 1 .827-.497 3.187 3.187 0 0 0 1.608.433c.603 0 1.167-.167 1.65-.456.012 0 .025 0 .038.002h.048v.005Z" clip-rule="evenodd"/>
    <path d="m16.2 25.884-.012-.07c.022 0 .045-.003.067-.005l-.035.171-.02-.096Z"/>
    <path fill-rule="evenodd" d="M17.263 24.843a.776.776 0 0 1-.359-.087.655.655 0 0 1-.255-.95l1.524-2.385a.81.81 0 0 1 1.038-.274c.044.023.086.05.123.08.044.004.09.011.134.024a4.86 4.86 0 0 0 2.83-.05l.013-.003a.724.724 0 0 1 .117-.077.806.806 0 0 1 1.035.273l1.523 2.385a.652.652 0 0 1-.254.946.807.807 0 0 1-1.034-.274l-.132-.205.157.835.378 1.83a.864.864 0 0 1-.55.962.63.63 0 0 1-.848-.476l-.005-.026c-.172-.833-.835-1.506-1.692-1.522a7.337 7.337 0 0 0-.397.003c-.79.026-1.37.658-1.529 1.425l-.004.02a.634.634 0 0 1-.854.48.87.87 0 0 1-.555-.97l.58-2.801-.305.475a.806.806 0 0 1-.679.362Zm-.16.778a1.566 1.566 0 0 1-.568-.17 1.437 1.437 0 0 1-.557-2.065l1.525-2.385a1.606 1.606 0 0 1 2.133-.52l.05.014a4.059 4.059 0 0 0 2.27-.011 1.604 1.604 0 0 1 2.177.49l1.524 2.385c.463.724.21 1.663-.556 2.062a1.56 1.56 0 0 1-.465.156l.242 1.176a1.649 1.649 0 0 1-1.065 1.862 1.423 1.423 0 0 1-1.887-1.06l-.006-.027c-.114-.555-.522-.885-.93-.893a6.554 6.554 0 0 0-.354.002c-.326.011-.672.283-.778.798l-.005.02a1.428 1.428 0 0 1-1.894 1.064 1.655 1.655 0 0 1-1.069-1.869l.213-1.029Z" clip-rule="evenodd"/>
  </mask>
  <path fill="#D9667B" fill-rule="evenodd" d="M15.107 6.798H9.75A2.75 2.75 0 0 0 7 9.548v20.774a2.75 2.75 0 0 0 2.75 2.75h16.695a2.75 2.75 0 0 0 2.75-2.75V9.548a2.75 2.75 0 0 0-2.75-2.75h-5.552a3 3 0 1 0-5.785 0ZM19.5 6a1.5 1.5 0 1 1-3 0 1.5 1.5 0 0 1 3 0Zm3.247 2.298a.995.995 0 0 1 .132.496v1.317a1 1 0 0 1-1 1h-7.953a1 1 0 0 1-1-1V8.794c0-.18.048-.35.132-.496H9.75c-.69 0-1.25.56-1.25 1.25v20.774c0 .69.56 1.25 1.25 1.25h16.695c.69 0 1.25-.56 1.25-1.25V9.548c0-.69-.56-1.25-1.25-1.25h-3.698Z" clip-rule="evenodd"/>
  <path fill="#D9667B" d="M15.896 19.755a1.987 1.987 0 1 1-3.974 0 1.987 1.987 0 0 1 3.974 0Z"/>
  <path fill="#D9667B" fill-rule="evenodd" d="M23.151 17.494a2.494 2.494 0 1 1-4.989 0 2.494 2.494 0 0 1 4.989 0Zm-1 0a1.494 1.494 0 1 1-2.989 0 1.494 1.494 0 0 1 2.989 0Zm-6.506 4.714c.123.015.244.051.356.107l-.247.39-.597.943c-.356.563-.207 1.72.383 2.03.204.108.429.151.648.137l.013.069.02.096-.203 1.01a1.31 1.31 0 0 0 .57 1.333 1.087 1.087 0 0 1-.366.222.938.938 0 0 1-1.257-.71c-.104-.524-.495-.875-.926-.88h-.055c-.046 0-.09 0-.133.002-.368.01-.702.314-.8.798a.942.942 0 0 1-1.26.713 1.148 1.148 0 0 1-.726-1.283l.208-1.039a1.078 1.078 0 0 1-.629-.114.982.982 0 0 1-.375-1.407l1.205-1.904a1.09 1.09 0 0 1 .827-.497 3.187 3.187 0 0 0 1.608.433c.603 0 1.167-.167 1.65-.456.012 0 .025 0 .038.002h.048v.005Z" clip-rule="evenodd"/>
  <path fill="#D9667B" d="m16.2 25.884-.012-.07c.022 0 .045-.003.067-.005l-.035.171-.02-.096Z"/>
  <path fill="#D9667B" fill-rule="evenodd" d="M17.263 24.843a.776.776 0 0 1-.359-.087.655.655 0 0 1-.255-.95l1.524-2.385a.81.81 0 0 1 1.038-.274c.044.023.086.05.123.08.044.004.09.011.134.024a4.86 4.86 0 0 0 2.83-.05l.013-.003a.724.724 0 0 1 .117-.077.806.806 0 0 1 1.035.273l1.523 2.385a.652.652 0 0 1-.254.946.807.807 0 0 1-1.034-.274l-.132-.205.157.835.378 1.83a.864.864 0 0 1-.55.962.63.63 0 0 1-.848-.476l-.005-.026c-.172-.833-.835-1.506-1.692-1.522a7.337 7.337 0 0 0-.397.003c-.79.026-1.37.658-1.529 1.425l-.004.02a.634.634 0 0 1-.854.48.87.87 0 0 1-.555-.97l.58-2.801-.305.475a.806.806 0 0 1-.679.362Zm-.16.778a1.566 1.566 0 0 1-.568-.17 1.437 1.437 0 0 1-.557-2.065l1.525-2.385a1.606 1.606 0 0 1 2.133-.52l.05.014a4.059 4.059 0 0 0 2.27-.011 1.604 1.604 0 0 1 2.177.49l1.524 2.385c.463.724.21 1.663-.556 2.062a1.56 1.56 0 0 1-.465.156l.242 1.176a1.649 1.649 0 0 1-1.065 1.862 1.423 1.423 0 0 1-1.887-1.06l-.006-.027c-.114-.555-.522-.885-.93-.893a6.554 6.554 0 0 0-.354.002c-.326.011-.672.283-.778.798l-.005.02a1.428 1.428 0 0 1-1.894 1.064 1.655 1.655 0 0 1-1.069-1.869l.213-1.029Z" clip-rule="evenodd"/>
  <path fill="#D9667B" d="M16.558 22.862a.05.05 0 1 0-.084-.054l.084.054Zm-.823-.11a.05.05 0 1 0 .038-.093l-.038.092Zm-.078-.13a.05.05 0 0 0-.021.099l.02-.098Zm.58 3.184a.05.05 0 0 0-.098.018l.098-.018Zm-.036.078-.05.008v.001l.05-.01Zm-.03.106a.05.05 0 1 0 .098-.02l-.098.02Zm-.619-1.633-.042-.027.042.027Zm-.146.384a.05.05 0 1 0 .1-.008l-.1.008Zm1.266 1.378a.05.05 0 0 0 .098.02l-.098-.02Zm.44-1.69a.05.05 0 0 0-.098-.019l.098.02Zm-.344 1.72a.05.05 0 0 0-.098-.019l.098.02Zm-.24.943-.049-.01.049.01Zm-.063.164a.05.05 0 1 0 .1-.004l-.1.004Zm-4.11-4.527a.05.05 0 1 0-.006-.1l.007.1Zm-.495.237.043.027-.043-.027Zm-1.205 1.903-.042-.026.042.026Zm-.125.177a.05.05 0 1 0 .098.02l-.098-.02Zm5.106-2.325a.611.611 0 0 1 .1.03l.037-.092a.704.704 0 0 0-.116-.036l-.021.098Zm.614 3.154-.013-.07-.098.019.013.068.098-.017Zm.02.095-.02-.096-.098.02.02.096.097-.02Zm-.764-1.237a.563.563 0 0 1 .088-.35l-.084-.053a.662.662 0 0 0-.104.411l.1-.008Zm1.071 2.37.19-.953-.097-.02-.191.953.098.02Zm-.012.15a.654.654 0 0 1 .012-.15l-.098-.02a.75.75 0 0 0-.014.173l.1-.004Zm-4.216-4.623a.684.684 0 0 0-.531.31l.085.053a.584.584 0 0 1 .453-.264l-.007-.1Zm-1.652 2.266 1.206-1.903-.085-.053-1.205 1.903.084.053Zm-.069.17a.506.506 0 0 1 .07-.17l-.085-.053a.603.603 0 0 0-.083.203l.098.02Zm4.966-.682.964-1.522-.084-.054-.964 1.522.084.054Zm1.42.026-.342 1.709.098.02.342-1.71-.098-.019Zm5.101-3.985-.012-.023-.088.046.012.023.088-.046Zm-4.447 6.332L16.9 26.6l-.02.098.768.156.02-.098Zm-2.56-19.96v.1h.13l-.034-.126-.097.027Zm5.785 0-.097-.026-.034.127h.13v-.1Zm1.854 1.5v-.1h-.172l.085.15.087-.05Zm-9.69 0 .088.05.085-.15h-.172v.1Zm2.944 14.018.085.053a.1.1 0 0 0-.04-.143l-.045.09Zm-.356-.107h-.1a.1.1 0 0 0 .087.099l.013-.1Zm.11.497.084.054-.085-.054Zm-.598.943-.084-.054.084.053Zm.383 2.03-.047.09.047-.09Zm.648.137.007.1-.007-.1Zm.032.165-.098-.02.098.02Zm-.202 1.01.098.02-.098-.02Zm.57 1.333.068.074a.1.1 0 0 0-.013-.158l-.055.084Zm-.366.222-.034-.094.034.094Zm-1.257-.71.098-.02-.098.02Zm-.926-.88v-.1.1Zm-.055 0v-.1.1Zm-.133.002-.002-.1.002.1Zm-.8.798-.097-.02.098.02Zm-1.26.713-.034.095.033-.095Zm-.726-1.283.098.02-.098-.02Zm.208-1.039.098.02a.1.1 0 0 0-.11-.12l.012.1Zm-.629-.114-.046.088.046-.088Zm-.375-1.407-.085-.054.085.054Zm1.205-1.904-.085-.053.085.053Zm.827-.497.05-.086a.1.1 0 0 0-.06-.013l.01.1Zm3.257-.023.005-.1a.1.1 0 0 0-.056.014l.051.086Zm.04.002-.009.1h.008v-.1Zm.046 0h.1a.1.1 0 0 0-.1-.1v.1Zm.61 3.606.098.02a.1.1 0 0 0-.11-.12l.012.1Zm1.01-.966v-.1.1Zm-.36-.087.047-.089-.047.089Zm-.255-.95.084.054-.084-.053Zm1.524-2.385-.084-.053.084.053Zm1.038-.274-.047.088.046-.088Zm.123.08-.064.078.025.02.032.003.007-.1Zm.134.024-.028.096.027-.096Zm2.83-.05-.03-.095.03.096Zm.013-.003.03.095.017-.005.015-.012-.063-.078Zm.117-.077-.046-.089.046.089Zm1.035.273.084-.053-.084.053Zm1.523 2.385.085-.053-.085.053Zm-.254.946.046.09-.046-.09Zm-.254.08.014.1-.014-.1Zm-.78-.353-.085.054.085-.054Zm-.132-.206.084-.054-.182.072.098-.018Zm.157.835-.098.018v.002l.098-.02Zm.378 1.83.098-.02-.098.02Zm-.55.962.033.095-.033-.095Zm-.848-.476.098-.02-.098.02Zm-.005-.026-.098.02.098-.02Zm-1.692-1.522-.002.1.002-.1Zm-.397.003-.004-.1.004.1Zm-1.529 1.425-.098-.02.098.02Zm-.004.02.098.02-.098-.02Zm-.854.48.033-.094-.033.094Zm-.555-.97-.098-.02.098.02Zm.58-2.801.097.02-.182-.074.084.054Zm-.305.475.084.054-.084-.054Zm-1.407.97-.046.09.046-.09Zm.568.17.098.02.022-.108-.11-.011-.01.1Zm-1.125-2.235.085.054-.085-.054Zm1.525-2.385-.085-.054.085.054Zm2.077-.55.046-.088-.046.088Zm.056.03-.05.087.012.007.014.004.024-.097Zm.05.014.028-.096-.027.096Zm2.27-.011.029.096.013-.004.011-.007-.053-.085Zm.103-.059-.046-.089.046.09Zm2.074.549-.084.054.084-.054Zm1.524 2.385.084-.054-.084.054ZM25.1 25.42l.047.089-.047-.089Zm-.465.156-.017-.099-.102.017.02.102.099-.02Zm.242 1.176.098-.02-.098.02Zm-1.065 1.862.033.095-.033-.095Zm-1.887-1.06.098-.02-.098.02Zm-.935-.92-.002.1.002-.1Zm-.355.002.003.1-.003-.1Zm-.778.798-.099-.02.099.02Zm-.005.02.098.02-.098-.02ZM17.96 28.52l.033-.094-.033.094Zm-1.07-1.87-.098-.02.098.02ZM18 7.6A1.6 1.6 0 0 0 19.6 6h-.2A1.4 1.4 0 0 1 18 7.4v.2ZM16.4 6A1.6 1.6 0 0 0 18 7.6v-.2A1.4 1.4 0 0 1 16.6 6h-.2ZM18 4.4A1.6 1.6 0 0 0 16.4 6h.2A1.4 1.4 0 0 1 18 4.6v-.2ZM19.6 6A1.6 1.6 0 0 0 18 4.4v.2A1.4 1.4 0 0 1 19.4 6h.2Zm-4.493.698H9.75v.2h5.357v-.2Zm-5.357 0a2.85 2.85 0 0 0-2.85 2.85h.2a2.65 2.65 0 0 1 2.65-2.65v-.2ZM6.9 9.548v20.774h.2V9.548h-.2Zm0 20.774a2.85 2.85 0 0 0 2.85 2.85v-.2a2.65 2.65 0 0 1-2.65-2.65h-.2Zm2.85 2.85h16.695v-.2H9.75v.2Zm16.695 0a2.85 2.85 0 0 0 2.85-2.85h-.2a2.65 2.65 0 0 1-2.65 2.65v.2Zm2.85-2.85V9.548h-.2v20.774h.2Zm0-20.774a2.85 2.85 0 0 0-2.85-2.85v.2a2.65 2.65 0 0 1 2.65 2.65h.2Zm-2.85-2.85h-5.552v.2h5.552v-.2Zm-5.456.126A3.11 3.11 0 0 0 21.1 6h-.2c0 .267-.036.526-.104.771l.193.053ZM21.1 6A3.1 3.1 0 0 0 18 2.9v.2A2.9 2.9 0 0 1 20.9 6h.2ZM18 2.9A3.1 3.1 0 0 0 14.9 6h.2A2.9 2.9 0 0 1 18 3.1v-.2ZM14.9 6c0 .285.039.562.11.824l.194-.053A2.901 2.901 0 0 1 15.1 6h-.2Zm8.079 2.794c0-.199-.053-.385-.145-.546l-.174.1a.895.895 0 0 1 .119.446h.2Zm0 1.317V8.794h-.2v1.317h.2Zm-1.1 1.1a1.1 1.1 0 0 0 1.1-1.1h-.2a.9.9 0 0 1-.9.9v.2Zm-7.953 0h7.953v-.2h-7.953v.2Zm-1.1-1.1a1.1 1.1 0 0 0 1.1 1.1v-.2a.9.9 0 0 1-.9-.9h-.2Zm0-1.317v1.317h.2V8.794h-.2Zm.145-.546a1.096 1.096 0 0 0-.145.546h.2c0-.163.043-.315.119-.447l-.174-.099Zm-3.221.15h3.308v-.2H9.75v.2ZM8.6 9.548c0-.635.515-1.15 1.15-1.15v-.2a1.35 1.35 0 0 0-1.35 1.35h.2Zm0 20.774V9.548h-.2v20.774h.2Zm1.15 1.15a1.15 1.15 0 0 1-1.15-1.15h-.2c0 .745.604 1.35 1.35 1.35v-.2Zm16.695 0H9.75v.2h16.695v-.2Zm1.15-1.15a1.15 1.15 0 0 1-1.15 1.15v.2a1.35 1.35 0 0 0 1.35-1.35h-.2Zm0-20.774v20.774h.2V9.548h-.2Zm-1.15-1.15c.635 0 1.15.515 1.15 1.15h.2a1.35 1.35 0 0 0-1.35-1.35v.2Zm-3.698 0h3.698v-.2h-3.698v.2Zm-6.951 11.357a1.887 1.887 0 0 1-1.887 1.887v.2a2.087 2.087 0 0 0 2.087-2.087h-.2Zm-1.887 1.887a1.887 1.887 0 0 1-1.887-1.887h-.2c0 1.153.935 2.087 2.087 2.087v-.2Zm-1.887-1.887c0-1.042.845-1.886 1.887-1.886v-.2a2.087 2.087 0 0 0-2.087 2.086h.2Zm1.887-1.886c1.042 0 1.887.844 1.887 1.886h.2a2.087 2.087 0 0 0-2.087-2.086v.2Zm6.748 1.22c.88 0 1.594-.714 1.594-1.595h-.2c0 .77-.624 1.395-1.394 1.395v.2Zm-1.595-1.595c0 .88.714 1.595 1.595 1.595v-.2c-.77 0-1.395-.625-1.395-1.395h-.2Zm1.595-1.594c-.88 0-1.595.714-1.595 1.594h.2c0-.77.625-1.394 1.395-1.394v-.2Zm1.594 1.594c0-.88-.714-1.594-1.594-1.594v.2c.77 0 1.394.624 1.394 1.394h.2Zm-1.594 2.595a2.594 2.594 0 0 0 2.594-2.595h-.2a2.394 2.394 0 0 1-2.394 2.395v.2Zm-2.595-2.595a2.594 2.594 0 0 0 2.595 2.595v-.2a2.394 2.394 0 0 1-2.395-2.395h-.2Zm2.595-2.594a2.594 2.594 0 0 0-2.595 2.594h.2a2.394 2.394 0 0 1 2.395-2.394v-.2Zm2.594 2.594a2.594 2.594 0 0 0-2.594-2.594v.2a2.394 2.394 0 0 1 2.394 2.394h.2Zm-7.205 4.731a1.23 1.23 0 0 0-.39-.117l-.024.199c.113.014.223.047.325.098l.089-.18Zm-.207.534.247-.39-.17-.108-.246.39.169.108Zm-.597.942.597-.942-.17-.108-.596.943.169.107Zm.344 1.89c-.254-.135-.43-.464-.494-.85-.064-.383-.011-.786.15-1.04l-.17-.107c-.195.31-.246.767-.177 1.18.068.412.263.817.598.993l.093-.177Zm.596.124a1.117 1.117 0 0 1-.596-.125l-.093.177c.222.117.465.163.702.148l-.013-.2Zm-.066 1.295.202-1.01-.196-.04-.202 1.01.196.04Zm.527 1.23a1.21 1.21 0 0 1-.527-1.23l-.196-.04a1.41 1.41 0 0 0 .614 1.437l.109-.168Zm-.387.4c.15-.055.285-.139.4-.243l-.135-.148a.99.99 0 0 1-.333.202l.068.188Zm-1.389-.786a1.04 1.04 0 0 0 1.389.785l-.068-.188a.839.839 0 0 1-1.125-.636l-.196.04Zm-.83-.799c.375.004.733.311.83.8l.196-.04c-.112-.56-.535-.955-1.023-.96l-.002.2Zm-.054 0h.055l.001-.2h-.055v.2Zm-.13.002.13-.002v-.2c-.045 0-.09 0-.134.002l.005.2Zm-.703.718c.09-.45.394-.71.704-.718l-.005-.2c-.427.011-.792.362-.895.879l.196.039Zm-1.393.788a1.042 1.042 0 0 0 1.393-.788l-.196-.04a.842.842 0 0 1-1.13.64l-.067.188Zm-.79-1.398a1.248 1.248 0 0 0 .79 1.398l.067-.189a1.048 1.048 0 0 1-.661-1.17l-.196-.039Zm.208-1.039-.208 1.04.196.038.208-1.038-.196-.04Zm-.577-.006c.216.114.456.153.687.125l-.024-.198a.973.973 0 0 1-.57-.104l-.093.177Zm-.414-1.549a1.082 1.082 0 0 0 .414 1.55l.093-.178a.882.882 0 0 1-.338-1.265l-.169-.107Zm1.205-1.903-1.205 1.903.169.107 1.205-1.903-.169-.107Zm.903-.543a1.19 1.19 0 0 0-.903.543l.17.107a.99.99 0 0 1 .75-.451l-.017-.2Zm1.617.432c-.568 0-1.1-.153-1.558-.42l-.1.174a3.288 3.288 0 0 0 1.658.446v-.2Zm1.598-.442a3.088 3.088 0 0 1-1.598.442v.2c.622 0 1.204-.172 1.7-.47l-.102-.172Zm.098-.012a1.211 1.211 0 0 0-.042-.002l-.01.2a.84.84 0 0 1 .036.002l.016-.2Zm.04 0h-.048v.2h.048v-.2Zm.1.104v-.005l-.2.001v.005h.2Zm.498 3.502a.63.63 0 0 1-.061.006l.013.2.071-.007-.023-.199Zm.075.29.034-.17-.196-.04-.034.172.196.039Zm.945-1.256a.676.676 0 0 1-.312-.076l-.093.178a.877.877 0 0 0 .405.098v-.2Zm-.312-.076a.555.555 0 0 1-.218-.807l-.169-.107a.755.755 0 0 0 .294 1.092l.093-.178Zm-.218-.807 1.524-2.385-.169-.107-1.524 2.385.169.107Zm1.524-2.385a.71.71 0 0 1 .907-.24l.093-.177a.91.91 0 0 0-1.169.31l.17.107Zm.907-.24a.62.62 0 0 1 .106.07l.127-.154a.82.82 0 0 0-.14-.093l-.093.177Zm.163.093a.523.523 0 0 1 .113.019l.055-.192a.734.734 0 0 0-.155-.027l-.012.2Zm.113.019c.435.124.891.19 1.362.19v-.2c-.452 0-.89-.064-1.307-.182l-.055.192Zm1.362.19c.53 0 1.043-.084 1.527-.24l-.062-.19c-.464.15-.956.23-1.465.23v.2Zm1.526-.24.012-.004-.06-.19-.012.003.06.191Zm.045-.021a.613.613 0 0 1 .102-.067l-.093-.177a.81.81 0 0 0-.134.088l.125.156Zm.102-.067a.706.706 0 0 1 .903.24l.169-.108a.906.906 0 0 0-1.165-.309l.093.177Zm.903.24 1.524 2.384.169-.107-1.524-2.385-.169.107Zm1.524 2.384a.553.553 0 0 1-.217.804l.093.177a.752.752 0 0 0 .293-1.088l-.169.107Zm-.217.804a.664.664 0 0 1-.22.069l.027.198a.863.863 0 0 0 .286-.09l-.093-.177Zm-.22.069a.707.707 0 0 1-.683-.308l-.169.108c.19.296.544.443.879.398l-.027-.198Zm-.683-.308-.132-.206-.168.108.131.206.169-.108Zm.221 2.533a.764.764 0 0 1-.485.848l.066.189a.964.964 0 0 0 .615-1.077l-.196.04Zm-.485.848a.53.53 0 0 1-.717-.402l-.196.04a.73.73 0 0 0 .979.55l-.066-.188Zm-.717-.402-.005-.026-.196.04.005.026.196-.04Zm-.005-.026c-.18-.869-.875-1.584-1.788-1.602l-.004.2c.801.015 1.431.645 1.596 1.442l.195-.04Zm-1.788-1.602-.15-.002v.2c.049 0 .098 0 .146.002l.004-.2Zm-.15-.002c-.087 0-.171.002-.253.005l.007.2c.08-.003.16-.005.245-.005v-.2Zm-.253.005c-.847.028-1.457.705-1.623 1.505l.196.04c.152-.734.702-1.32 1.434-1.346l-.007-.2Zm-1.623 1.505-.004.02.196.04.004-.02-.196-.04Zm-.004.02a.534.534 0 0 1-.723.406l-.066.189a.734.734 0 0 0 .985-.554l-.196-.04Zm-.723.406a.77.77 0 0 1-.49-.855l-.195-.04a.97.97 0 0 0 .62 1.084l.065-.19Zm-.093-3.731-.304.476.168.107.304-.475-.168-.108Zm-.304.476a.706.706 0 0 1-.595.315v.2a.906.906 0 0 0 .763-.408l-.168-.107Zm-1.37 1.112c.193.1.398.16.605.18l.02-.198a1.467 1.467 0 0 1-.532-.159l-.092.177Zm-.594-2.208a1.537 1.537 0 0 0 .595 2.208l.092-.177a1.337 1.337 0 0 1-.518-1.923l-.169-.108Zm1.524-2.385-1.524 2.385.169.108 1.524-2.385-.169-.108Zm2.208-.584a1.706 1.706 0 0 0-2.208.584l.169.108a1.506 1.506 0 0 1 1.947-.515l.092-.177Zm.06.032a1.612 1.612 0 0 0-.06-.032l-.092.177.052.028.1-.173Zm.028.004a1.525 1.525 0 0 0-.055-.015l-.047.195.047.012.055-.192Zm1.088.152a3.96 3.96 0 0 1-1.088-.152l-.055.192c.365.104.748.16 1.143.16v-.2Zm1.126-.163a3.956 3.956 0 0 1-1.126.163v.2c.41 0 .806-.06 1.183-.171l-.057-.192Zm.085-.052a1.49 1.49 0 0 0-.11.063l.106.17c.031-.02.063-.038.096-.055l-.092-.178Zm2.204.584a1.704 1.704 0 0 0-2.204-.584l.092.178a1.504 1.504 0 0 1 1.944.514l.168-.108Zm1.524 2.385-1.524-2.385-.168.108 1.524 2.385.168-.108Zm-.593 2.205a1.535 1.535 0 0 0 .593-2.205l-.168.108a1.335 1.335 0 0 1-.518 1.92l.093.177Zm-.496.165a1.66 1.66 0 0 0 .495-.165l-.092-.178c-.14.073-.287.121-.436.146l.033.197Zm.324 1.058-.242-1.176-.196.04.243 1.176.195-.04Zm-1.13 1.977a1.748 1.748 0 0 0 1.13-1.977l-.195.04c.15.733-.287 1.5-1 1.748l.065.189Zm-2.018-1.135a1.523 1.523 0 0 0 2.018 1.135l-.066-.19a1.323 1.323 0 0 1-1.756-.985l-.196.04Zm-.006-.026.006.026.196-.04-.006-.027-.196.04Zm-.833-.814c.352.007.726.296.833.814l.196-.04c-.122-.593-.564-.965-1.026-.974l-.003.2Zm-.132-.001h.132l.003-.2h-.135v.2Zm-.218.003c.07-.002.143-.003.218-.003v-.2c-.077 0-.152 0-.224.003l.006.2Zm-.684.718c.1-.48.414-.709.684-.718l-.006-.2c-.382.013-.76.327-.873.878l.195.04Zm-.004.02.004-.02-.195-.04-.005.02.196.04Zm-2.024 1.139a1.528 1.528 0 0 0 2.024-1.139l-.196-.04a1.328 1.328 0 0 1-1.763.99l-.065.189Zm-1.135-1.984a1.755 1.755 0 0 0 1.135 1.984l.065-.19a1.555 1.555 0 0 1-1.004-1.754l-.196-.04Zm.213-1.03-.213 1.03.196.04.213-1.029-.196-.04Zm6.463-1.336.157.835.197-.037-.158-.835-.196.037Zm.157.837.378 1.83.196-.04-.378-1.83-.196.04Zm-5.86 1.727.579-2.802-.196-.04-.578 2.802.195.04Z" mask="url(#a)"/>
</svg>
