<svg xmlns="http://www.w3.org/2000/svg" width="36" height="36" fill="none" viewBox="0 0 36 36">
  <path fill="#D9667B" d="M16.5 16a1 1 0 0 1 1-1h1a1 1 0 0 1 1 1v11a1 1 0 0 1-1 1h-1a1 1 0 0 1-1-1V16Zm-5 5a1 1 0 0 1 1-1h1a1 1 0 0 1 1 1v6a1 1 0 0 1-1 1h-1a1 1 0 0 1-1-1v-6Zm11-3a1 1 0 0 0-1 1v8a1 1 0 0 0 1 1h1a1 1 0 0 0 1-1v-8a1 1 0 0 0-1-1h-1Z"/>
  <path fill="#D9667B" fill-rule="evenodd" d="M9.75 6.798h5.357a3 3 0 1 1 5.785 0h5.553a2.75 2.75 0 0 1 2.75 2.75v20.774a2.75 2.75 0 0 1-2.75 2.75H9.75A2.75 2.75 0 0 1 7 30.322V9.548a2.75 2.75 0 0 1 2.75-2.75ZM18 7.5a1.5 1.5 0 1 0 0-3 1.5 1.5 0 0 0 0 3Zm4.879 1.294c0-.18-.048-.35-.132-.496h3.698c.69 0 1.25.56 1.25 1.25v20.774c0 .69-.56 1.25-1.25 1.25H9.75c-.69 0-1.25-.56-1.25-1.25V9.548c0-.69.56-1.25 1.25-1.25h3.308a.995.995 0 0 0-.132.496v1.317a1 1 0 0 0 1 1h7.953a1 1 0 0 0 1-1V8.794Z" clip-rule="evenodd"/>
</svg>
