<svg xmlns="http://www.w3.org/2000/svg" width="36" height="36" fill="none" viewBox="0 0 36 36">
  <path fill="#D9667B" d="M10.578 15.983a.75.75 0 0 1 .75-.75h10.5a.75.75 0 0 1 0 1.5h-10.5a.75.75 0 0 1-.75-.75Zm0 3.5a.75.75 0 0 1 .75-.75h10.5a.75.75 0 0 1 0 1.5h-10.5a.75.75 0 0 1-.75-.75Zm13.696 4.369a.3.3 0 0 0-.528 0L23.1 25.05l-1.31.282a.3.3 0 0 0-.164.49l.912 1.049-.15 1.393a.3.3 0 0 0 .428.302l1.194-.57 1.195.57a.3.3 0 0 0 .428-.302l-.15-1.393.912-1.049a.3.3 0 0 0-.164-.49l-1.31-.282-.647-1.198Z"/>
  <path fill="#D9667B" fill-rule="evenodd" d="m18.505 3.822 5.524 5.62 1.878 1.878c.087.087.155.183.204.283a2.75 2.75 0 0 1 .527 1.62v7.486a5.978 5.978 0 1 1-7.614 8.67H8.75A2.75 2.75 0 0 1 6 26.63V5.75A2.75 2.75 0 0 1 8.75 3h7.794a2.75 2.75 0 0 1 1.961.822ZM7.5 5.75c0-.69.56-1.25 1.25-1.25h7.776v6.862c0 .967.784 1.75 1.75 1.75h6.858c.003.037.004.073.004.11v6.986a5.978 5.978 0 0 0-6.83 7.672H8.75c-.69 0-1.25-.56-1.25-1.25V5.75Zm10.526-.19 4.938 4.938 1.095 1.114h-5.783a.25.25 0 0 1-.25-.25V5.561ZM28.49 26.08a4.478 4.478 0 1 1-8.957 0 4.478 4.478 0 0 1 8.957 0Z" clip-rule="evenodd"/>
  <path fill="#D9667B" d="M19.77 21.867h-8.442a.75.75 0 1 0 0 1.5h7.354a5.995 5.995 0 0 1 1.088-1.5Z"/>
</svg>
