<svg xmlns="http://www.w3.org/2000/svg" width="36" height="36" fill="none" viewBox="0 0 36 36">
  <path fill="#D9667B" fill-rule="evenodd" d="M24.801 8.596a3.596 3.596 0 1 1-7.193 0 3.596 3.596 0 0 1 7.193 0Zm-1.3 0a2.296 2.296 0 1 1-4.593 0 2.296 2.296 0 0 1 4.593 0Z" clip-rule="evenodd"/>
  <path fill="#D9667B" d="M14.34 11.856a2.864 2.864 0 1 1-5.729 0 2.864 2.864 0 0 1 5.73 0Z"/>
  <path fill="#D9667B" fill-rule="evenodd" d="M24.019 13.013v-.009h-.079a1.651 1.651 0 0 0-.063-.004l-.007.005-.014.009a5.021 5.021 0 0 1-.75.41 4.77 4.77 0 0 1-1.927.406c-.96 0-1.86-.287-2.633-.787a1.765 1.765 0 0 0-1.353.904l-1.973 3.461c-.107.189-.18.389-.22.592h-1.732l1.461-2.308a1.593 1.593 0 0 0-.75-.3v-.007h-.07a1.5 1.5 0 0 0-.056-.003 4.596 4.596 0 0 1-2.377.658 4.596 4.596 0 0 1-2.32-.624 1.571 1.571 0 0 0-1.191.717L6.782 18h.199A2 2 0 0 0 5 20v9a2 2 0 0 0 2 2h21a2 2 0 0 0 2-2v-9a2 2 0 0 0-2-2h-.496a1.957 1.957 0 0 0-.227-.631l-1.972-3.461a1.767 1.767 0 0 0-1.286-.895ZM26.473 18a.975.975 0 0 0-.065-.136l-1.972-3.461a.81.81 0 0 0-.369-.345 5.802 5.802 0 0 1-2.888.772c-1.004 0-1.95-.26-2.787-.715a.823.823 0 0 0-.33.327l-1.973 3.462a.976.976 0 0 0-.048.096h10.432ZM28 19.5H7a.5.5 0 0 0-.5.5v7h22v-7a.5.5 0 0 0-.5-.5Z" clip-rule="evenodd"/>
</svg>
