<svg width="30" height="30" viewBox="0 0 30 30" fill="none" xmlns="http://www.w3.org/2000/svg">
<path fill-rule="evenodd" clip-rule="evenodd" d="M19.4872 24C19.5194 24 19.5455 23.9739 19.5455 23.9417V23.8182C19.5455 22.814 18.7314 22 17.7273 22V21H23.1818C24.186 21 25 20.1046 25 19V8C25 6.89543 24.186 6 23.1818 6H6.81818C5.81403 6 5 6.89543 5 8V19C5 20.1046 5.81403 21 6.81818 21H12.2727V22C11.2686 22 10.4545 22.814 10.4545 23.8182V23.9417C10.4545 23.9739 10.4806 24 10.5128 24H19.4872ZM6.36364 18V7.5H23.6364V18H6.36364ZM10.1553 10.26C10.0516 10.26 9.88193 10.2863 9.74176 10.4264C9.60158 10.5666 9.57531 10.7363 9.57531 10.84V15.92C9.57531 16.0237 9.60158 16.1934 9.74176 16.3336C9.88193 16.4737 10.0516 16.5 10.1553 16.5H10.6753C10.779 16.5 10.9487 16.4737 11.0889 16.3336C11.229 16.1934 11.2553 16.0237 11.2553 15.92V10.84C11.2553 10.7363 11.229 10.5666 11.0889 10.4264C10.9487 10.2863 10.779 10.26 10.6753 10.26H10.1553ZM17.6834 10.26C17.5797 10.26 17.4101 10.2863 17.2699 10.4264C17.1297 10.5666 17.1034 10.7363 17.1034 10.84V11.296C17.1034 11.3997 17.1297 11.5694 17.2699 11.7096C17.4101 11.8497 17.5797 11.876 17.6834 11.876H18.6234V15.92C18.6234 16.0237 18.6497 16.1934 18.7899 16.3336C18.9301 16.4737 19.0997 16.5 19.2034 16.5H19.7234C19.8272 16.5 19.9968 16.4737 20.137 16.3336C20.2772 16.1934 20.3034 16.0237 20.3034 15.92V11.876H21.2434C21.3472 11.876 21.5168 11.8497 21.657 11.7096C21.7972 11.5694 21.8234 11.3997 21.8234 11.296V10.84C21.8234 10.7363 21.7972 10.5666 21.657 10.4264C21.5168 10.2863 21.3472 10.26 21.2434 10.26H17.6834ZM14.3784 11.5C13.7613 11.5 13.2068 11.6481 12.8035 12.0281C12.3911 12.4167 12.2304 12.9693 12.2304 13.584V14.512C12.2304 15.1267 12.3911 15.6793 12.8035 16.0679L12.8035 16.0679L12.8069 16.0711C13.2133 16.4469 13.7643 16.596 14.3784 16.596C14.9954 16.596 15.55 16.4479 15.9533 16.0679C16.3656 15.6793 16.5264 15.1267 16.5264 14.512V13.584C16.5264 12.9675 16.3619 12.4144 15.9435 12.0265C15.5412 11.6484 14.9908 11.5 14.3784 11.5ZM13.9104 13.648C13.9104 13.3542 13.9745 13.2349 14.0103 13.1937C14.0337 13.1672 14.1151 13.1 14.3784 13.1C14.6446 13.1 14.717 13.1685 14.7331 13.1875L14.7384 13.1937L14.7439 13.1998C14.7807 13.2404 14.8464 13.3567 14.8464 13.648V14.448C14.8464 14.7377 14.7813 14.8615 14.7388 14.9099L14.7381 14.9107C14.7232 14.9278 14.6489 14.996 14.3784 14.996C14.1269 14.996 14.0383 14.9369 14.0099 14.9094C13.9687 14.856 13.9104 14.7279 13.9104 14.448V13.648Z" fill="black"/>
</svg>
