<svg xmlns="http://www.w3.org/2000/svg" width="36" height="36" fill="none" viewBox="0 0 36 36">
  <path fill="#F3AE7A" d="M20 6.724a.3.3 0 0 1 .512-.212l7.976 7.976a.3.3 0 0 1-.212.512H21a1 1 0 0 1-1-1V6.724Z"/>
  <path fill="#D17C3A" fill-rule="evenodd" d="M11.145 22.183c-1.07-.462-1.606-1.14-1.606-2.035 0-.616.224-1.104.671-1.463.455-.36 1.122-.543 2.002-.55.059 0 .088-.033.088-.099v-.451c0-.154.051-.282.154-.385a.54.54 0 0 1 .396-.165c.154 0 .282.055.385.165.11.103.165.231.165.385v.528c0 .051.03.084.088.099.205.022.407.055.605.099.183.037.33.128.44.275a.787.787 0 0 1 .176.506v.033a.42.42 0 0 1-.187.363.488.488 0 0 1-.407.066 5.027 5.027 0 0 0-.627-.132c-.059-.015-.088.011-.088.077v1.991c-.015.059.007.103.066.132.55.235.939.513 1.166.836.235.323.352.726.352 1.21 0 .667-.227 1.188-.682 1.562-.447.367-1.111.565-1.991.594-.051 0-.077.033-.077.099v.462a.505.505 0 0 1-.165.385.505.505 0 0 1-.385.165.54.54 0 0 1-.396-.165.522.522 0 0 1-.154-.385v-.517c0-.059-.037-.095-.11-.11a5.146 5.146 0 0 1-.704-.154.785.785 0 0 1-.429-.308.964.964 0 0 1-.154-.528v-.088c0-.14.059-.25.176-.33a.383.383 0 0 1 .385-.033c.25.103.495.18.737.231a.073.073 0 0 0 .066-.011c.022-.022.033-.044.033-.066v-1.936a.52.52 0 0 1 .044-.231c.03-.059.018-.099-.033-.121Zm1.067-2.871c-.821.022-1.232.3-1.232.836 0 .506.403.862 1.21 1.067l.011.011h.022c.022.007.04.004.055-.011a.118.118 0 0 0 .022-.066v-1.738c0-.066-.03-.099-.088-.099Zm.121 5.335c.785-.051 1.177-.37 1.177-.957a.91.91 0 0 0-.264-.671c-.176-.176-.484-.326-.924-.451-.059-.015-.088.007-.088.066v1.925c0 .059.033.088.099.088Z" clip-rule="evenodd"/>
  <path fill="#D17C3A" d="M17.75 18.5a.75.75 0 0 0 0 1.5h5.5a.75.75 0 0 0 0-1.5h-5.5Zm0 3a.75.75 0 0 0 0 1.5h5.5a.75.75 0 0 0 0-1.5h-5.5Zm0 3a.75.75 0 0 0 0 1.5h5.5a.75.75 0 0 0 0-1.5h-5.5Z"/>
  <path fill="#D17C3A" fill-rule="evenodd" d="m25.033 9.972-5.8-5.9a2.75 2.75 0 0 0-1.96-.822H9A2.75 2.75 0 0 0 6.25 6v22A2.75 2.75 0 0 0 9 30.75h16A2.75 2.75 0 0 0 27.75 28V13.862a2.75 2.75 0 0 0-.524-1.615c-.05-.103-.119-.2-.208-.29l-1.985-1.985ZM9 4.75c-.69 0-1.25.56-1.25 1.25v22c0 .69.56 1.25 1.25 1.25h16c.69 0 1.25-.56 1.25-1.25V13.862c0-.038-.002-.075-.005-.112H19A1.75 1.75 0 0 1 17.25 12V4.75H9Zm9.75 1.06V12c0 .138.112.25.25.25h6.169l-1.201-1.222-5.218-5.217Z" clip-rule="evenodd"/>
</svg>
