<svg xmlns="http://www.w3.org/2000/svg" width="36" height="36" fill="none" viewBox="0 0 36 36">
  <path fill="#F9DBB7" d="M27.935 19.935a7 7 0 1 1-14 0 7 7 0 0 1 14 0Z"/>
  <path fill="#EB9734" d="m4 25.036 15.435-7.101-7.419 15-1.645-6.254L4 25.037Z"/>
  <path fill="#EB9734" d="M16.744 29.386a11.76 11.76 0 1 0-9.161-9.03l1.672-.363a10.05 10.05 0 1 1 7.828 7.717l-.34 1.676Z"/>
  <path fill="#EB9734" d="M18.365 25.459a7.633 7.633 0 1 0-6.872-6.738l1.455-.165A6.167 6.167 0 1 1 18.502 24l-.137 1.459Z"/>
</svg>
