<svg xmlns="http://www.w3.org/2000/svg" width="36" height="36" fill="none" viewBox="0 0 36 36">
  <path fill="#C9DDF7" d="M28 27a7 7 0 1 1-14 0 7 7 0 0 1 14 0Z"/>
  <path fill="#4B7FE4" d="M19 2.5a.5.5 0 0 0-1 0V4h-1.5a.5.5 0 0 0 0 1H18v1.5a.5.5 0 0 0 1 0V5h1.5a.5.5 0 0 0 0-1H19V2.5Zm6 4a.5.5 0 0 0-1 0V7h-.5a.5.5 0 0 0 0 1h.5v.5a.5.5 0 0 0 1 0V8h.5a.5.5 0 0 0 0-1H25v-.5Zm-18 17a.5.5 0 0 0-1 0v.5h-.5a.5.5 0 0 0 0 1H6v.5a.5.5 0 0 0 1 0V25h.5a.5.5 0 0 0 0-1H7v-.5Z"/>
  <path fill="#4B7FE4" fill-rule="evenodd" d="M12 12a4.978 4.978 0 0 1-1.011 3.015l3.715 4.458A6.97 6.97 0 0 1 19 18a6.98 6.98 0 0 1 4.92 2.02l2.221-2.222a4 4 0 1 1 1.254.867l-2.523 2.523a7 7 0 1 1-11.25-.67l-3.71-4.453A5 5 0 1 1 12 12Zm7 18.5a5.5 5.5 0 1 0 0-11 5.5 5.5 0 0 0 0 11Zm-12-15a3.5 3.5 0 1 0 0-7 3.5 3.5 0 0 0 0 7Zm22 2a2.5 2.5 0 1 0 0-5 2.5 2.5 0 0 0 0 5Z" clip-rule="evenodd"/>
</svg>
