<svg xmlns="http://www.w3.org/2000/svg" width="36" height="36" fill="none" viewBox="0 0 36 36">
  <path fill="#F2BFB0" d="M17.059 13.314c1.077 1.637 2.888 2.829 5.019 3.2l3.149 2.01c.92.587 1.058 1.705.308 2.498-.751.793-2.105.96-3.026.373l-3.062-1.954-2.962 11.322A2.77 2.77 0 0 1 11 30.232v-9.009c0-.307.05-.603.143-.879a1 1 0 0 1 .084-.358l2.416-5.453c.064-.285.212-.565.446-.812.736-.777 2.051-.953 2.97-.407Z"/>
  <path fill="#AE6049" fill-rule="evenodd" d="M21 10.5a3.5 3.5 0 1 0 0-7 3.5 3.5 0 0 0 0 7Zm0 1.5a5 5 0 1 0 0-10 5 5 0 0 0 0 10Z" clip-rule="evenodd"/>
  <path fill="#F2BFB0" d="M13 22.732a2 2 0 0 1 3.464-2l5.395 9.344a2 2 0 0 1-3.464 2L13 22.732Z"/>
  <path fill="#AE6049" fill-rule="evenodd" d="M14.543 11.89c-.614-.28-1.451-.137-1.909.346a.994.994 0 0 0-.26.462l-.016.072-2.445 5.52a.25.25 0 0 0-.021.09l-.005.103-.033.1a2.01 2.01 0 0 0-.104.64v.527h6.302l.507-1.96a.754.754 0 0 1 .065-.166l.358-1.37 3.93 2.508c.618.394 1.575.276 2.078-.255.234-.248.299-.507.273-.72-.026-.212-.153-.448-.44-.631l-3.025-1.93c-2.19-.422-4.076-1.643-5.255-3.337Zm2.002 11.946-.843 3.26a.758.758 0 0 1-.066.167l1.408 2.438a1.25 1.25 0 0 0 2.165-1.25l-2.664-4.615Zm-1.963 1.6 1.082-4.186H9.75v6.982a2.018 2.018 0 0 0 4 .388l.004-.023.827-3.163v.002ZM8.25 19.75H7a.75.75 0 0 0 0 1.5h1.25v6.982a3.518 3.518 0 0 0 6.857 1.113l.638 1.106a2.75 2.75 0 0 0 4.763-2.75l-3.42-5.924.138-.527h7.024v8H24a.75.75 0 0 0 0 1.5h5a.75.75 0 0 0 0-1.5h-3.25v-8H29a.75.75 0 0 0 0-1.5h-5.145c.078-.067.153-.137.224-.212.517-.546.758-1.242.673-1.934-.086-.692-.488-1.309-1.122-1.713l-3.275-2.09-.148-.025c-1.938-.338-3.564-1.419-4.522-2.874l-.094-.145-.149-.088c-1.216-.723-2.918-.499-3.897.536a2.51 2.51 0 0 0-.615 1.085l-2.389 5.392c-.072.165-.12.338-.139.515-.099.326-.152.67-.152 1.026v.527Zm11.422 0h-2.054l.294-1.123 1.76 1.123Z" clip-rule="evenodd"/>
</svg>
