<svg xmlns="http://www.w3.org/2000/svg" width="36" height="36" fill="none" viewBox="0 0 36 36">
  <path fill="#FBE0FE" d="M10 12a2 2 0 0 1 2-2h16a2 2 0 0 1 2 2v20a2 2 0 0 1-2 2H12a2 2 0 0 1-2-2V12Z"/>
  <path fill="#A367A9" fill-rule="evenodd" d="M14.107 5.798H8.75A2.75 2.75 0 0 0 6 8.548v20.774a2.75 2.75 0 0 0 2.75 2.75h16.695a2.75 2.75 0 0 0 2.75-2.75V8.548a2.75 2.75 0 0 0-2.75-2.75h-5.552a3 3 0 1 0-5.785 0ZM17 6.5a1.5 1.5 0 1 0 0-3 1.5 1.5 0 0 0 0 3Zm4.747.798a.995.995 0 0 1 .132.496V9.11a1 1 0 0 1-1 1h-7.952a1 1 0 0 1-1-1V7.794c0-.18.048-.35.131-.496H8.75c-.69 0-1.25.56-1.25 1.25v20.774c0 .69.56 1.25 1.25 1.25h16.695c.69 0 1.25-.56 1.25-1.25V8.548c0-.69-.56-1.25-1.25-1.25h-3.698Z" clip-rule="evenodd"/>
  <path fill="#A367A9" d="M16.956 18.97a2.213 2.213 0 1 0 0-4.427 2.213 2.213 0 0 0 0 4.427Z"/>
  <path fill="#A367A9" fill-rule="evenodd" d="M14.242 20.062c.206-.326.555-.522.921-.554a3.551 3.551 0 0 0 1.791.482c.672 0 1.3-.186 1.836-.508l.046.003h.052v.005c.35.043.677.236.875.548l1.342 2.12c.35.55.16 1.26-.417 1.564-.191.101-.4.144-.606.135l.254 1.269c.12.595-.234 1.22-.804 1.424a1.046 1.046 0 0 1-1.4-.792c-.117-.583-.552-.974-1.033-.98a6.268 6.268 0 0 0-.209.002c-.41.011-.782.35-.89.89a1.05 1.05 0 0 1-1.406.794 1.28 1.28 0 0 1-.808-1.43l.232-1.157a1.195 1.195 0 0 1-.7-.127 1.094 1.094 0 0 1-.42-1.568l1.344-2.12Z" clip-rule="evenodd"/>
</svg>
