<svg xmlns="http://www.w3.org/2000/svg" width="36" height="36" fill="none" viewBox="0 0 36 36">
  <path fill="#B2E9EC" d="m16.695 21.552-4.775-4.72a1.544 1.544 0 0 1 2.171-2.197l5.044 4.986a10.156 10.156 0 0 0 5.362-.272 1.6 1.6 0 0 1 .249-.164 1.69 1.69 0 0 1 2.18.582l3.21 5.071a1.394 1.394 0 0 1-.537 2.012 1.69 1.69 0 0 1-2.18-.582l-.276-.438.333 1.787.795 3.881c.173.845-.347 1.761-1.16 2.046-.814.286-1.614-.168-1.787-1.012l-.073-.358c-.325-1.588-1.577-2.865-3.196-2.927a16.338 16.338 0 0 0-1.421.01c-1.492.079-2.588 1.282-2.887 2.746l-.065.316c-.174.851-.98 1.308-1.8 1.02-.82-.287-1.343-1.21-1.168-2.061l1.793-8.765.188-.96Z"/>
  <path fill="#49B1B7" fill-rule="evenodd" d="M15.355 2.836A1 1 0 0 1 16.342 2h6.639a1 1 0 0 1 .986.836l.5 3a.994.994 0 0 1-.157.723 5.5 5.5 0 1 1-9.297 0 .994.994 0 0 1-.158-.723l.5-3ZM16.538 7a4 4 0 1 0 6.245 0h-6.245Z" clip-rule="evenodd"/>
  <path fill="#49B1B7" fill-rule="evenodd" d="m23.341 15.474.444.04a3.181 3.181 0 0 1 2.407 1.45l3.212 5.072a2.893 2.893 0 0 1-1.106 4.141 3.098 3.098 0 0 1-1.107.338l.55 2.682c.323 1.58-.612 3.23-2.134 3.763-1.671.586-3.397-.392-3.752-2.128l-.073-.357c-.215-1.05-.987-1.698-1.784-1.729a14.874 14.874 0 0 0-1.285.008c-.64.034-1.297.573-1.497 1.55l-.065.316c-.356 1.742-2.088 2.723-3.765 2.135-1.528-.536-2.467-2.192-2.142-3.778l1.793-8.758.032-.165-4.204-4.156a3.033 3.033 0 0 1-.897-1.962A2.75 2.75 0 0 1 5.35 9.821l2-3.464a2.75 2.75 0 1 1 4.763 2.75l-.917 1.588c.365.023.726.11 1.065.264l.583.264.212.604a7.022 7.022 0 0 0 4.521 4.359l.01.003.01.003a7 7 0 0 0 2.064.309c1.19 0 2.308-.296 3.286-.817l.393-.21ZM9.53 13.28c.227-.196.426-.433.585-.708l.092-.16a1.548 1.548 0 0 1 1.437-.085 8.521 8.521 0 0 0 5.49 5.292l.002.003.022.005a8.501 8.501 0 0 0 2.505.375c1.443 0 2.8-.36 3.99-.993a1.68 1.68 0 0 1 1.273.76l3.211 5.07a1.394 1.394 0 0 1-.537 2.012 1.69 1.69 0 0 1-2.18-.582l-.276-.438.333 1.787.795 3.881c.173.845-.347 1.761-1.16 2.046-.814.286-1.614-.168-1.787-1.012l-.073-.358c-.325-1.588-1.577-2.865-3.196-2.927a16.34 16.34 0 0 0-1.421.01c-1.492.079-2.588 1.282-2.887 2.746l-.065.316c-.174.851-.98 1.308-1.8 1.02-.82-.287-1.343-1.21-1.168-2.061l1.793-8.765.188-.96L9.92 14.83a1.544 1.544 0 0 1-.391-1.552Zm-.463-1.893.458-.793-2.165-1.25-.71 1.228a1.25 1.25 0 0 0 1.669 1.73 3.047 3.047 0 0 1 .748-.915ZM8.11 8.045l2.165 1.25.54-.937a1.25 1.25 0 0 0-2.165-1.25l-.54.937Z" clip-rule="evenodd"/>
</svg>
