<svg xmlns="http://www.w3.org/2000/svg" width="36" height="36" fill="none" viewBox="0 0 36 36">
  <path fill="#E3F9C8" d="M22.162 18.49c.075-.06.158-.115.248-.162a1.69 1.69 0 0 1 2.18.582l3.21 5.07a1.394 1.394 0 0 1-.537 2.012 1.69 1.69 0 0 1-2.18-.581l-.278-.44.334 1.788.795 3.882c.173.844-.347 1.76-1.16 2.046-.814.285-1.614-.168-1.787-1.013l-.073-.357c-.325-1.588-1.577-2.866-3.196-2.927a16.344 16.344 0 0 0-1.421.009c-1.492.08-2.588 1.283-2.887 2.746l-.065.317c-.174.85-.98 1.308-1.8 1.02-.82-.287-1.343-1.21-1.168-2.061l1.22-5.959-.641 1.012a1.696 1.696 0 0 1-2.187.583 1.398 1.398 0 0 1-.54-2.018l3.213-5.072a1.696 1.696 0 0 1 2.186-.584c.08.042.152.09.22.141.061.008.123.021.184.04a10.168 10.168 0 0 0 6.13-.074Z"/>
  <path fill="#9EC86A" fill-rule="evenodd" d="M22.481 8.5a5.5 5.5 0 1 1-11 0 5.5 5.5 0 0 1 11 0Zm-1.5 0a4 4 0 1 1-8 0 4 4 0 0 1 8 0Z" clip-rule="evenodd"/>
  <path fill="#9EC86A" d="M14.266 19.682A1.586 1.586 0 0 1 15.57 19h.086a1.75 1.75 0 0 1 1.387.682l.363.472.363-.472A1.75 1.75 0 0 1 19.156 19h.086a1.586 1.586 0 0 1 .967 2.843L17.406 24l-2.803-2.157a1.586 1.586 0 0 1-.337-2.16Z"/>
  <path fill="#9EC86A" fill-rule="evenodd" d="M23.27 32.102c1.522-.533 2.457-2.182 2.133-3.762l-.549-2.682a3.1 3.1 0 0 0 1.108-.338 2.893 2.893 0 0 0 1.105-4.142l-3.21-5.07A3.19 3.19 0 0 0 19.71 15c-.076.04-.151.083-.223.13a8.684 8.684 0 0 1-2.507.369 8.65 8.65 0 0 1-2.514-.372l-.022-.006a3.196 3.196 0 0 0-4.271 1.043l-3.211 5.071a2.898 2.898 0 0 0 1.107 4.149c.42.22.872.336 1.324.355l-.487 2.38c-.325 1.586.614 3.242 2.142 3.778 1.677.588 3.409-.394 3.765-2.135l.065-.317c.2-.977.857-1.515 1.497-1.55a13.705 13.705 0 0 1 1.285-.007c.797.03 1.569.68 1.784 1.728l.073.358c.355 1.735 2.08 2.714 3.752 2.127Zm-2.86-15.774a1.69 1.69 0 0 1 2.18.582l3.21 5.07a1.394 1.394 0 0 1-.537 2.012 1.69 1.69 0 0 1-2.18-.582l-.278-.44.334 1.79.795 3.88c.173.845-.347 1.761-1.16 2.047-.814.285-1.614-.168-1.787-1.013l-.073-.357c-.325-1.588-1.577-2.866-3.196-2.927a16.344 16.344 0 0 0-1.421.009c-1.492.08-2.588 1.283-2.887 2.746l-.065.317c-.174.85-.98 1.308-1.8 1.02-.82-.287-1.343-1.21-1.168-2.061l1.22-5.959-.641 1.012c-.28.44-.754.708-1.254.76a1.642 1.642 0 0 1-.933-.177 1.398 1.398 0 0 1-.54-2.018l3.213-5.072a1.696 1.696 0 0 1 2.186-.584c.08.042.152.09.22.141.061.008.123.021.184.04a10.163 10.163 0 0 0 6.13-.074c.075-.06.158-.115.248-.162Z" clip-rule="evenodd"/>
</svg>
