<svg xmlns="http://www.w3.org/2000/svg" width="36" height="36" fill="none" viewBox="0 0 36 36">
  <path fill="#F3D7D7" d="M30 12a1 1 0 0 0-1-1H10a1 1 0 0 0-1 1v5h21v-5Z"/>
  <path fill="#D96666" fill-rule="evenodd" d="M11 9H8a2 2 0 0 0-2 2v17a2 2 0 0 0 2 2h20a2 2 0 0 0 2-2V11a2 2 0 0 0-2-2h-3V7a2 2 0 0 0-2-2H13a2 2 0 0 0-2 2v2Zm12.5-.5h-11V7a.5.5 0 0 1 .5-.5h10a.5.5 0 0 1 .5.5v1.5Zm5 6V11a.5.5 0 0 0-.5-.5H8a.5.5 0 0 0-.5.5v3.5h21ZM7.5 16v12a.5.5 0 0 0 .5.5h20a.5.5 0 0 0 .5-.5V16h-21Z" clip-rule="evenodd"/>
  <path fill="#D96666" d="M18 18a1 1 0 0 0-1 1v2h-2a1 1 0 1 0 0 2h2v2a1 1 0 1 0 2 0v-2h2a1 1 0 1 0 0-2h-2v-2a1 1 0 0 0-1-1Z"/>
</svg>
