<svg xmlns="http://www.w3.org/2000/svg" width="36" height="36" fill="none" viewBox="0 0 36 36">
  <path fill="#AFD1FE" d="M20 7.724a.3.3 0 0 1 .512-.212l7.976 7.976a.3.3 0 0 1-.212.512H21a1 1 0 0 1-1-1V7.724Z"/>
  <path fill="#2962AE" fill-rule="evenodd" d="M16.062 27h1.876a.512.512 0 0 0 .503-.393l.213-.94a4.238 4.238 0 0 0 .79-.443l.948.293a.523.523 0 0 0 .602-.226l.938-1.577a.492.492 0 0 0-.1-.62l-.734-.65a3.93 3.93 0 0 0 0-.886l.734-.65a.492.492 0 0 0 .1-.619l-.938-1.577a.523.523 0 0 0-.602-.226l-.948.293a4.18 4.18 0 0 0-.791-.444l-.212-.942a.512.512 0 0 0-.503-.393h-1.876a.512.512 0 0 0-.503.393l-.21.941a4.27 4.27 0 0 0-.401.194 4.19 4.19 0 0 0-.392.25l-.947-.293a.523.523 0 0 0-.603.227l-.938 1.576a.492.492 0 0 0 .1.62l.734.648a3.93 3.93 0 0 0 0 .886l-.734.65a.492.492 0 0 0-.1.62l.94 1.576a.522.522 0 0 0 .603.226l.947-.293c.246.176.511.325.791.444l.21.942c.052.23.261.393.503.393Zm-1.125-5c0-1.105.923-2 2.061-2 1.139 0 2.061.895 2.061 2s-.922 2-2.061 2c-1.138 0-2.061-.895-2.061-2Z" clip-rule="evenodd"/>
  <path fill="#2962AE" fill-rule="evenodd" d="m19.234 5.072 5.799 5.9 1.985 1.986c.09.089.158.186.208.289a2.75 2.75 0 0 1 .524 1.615V29A2.75 2.75 0 0 1 25 31.75H9A2.75 2.75 0 0 1 6.25 29V7A2.75 2.75 0 0 1 9 4.25h8.273a2.75 2.75 0 0 1 1.96.822ZM7.75 7c0-.69.56-1.25 1.25-1.25h8.25V13c0 .966.784 1.75 1.75 1.75h7.245c.003.037.005.074.005.112V29c0 .69-.56 1.25-1.25 1.25H9c-.69 0-1.25-.56-1.25-1.25V7Zm11 6V6.81l5.218 5.218 1.2 1.222H19a.25.25 0 0 1-.25-.25Z" clip-rule="evenodd"/>
</svg>
