<svg xmlns="http://www.w3.org/2000/svg" width="24" height="24" fill="none" viewBox="0 0 24 24">
  <path fill="#000" fill-rule="evenodd" d="M9 5H6a2 2 0 0 0-2 2v14a2 2 0 0 0 2 2h12a2 2 0 0 0 2-2V7a2 2 0 0 0-2-2h-3a3 3 0 1 0-6 0Zm4 0a1 1 0 0 1-2 0h2Zm0 0a1 1 0 0 0-2 0h2Zm1.975.387A3 3 0 0 1 9.764 7H6v14h12V7h-3.764c.394-.44.66-.997.74-1.613Z" clip-rule="evenodd"/>
  <path fill="#000" d="M8 7a1 1 0 0 1 1-1h6a1 1 0 0 1 1 1v1a1 1 0 0 1-1 1H9a1 1 0 0 1-1-1V7Zm0 8a1 1 0 1 1 2 0 1 1 0 0 1-2 0Zm0-3a1 1 0 1 1 2 0 1 1 0 0 1-2 0Zm0 6a1 1 0 1 1 2 0 1 1 0 0 1-2 0Zm3-5.5a.5.5 0 0 1 .5-.5h4a.5.5 0 0 1 0 1h-4a.5.5 0 0 1-.5-.5Zm0 3a.5.5 0 0 1 .5-.5h4a.5.5 0 0 1 0 1h-4a.5.5 0 0 1-.5-.5Zm0 3a.5.5 0 0 1 .5-.5h4a.5.5 0 0 1 0 1h-4a.5.5 0 0 1-.5-.5Z"/>
</svg>
