<svg xmlns="http://www.w3.org/2000/svg" width="24" height="24" fill="none" viewBox="0 0 24 24">
  <path fill="#000" d="m7.613 18.476.726.388a7.734 7.734 0 0 0 3.658.914H12A7.778 7.778 0 1 0 4.222 12v.003a7.734 7.734 0 0 0 .914 3.658l.388.726-.597 2.686 2.686-.597ZM3.534 21.66a1 1 0 0 1-1.193-1.193l.835-3.757A9.956 9.956 0 0 1 2 12C2 6.477 6.477 2 12 2s10 4.477 10 10-4.477 10-10 10a9.955 9.955 0 0 1-4.709-1.176l-3.757.835Z"/>
  <path fill="#000" d="M12.77 11.867a3.583 3.583 0 0 0-1.647 2.157c-.15.554.335 1.021.909 1.021.548 0 .987-.431 1.2-.936a3.1 3.1 0 0 1 1.208-1.419A3.413 3.413 0 0 0 16 10.045a4 4 0 0 0-5.961-3.531c-.953.536-1.632 1.482-1.905 2.537-.14.536.318.994.872.994.549 0 .973-.471 1.236-.954a2 2 0 0 1 3.758.954c0 .88-.569 1.315-1.228 1.82l-.002.002Zm.23 5.178a1 1 0 1 0-2 0 1 1 0 0 0 2 0Z"/>
</svg>
