<svg xmlns="http://www.w3.org/2000/svg" width="24" height="24" fill="none" viewBox="0 0 24 24">
  <path fill="#000" d="M18 22.002H6a2 2 0 0 1-2-2v-16a2 2 0 0 1 2-2h7a.105.105 0 0 1 .027 0h.006l.029.006c.088.006.175.023.259.05h.042a.421.421 0 0 1 .052.044.988.988 0 0 1 .293.2l6 6a.987.987 0 0 1 .2.293.735.735 0 0 1 .023.066v.028c.028.083.044.17.049.258a.1.1 0 0 0 .007.029v.006c.005.006.01.013.013.02v11a2 2 0 0 1-2 2Zm-12-18v16h12v-10h-5a1 1 0 0 1-1-1v-5H6Zm8 1.414v2.586h2.586L14 5.416Z"/>
  <path fill="#000" d="M7 2.002h2v2H7v-2Zm2.127 12.132a3 3 0 1 0 .779-1.28l2.103 2.103v1.028l-1.03.001-1.852-1.852Z"/>
  <path fill="#000" d="m12 16.416 1.414-1.414 4.936 4.936-1.414 1.414L12 16.416Z"/>
</svg>
