<svg xmlns="http://www.w3.org/2000/svg" width="24" height="24" fill="none" viewBox="0 0 24 24">
  <path fill="#000" d="M18 22H6a2 2 0 0 1-2-2V4a2 2 0 0 1 2-2h7a.105.105 0 0 1 .027 0h.006a.15.15 0 0 0 .029.006c.088.006.175.023.259.051h.042a.421.421 0 0 1 .052.043.988.988 0 0 1 .293.2l6 6a.987.987 0 0 1 .2.293.735.735 0 0 1 .023.066v.028c.028.083.044.17.049.258a.1.1 0 0 0 .007.029v.006c.005.006.01.013.013.02v11a2 2 0 0 1-2 2ZM6 4v16h12V10h-5a1 1 0 0 1-1-1V4H6Zm8 1.414V8h2.586L14 5.414ZM13 17a1 1 0 1 1-2 0v-1h-1a1 1 0 1 1 0-2h1v-1a1 1 0 1 1 2 0v1h1a1 1 0 1 1 0 2h-1v1Z"/>
</svg>
