<svg xmlns="http://www.w3.org/2000/svg" width="24" height="24" fill="none" viewBox="0 0 24 24">
  <path fill="#fff" d="M12 22a2.02 2.02 0 0 1-2.01-2h4a2.02 2.02 0 0 1-.149.78 2.043 2.043 0 0 1-1.44 1.18h-.046A1.944 1.944 0 0 1 12 22Zm8-4.236c0 .683-.553 1.236-1.236 1.236H5.236a1.236 1.236 0 0 1-.553-2.342L6 16v-5.5a8.065 8.065 0 0 1 .924-4.06A4.654 4.654 0 0 1 10 4.18V4a2 2 0 1 1 4 0v.18c2.579.614 4 2.858 4 6.32V16l1.317.658c.418.21.683.638.683 1.106Zm1.877-8.8c.076.562-.38 1.036-.947 1.036-.536 0-.97-.425-1.047-.955a8.674 8.674 0 0 0-2.452-4.87c-.425-.424-.476-1.122-.053-1.549.355-.357.925-.397 1.294-.054a9.9 9.9 0 0 1 2.153 2.914 11.521 11.521 0 0 1 1.052 3.478Zm-17.79.08c-.078.53-.511.956-1.047.956-.567 0-1.023-.474-.946-1.036.163-1.205.518-2.38 1.051-3.478a9.9 9.9 0 0 1 2.153-2.914c.369-.343.939-.303 1.294.054.423.427.372 1.125-.053 1.55a8.671 8.671 0 0 0-2.452 4.869Z"/>
</svg>
