<svg xmlns="http://www.w3.org/2000/svg" width="16" height="16" fill="none" viewBox="0 0 16 16">
  <path fill="#D9667B" fill-rule="evenodd" d="M7.212 3.325 10.588 6h.803c.298 0 .59.089.837.256L14.7 7.92c.24.162.43.39.543.658l.143.336A1.5 1.5 0 0 1 14.005 11h-5.65a.51.51 0 0 1-.156-.024l-2.047 1.69a1.462 1.462 0 0 1-.93.334c-1.062 0-1.734-1.075-1.362-2h-.282a1.5 1.5 0 0 1-1.368-.886L.625 6.582A1.477 1.477 0 0 1 3.08 5l.734.83a.5.5 0 0 0 .375.17H5.33l-.437-.728A1.5 1.5 0 0 1 6.18 3h.1a1.5 1.5 0 0 1 .932.325Zm-.861 2.432A.5.5 0 0 0 6.78 6h2.198L6.59 4.108A.5.5 0 0 0 6.281 4H6.18a.5.5 0 0 0-.43.757l.6 1ZM4.493 10l.9-1.338A1.5 1.5 0 0 1 6.639 8h3.775a.5.5 0 0 1 .319.886L9.382 10h4.623a.5.5 0 0 0 .46-.695l-.143-.336a.5.5 0 0 0-.18-.22L11.67 7.085A.5.5 0 0 0 11.39 7h-7.2a1.5 1.5 0 0 1-1.125-.507l-.733-.831a.477.477 0 0 0-.794.51l1.585 3.533a.5.5 0 0 0 .456.295h.915Zm1.023 1.894a.462.462 0 0 1-.678-.615l1.385-2.058A.5.5 0 0 1 6.638 9h2.384l-3.506 2.894Z" clip-rule="evenodd"/>
</svg>
