<svg xmlns="http://www.w3.org/2000/svg" width="16" height="16" fill="none" viewBox="0 0 16 16">
  <path fill="#D9667B" fill-rule="evenodd" d="M8.354 3.354a.5.5 0 0 0-.708 0L1.354 9.646a.5.5 0 0 1-.708-.707L6.94 2.646a1.5 1.5 0 0 1 2.122 0l1.01 1.011a1.29 1.29 0 0 1 1.218-.864h.211a1.5 1.5 0 0 1 1.5 1.5v2.293l2.354 2.353a.5.5 0 0 1-.708.707L8.354 3.354ZM12 4.293a.501.501 0 0 0-.5-.5h-.211a.289.289 0 0 0-.214.482L12 5.293v-1Z" clip-rule="evenodd"/>
  <path fill="#D9667B" fill-rule="evenodd" d="M8.53 13.255a1 1 0 0 0 .887.538H12a1 1 0 0 0 1-1V9.207a1 1 0 0 0-.293-.707l-4-4a1 1 0 0 0-1.414 0l-4 4A1 1 0 0 0 3 9.207v3.586a1 1 0 0 0 1 1h2.583a1 1 0 0 0 1-1v-1.5a.417.417 0 0 1 .834 0v1.5c0 .167.04.324.113.462Zm3.47-.462V9.207l-4-4-4 4v3.586h2.583v-1.5a1.417 1.417 0 0 1 2.834 0v1.5H12Z" clip-rule="evenodd"/>
</svg>
