<svg xmlns="http://www.w3.org/2000/svg" width="16" height="16" fill="none" viewBox="0 0 16 16">
  <path fill="#D9667B" d="M10.5 4.5a.5.5 0 0 0-.5.5v.5h-.5a.5.5 0 0 0 0 1h.5V7a.5.5 0 0 0 1 0v-.5h.5a.5.5 0 0 0 0-1H11V5a.5.5 0 0 0-.5-.5Z"/>
  <path fill="#D9667B" d="M7 3.5h7v7h-.268c.17.294.268.636.268 1h.5a.5.5 0 0 0 .5-.5V3.5a1 1 0 0 0-1-1H7a1 1 0 0 0-1 1v2H3.854a1 1 0 0 0-.82.427l-1.27 1.815a1 1 0 0 0-.18.573V10.5a1 1 0 0 0 1 1h.166c0-.364.114-.706.312-1h-.478V8.315L3.853 6.5H6v3.268A2 2 0 0 1 7 11.5h3c0-.364.097-.706.268-1H7v-.14c0-.001 0 0 0 0V3.5Z"/>
  <path fill="#D9667B" fill-rule="evenodd" d="M15 8.5H2v2h-.5a.5.5 0 0 0 0 1H3a2 2 0 1 0 3.732-1h3.536a2 2 0 1 0 3.465 0H15v-2Zm-3 2a1 1 0 1 0 0 2 1 1 0 0 0 0-2Zm-7 0a1 1 0 1 1 0 2 1 1 0 0 1 0-2Z" clip-rule="evenodd"/>
</svg>
