<svg xmlns="http://www.w3.org/2000/svg" width="16" height="16" fill="none" viewBox="0 0 16 16">
  <path fill="#D9667B" fill-rule="evenodd" d="M3.795 11.437a.919.919 0 0 1-.425-.103.774.774 0 0 1-.302-1.123L4.87 7.389a.957.957 0 0 1 1.23-.325c.053.027.102.06.145.096a.744.744 0 0 1 .159.027 5.75 5.75 0 0 0 3.349-.059l.015-.004a.849.849 0 0 1 .14-.091.954.954 0 0 1 1.223.324l1.802 2.821c.255.399.12.9-.301 1.12a.955.955 0 0 1-1.224-.324l-.155-.244.186.988.447 2.165c.097.47-.194.98-.651 1.139a.745.745 0 0 1-1.003-.564l-.007-.03c-.203-.986-.987-1.782-2-1.801a9.324 9.324 0 0 0-.47.003c-.935.031-1.622.779-1.81 1.687l-.004.024c-.098.473-.55.727-1.01.567a1.03 1.03 0 0 1-.657-1.147l.685-3.315-.36.563a.953.953 0 0 1-.803.428Zm-.19.92a1.852 1.852 0 0 1-.672-.2 1.7 1.7 0 0 1-.658-2.444L4.078 6.89a1.9 1.9 0 0 1 2.524-.614l.06.016a4.802 4.802 0 0 0 2.686-.014 1.897 1.897 0 0 1 2.575.58l1.803 2.822a1.698 1.698 0 0 1-.658 2.44 1.845 1.845 0 0 1-.55.184l.287 1.392c.19.926-.36 1.89-1.26 2.203-.994.345-2.023-.233-2.234-1.255l-.006-.031c-.136-.657-.618-1.048-1.1-1.057a8.245 8.245 0 0 0-.42.002c-.385.014-.795.335-.92.944l-.006.024c-.212 1.026-1.243 1.606-2.24 1.259-.903-.314-1.457-1.282-1.265-2.211l.251-1.218Z" clip-rule="evenodd"/>
  <path fill="#D9667B" fill-rule="evenodd" d="M8 5.088A2.088 2.088 0 1 0 8 .912a2.088 2.088 0 0 0 0 4.176ZM8 6a3 3 0 1 0 0-6 3 3 0 0 0 0 6Z" clip-rule="evenodd"/>
</svg>
