<svg xmlns="http://www.w3.org/2000/svg" width="16" height="16" fill="none" viewBox="0 0 16 16">
  <path fill="#D9667B" fill-rule="evenodd" d="M8 5.089A2.088 2.088 0 1 0 8 .913a2.088 2.088 0 0 0 0 4.176ZM8 6a3 3 0 1 0 0-6 3 3 0 0 0 0 6Z" clip-rule="evenodd"/>
  <path fill="#D9667B" fill-rule="evenodd" d="M5 14.428c-.1-.012-.2-.033-.302-.063-.903-.265-1.536-1.18-1.344-1.964l.251-1.029a2.111 2.111 0 0 1-.672-.17c-.907-.4-1.207-1.339-.658-2.064l1.803-2.385c.517-.684 1.602-.926 2.458-.55l.066.031.06.014a5.657 5.657 0 0 0 2.685-.011c.04-.021.08-.04.122-.06.854-.376 1.937-.133 2.454.55l1.803 2.383c.547.725.248 1.663-.658 2.062a2.091 2.091 0 0 1-.55.156l.287 1.176c.19.782-.36 1.597-1.26 1.861a2.08 2.08 0 0 1-.536.085l-.009.007H5v-.029Zm-1.205-3.834c-.145 0-.291-.028-.425-.087-.422-.186-.558-.61-.302-.949L4.87 7.174c.256-.338.805-.46 1.228-.275a.88.88 0 0 1 .145.081.87.87 0 0 1 .159.023 6.739 6.739 0 0 0 1.579.186 6.72 6.72 0 0 0 1.77-.235l.015-.004a.878.878 0 0 1 .14-.077c.42-.185.968-.063 1.223.274l1.802 2.384c.255.337.12.76-.301.946a1.027 1.027 0 0 1-.3.08c-.354.04-.726-.093-.924-.354l-.155-.206.186.835.447 1.83c.097.397-.34.953-.885.943H5c-.46-.135-.825-.646-.727-1.047l.685-2.8-.36.475c-.175.231-.487.362-.803.361Z" clip-rule="evenodd"/>
  <path fill="#D9667B" fill-rule="evenodd" d="m4.333 13.599 3.462.223-.44 1.29c-.202.594-1.053.91-1.914.712-.818-.189-1.365-.78-1.262-1.363l.154-.862Zm.855 1.293c.03.044.068.086.113.123a.83.83 0 0 0 .341.163c.243.056.484.012.639-.1a.4.4 0 0 0 .148-.193l.159-.464-1.413-.091-.051.288a.373.373 0 0 0 .064.274Zm3.122-.947 3.388-.213.153.853c.105.582-.433 1.171-1.239 1.357-.855.197-1.702-.13-1.895-.731l-.407-1.266Zm1.174.6.145.451a.405.405 0 0 0 .157.204c.153.11.389.152.626.098a.812.812 0 0 0 .332-.158.564.564 0 0 0 .12-.132.375.375 0 0 0 .06-.27l-.05-.28-1.39.087Z" clip-rule="evenodd"/>
</svg>
