<svg xmlns="http://www.w3.org/2000/svg" width="16" height="16" fill="none" viewBox="0 0 16 16">
  <path fill="#D9667B" d="M6.5 6.5v1h-1v-1h1Zm0 3v-1h-1v1h1Zm1-3h1v1h-1v-1Zm1 2h-1v1h1v-1Zm2-2v1h-1v-1h1Zm0 3v-1h-1v1h1Z"/>
  <path fill="#D9667B" fill-rule="evenodd" d="M6 2.5a1 1 0 0 1 1-1h2a1 1 0 0 1 1 1v1h2a1 1 0 0 1 1 1v9a1 1 0 0 1-1 1H4a1 1 0 0 1-1-1v-9a1 1 0 0 1 1-1h2v-1Zm0 2H4v9h8v-9h-2a1 1 0 0 1-1 1H7a1 1 0 0 1-1-1Z" clip-rule="evenodd"/>
  <path fill="#fff" d="M7.405 4.5a.17.17 0 0 1-.168-.171V2.481a.17.17 0 0 1 .168-.171h.081c.046 0 .086.017.12.051a.164.164 0 0 1 .051.12v.681c0 .016.008.024.024.024h.75c.016 0 .024-.008.024-.024v-.681c0-.046.017-.086.051-.12a.164.164 0 0 1 .12-.051h.081c.046 0 .085.017.117.051a.164.164 0 0 1 .051.12v1.848a.164.164 0 0 1-.051.12.155.155 0 0 1-.117.051h-.081a.164.164 0 0 1-.12-.051.164.164 0 0 1-.051-.12v-.795c0-.018-.008-.027-.024-.027h-.75c-.016 0-.024.009-.024.027v.795a.164.164 0 0 1-.051.12.164.164 0 0 1-.12.051h-.081Z"/>
  <path fill="#D9667B" d="M7 11a.5.5 0 0 1 .5-.5h1a.5.5 0 0 1 .5.5v3a.5.5 0 0 1-.5.5h-1A.5.5 0 0 1 7 14v-3Z"/>
</svg>
