<svg width="30" height="30" viewBox="0 0 30 30" fill="none" xmlns="http://www.w3.org/2000/svg">
<path fill-rule="evenodd" clip-rule="evenodd" d="M24.9281 11.159C24.9165 11.0731 24.9022 10.9873 24.885 10.902C24.766 10.3119 24.5154 9.7563 24.1519 9.27653C23.7883 8.79676 23.3212 8.40523 22.7852 8.13113C22.7078 8.0915 22.6291 8.05447 22.5495 8.02007L22.4911 10.535L24.9281 11.159ZM26.2921 13.0559C26.4182 12.5633 26.4749 12.0571 26.462 11.5518C26.4539 11.2349 26.4184 10.9183 26.3554 10.6056C26.1919 9.79427 25.8473 9.03027 25.3474 8.37059C24.8475 7.71091 24.2052 7.17256 23.4683 6.79567C23.1843 6.65043 22.8891 6.53062 22.5862 6.4371C22.103 6.28792 21.6001 6.20565 21.0915 6.19385L21.0566 7.69344L20.9638 11.6924L24.8388 12.6846L26.2919 13.0567L26.2921 13.0559ZM25.1743 14.8984C25.4403 14.4694 25.6473 14.0037 25.7876 13.5137L20.5 12L20.5 6.49997C19.9903 6.49997 19.4857 6.57079 19 6.70847C18.5113 6.84702 18.0417 7.05327 17.6056 7.32319C17.0926 7.6407 16.6378 8.03888 16.2574 8.49997H4C2.89543 8.49997 2 9.3954 2 10.5V23.5C2 24.6045 2.89543 25.5 4 25.5H22C23.1046 25.5 24 24.6045 24 23.5V16.2426C24.0678 16.1867 24.1343 16.1291 24.1995 16.0698C24.5791 15.7248 24.9066 15.3302 25.1743 14.8984ZM22.5 17.1235C22.1791 17.2487 21.8457 17.3441 21.504 17.4076C20.4986 17.5942 19.4611 17.4969 18.508 17.1265C17.5548 16.7562 16.7238 16.1274 16.1082 15.3109C15.4926 14.4944 15.1169 13.5224 15.0232 12.5041C14.9446 11.651 15.0666 10.7938 15.3765 9.99997H4C3.72386 9.99997 3.5 10.2238 3.5 10.5V23.5C3.5 23.7761 3.72386 24 4 24H5.06103V19.0691C5.06103 18.9568 5.08534 18.8581 5.14311 18.7822C5.20302 18.7036 5.28472 18.668 5.36094 18.6575C5.43401 18.6474 5.50431 18.6595 5.559 18.6763C5.61231 18.6926 5.66454 18.7175 5.70212 18.7466L6.09857 19.0499L6.19703 19.1266L9.27694 21.2873C9.35632 21.3491 9.45552 21.3832 9.55828 21.3832H17.8986C18.3078 21.3832 18.6464 21.707 18.6464 22.115V24H22C22.2761 24 22.5 23.7761 22.5 23.5V17.1235ZM17.5505 24V22.4557H9.55828C9.18704 22.4557 8.82634 22.3332 8.53515 22.1074L6.1301 20.403V24H17.5505ZM19 8.29187L19 13.1308L23.6521 14.4626C23.5132 14.6404 23.3589 14.8068 23.1906 14.9598C22.6403 15.4601 21.9614 15.797 21.2302 15.9328C20.499 16.0685 19.7444 15.9977 19.0512 15.7284C18.358 15.459 17.7537 15.0018 17.306 14.4079C16.8583 13.8141 16.585 13.1072 16.5168 12.3666C16.4487 11.6261 16.5883 10.8812 16.9201 10.2156C17.2518 9.54997 17.7626 8.99005 18.395 8.59868C18.5884 8.47897 18.7908 8.37648 19 8.29187ZM6.64413 15.35C5.65713 15.35 4.85001 16.1297 4.85001 17.1001C4.85001 18.0705 5.65713 18.8502 6.64413 18.8502C7.63114 18.8502 8.43826 18.0705 8.43826 17.1001C8.43826 16.1297 7.63114 15.35 6.64413 15.35ZM6.0468 17.1001C6.0468 16.7851 6.31038 16.5228 6.64413 16.5228C6.97789 16.5228 7.24147 16.7851 7.24147 17.1001C7.24147 17.4151 6.97789 17.6774 6.64413 17.6774C6.31038 17.6774 6.0468 17.4151 6.0468 17.1001ZM9.1002 18.2593C8.54179 18.2593 7.95624 18.4097 7.48798 18.7433L6.82218 19.2176L9.57359 21.1777H16.4868V20.5913C16.4868 19.9964 16.147 19.5095 15.7033 19.1934C15.2586 18.8766 14.6739 18.6987 14.0549 18.6987L10.6476 18.6988C10.1908 18.3963 9.63321 18.2593 9.1002 18.2593ZM9.83833 20.1147L8.82165 19.3569C8.88481 19.3429 8.95986 19.3329 9.04527 19.3329C9.39907 19.3329 9.72585 19.4304 9.95372 19.5927L10.2059 19.7724L14 19.7724C14.3936 19.7724 14.7256 19.8868 14.9446 20.0428C14.9731 20.0631 15.0014 20.0879 15.0285 20.1147L9.83833 20.1147Z" fill="black"/>
</svg>
