<svg width="30" height="30" viewBox="0 0 30 30" fill="none" xmlns="http://www.w3.org/2000/svg">
<path fill-rule="evenodd" clip-rule="evenodd" d="M24.9281 11.159C24.9165 11.0731 24.9022 10.9873 24.885 10.902C24.766 10.3119 24.5154 9.7563 24.1519 9.27653C23.7883 8.79676 23.3212 8.40523 22.7852 8.13113C22.7078 8.0915 22.6291 8.05447 22.5495 8.02007L22.4911 10.535L24.9281 11.159ZM26.462 11.5518C26.4749 12.0574 26.4181 12.5638 26.2919 13.0567L24.8388 12.6846L20.9638 11.6924L21.0566 7.69344L21.0915 6.19385C21.6001 6.20565 22.103 6.28792 22.5862 6.4371C22.8891 6.53062 23.1843 6.65043 23.4683 6.79567C24.2052 7.17256 24.8475 7.71091 25.3474 8.37059C25.8473 9.03027 26.1919 9.79427 26.3554 10.6056C26.4184 10.9183 26.4539 11.2349 26.462 11.5518ZM25.1743 14.8984C25.4403 14.4694 25.6473 14.0037 25.7876 13.5137L20.5 12L20.5 6.49997C19.9903 6.49997 19.4857 6.57079 19 6.70847C18.5112 6.84702 18.0417 7.05327 17.6056 7.32319C17.0926 7.6407 16.6377 8.03888 16.2574 8.49997H4C2.89543 8.49997 2 9.3954 2 10.5V23.5C2 24.6045 2.89543 25.5 4 25.5H22C23.1046 25.5 24 24.6045 24 23.5V16.2426C24.0678 16.1867 24.1343 16.1291 24.1995 16.0698C24.5791 15.7248 24.9066 15.3302 25.1743 14.8984ZM22.5 17.1235C22.1791 17.2487 21.8457 17.3441 21.504 17.4076C20.4986 17.5942 19.4611 17.4969 18.508 17.1265C17.5548 16.7562 16.7238 16.1274 16.1082 15.3109C15.4926 14.4944 15.1169 13.5224 15.0232 12.5041C14.9446 11.651 15.0666 10.7938 15.3765 9.99997H4C3.72386 9.99997 3.5 10.2238 3.5 10.5V23.5C3.5 23.7761 3.72386 24 4 24H4.9228C4.94425 23.941 4.96803 23.8826 4.99422 23.8252L6.57174 20.3641C6.83597 19.7844 7.29664 19.4072 7.81184 19.3446C7.86556 19.3381 7.91962 19.3536 7.96169 19.3877C8.55006 19.8634 9.22602 20.13 9.94135 20.13C10.4121 20.13 10.8647 20.0147 11.2865 19.8011C11.5193 19.6832 11.743 19.5352 11.9551 19.3598L11.9662 19.3505L11.9712 19.3464C12.0104 19.3137 12.0606 19.2972 12.1116 19.3004C12.1273 19.3013 12.143 19.3026 12.1586 19.3042L12.2119 19.304C12.2458 19.3038 12.2789 19.3123 12.3082 19.3282C12.7724 19.4318 13.1802 19.7927 13.4228 20.3248L15 23.7853C15.0321 23.8556 15.0605 23.9273 15.0855 24H22C22.2761 24 22.5 23.7761 22.5 23.5V17.1235ZM13.6049 24L12.2637 21.0573C12.2507 21.0288 12.2371 21.004 12.2232 20.9823C11.5374 21.4224 10.7633 21.6743 9.94135 21.6743C9.15869 21.6743 8.41914 21.4459 7.75787 21.0437C7.74863 21.0598 7.73957 21.0774 7.73082 21.0966L6.40749 24H13.6049ZM19 8.29187L19 13.1308L23.6521 14.4626C23.5131 14.6404 23.3589 14.8068 23.1906 14.9598C22.6403 15.4601 21.9614 15.797 21.2302 15.9328C20.499 16.0685 19.7444 15.9977 19.0512 15.7284C18.358 15.459 17.7537 15.0018 17.306 14.4079C16.8583 13.8141 16.585 13.1072 16.5168 12.3666C16.4487 11.6261 16.5883 10.8812 16.9201 10.2156C17.2518 9.54997 17.7626 8.99005 18.395 8.59868C18.5884 8.47897 18.7908 8.37648 19 8.29187ZM11.2658 16C11.2658 16.6991 10.6991 17.2658 10 17.2658C9.30091 17.2658 8.73418 16.6991 8.73418 16C8.73418 15.3009 9.30091 14.7342 10 14.7342C10.6991 14.7342 11.2658 15.3009 11.2658 16ZM10 18.7C11.4912 18.7 12.7 17.4911 12.7 16C12.7 14.5088 11.4912 13.3 10 13.3C8.50883 13.3 7.3 14.5088 7.3 16C7.3 17.4911 8.50883 18.7 10 18.7Z" fill="black"/>
</svg>
