<svg width="30" height="30" viewBox="0 0 30 30" fill="none" xmlns="http://www.w3.org/2000/svg">
<path fill-rule="evenodd" clip-rule="evenodd" d="M15.8125 5.12903C15.8125 5.24837 15.803 5.36541 15.7847 5.4794L15.785 5.4776H18.9855C20.4534 5.4776 21.6432 6.70881 21.6432 8.2276V15.1708C23.0729 16.2635 24 18.0197 24 20C24 23.3137 21.4039 26 18.2014 26C16.7621 26 15.4452 25.4574 14.4315 24.5591H8.6577C7.18989 24.5591 6 23.3278 6 21.8091V8.2276C6 6.70881 7.18989 5.4776 8.6577 5.4776H11.7247C11.7334 5.53209 11.7441 5.58588 11.7567 5.63889C11.7179 5.47554 11.6973 5.30477 11.6973 5.12903C11.6973 3.9532 12.6185 3 13.7549 3C14.8912 3 15.8125 3.9532 15.8125 5.12903ZM14.3628 5.12903C14.3628 5.47644 14.0906 5.75806 13.7549 5.75806C13.4191 5.75806 13.147 5.47644 13.147 5.12903C13.147 4.78163 13.4191 4.5 13.7549 4.5C14.0906 4.5 14.3628 4.78163 14.3628 5.12903ZM20.1936 8.2276V14.3635C19.5723 14.1283 18.9013 14 18.2014 14C18.0915 14 17.9824 14.0032 17.874 14.0094V12.8C17.874 12.6343 17.7397 12.5 17.574 12.5H16.174C16.0083 12.5 15.874 12.6343 15.874 12.8V14.4676C15.5802 14.5865 15.2377 14.7623 15 15L14.874 15.1066V10.8C14.874 10.6343 14.7397 10.5 14.574 10.5H13.174C13.0083 10.5 12.874 10.6343 12.874 10.8V17.8039L12.5854 18.5C12.4662 18.9794 12.4028 19.482 12.4028 20C12.4028 21.1173 12.6979 22.1633 13.212 23.0591H8.6577C7.99052 23.0591 7.44965 22.4994 7.44965 21.8091V8.2276C7.44965 7.53724 7.99051 6.9776 8.6577 6.9776H10.3662C10.3077 7.10646 10.275 7.25034 10.275 7.40212V7.75641C10.275 8.3087 10.7077 8.75641 11.2415 8.75641H16.1344C16.6681 8.75641 17.1008 8.30869 17.1008 7.75641V7.40212C17.1008 7.25034 17.0682 7.10646 17.0097 6.9776H18.9855C19.6527 6.9776 20.1936 7.53724 20.1936 8.2276ZM18.2014 24.5C20.6032 24.5 22.5503 22.4853 22.5503 20C22.5503 17.5147 20.6032 15.5 18.2014 15.5C15.7995 15.5 13.8524 17.5147 13.8524 20C13.8524 22.4853 15.7995 24.5 18.2014 24.5ZM10.174 14.5C10.0083 14.5 9.87402 14.6343 9.87402 14.8V20.2C9.87402 20.3657 10.0083 20.5 10.174 20.5H11.574C11.7397 20.5 11.874 20.3657 11.874 20.2V14.8C11.874 14.6343 11.7397 14.5 11.574 14.5H10.174ZM20.3297 17.2793C20.6627 17.5091 20.7527 17.9747 20.5307 18.3194L17.6414 22.8038L15.8952 20.0936C15.6732 19.7489 15.7632 19.2833 16.0962 19.0535C16.4293 18.8238 16.8793 18.9169 17.1014 19.2615L17.6414 20.0997L19.3245 17.4873C19.5466 17.1427 19.9966 17.0496 20.3297 17.2793Z" fill="black"/>
</svg>
