<svg width="30" height="30" viewBox="0 0 30 30" fill="none" xmlns="http://www.w3.org/2000/svg">
<path fill-rule="evenodd" clip-rule="evenodd" d="M21.7786 10.1024C18.719 9.64776 15.8799 8.23399 13.6728 6.06378C11.4657 8.23399 8.62668 9.64776 5.56712 10.1024L5.55086 10.3024C5.06104 16.326 8.14253 22.0787 13.4284 25.0086L13.5692 25.0866C13.6337 25.1223 13.712 25.1223 13.7765 25.0866L13.9173 25.0086C15.0546 24.3782 16.0899 23.6171 17.0095 22.7507C15.7825 21.742 15 20.2124 15 18.5C15 15.4624 17.4624 13 20.5 13C20.9346 13 21.3575 13.0504 21.763 13.1457C21.8603 12.2116 21.8727 11.2604 21.7948 10.3024L21.7786 10.1024ZM23.2072 13.7113C23.3563 12.5551 23.3868 11.3728 23.2899 10.1808L23.191 8.9652C23.1806 8.83634 23.0778 8.73429 22.9489 8.72464C19.5638 8.4712 16.4084 6.91646 14.1449 4.38667L13.883 4.09399C13.7709 3.96867 13.5748 3.96867 13.4626 4.09399L13.2008 4.38667C10.9373 6.91646 7.78187 8.4712 4.39675 8.72464C4.26783 8.73429 4.16512 8.83634 4.15464 8.9652L4.05579 10.1808C3.51823 16.7916 6.9001 23.1051 12.7012 26.3205L12.842 26.3985C13.3589 26.685 13.9868 26.685 14.5037 26.3985L14.6444 26.3205C16.0161 25.5602 17.2526 24.6267 18.3339 23.557C18.9986 23.8421 19.7309 24 20.5 24C23.5376 24 26 21.5376 26 18.5C26 16.4466 24.8747 14.656 23.2072 13.7113ZM13.6728 7.85905V23.359C11.5062 22.1924 7.17284 18.359 7.17284 11.359C8.50617 11.1924 11.6728 10.259 13.6728 7.85905ZM24.7 18.5C24.7 20.8196 22.8196 22.7 20.5 22.7C18.1804 22.7 16.3 20.8196 16.3 18.5C16.3 16.1804 18.1804 14.3 20.5 14.3C22.8196 14.3 24.7 16.1804 24.7 18.5ZM21.7658 16.4222C21.7658 17.1365 21.1868 17.7155 20.4725 17.7155C19.7582 17.7155 19.1792 17.1365 19.1792 16.4222C19.1792 15.7079 19.7582 15.1289 20.4725 15.1289C21.1868 15.1289 21.7658 15.7079 21.7658 16.4222ZM18.887 18.053C19.0073 17.8631 19.2098 17.7489 19.4229 17.7296C19.731 17.9094 20.0895 18.0125 20.4721 18.0125C20.8655 18.0125 21.2336 17.9035 21.5476 17.714L21.5486 17.7141L21.6026 17.7139L21.6026 17.7187C21.8064 17.7441 21.998 17.8565 22.1134 18.0389L22.8979 19.2777C23.1017 19.5996 22.9909 20.0146 22.6538 20.192C22.5422 20.2508 22.4199 20.2759 22.2998 20.2707L22.4483 21.0122C22.5179 21.3596 22.3116 21.7245 21.9781 21.8441C21.6125 21.9752 21.2362 21.7625 21.16 21.3816C21.0917 21.0407 20.8375 20.8122 20.5568 20.8093L20.5209 20.8091C20.4915 20.8091 20.4627 20.8095 20.4347 20.8102C20.195 20.8164 19.9774 21.015 19.9143 21.33C19.8377 21.7123 19.4601 21.9258 19.093 21.7942C18.7581 21.6741 18.5509 21.3075 18.6207 20.9586L18.7562 20.2824C18.6187 20.2988 18.4758 20.2758 18.347 20.208C18.0093 20.0302 17.8983 19.6144 18.1024 19.292L18.887 18.053ZM18.4857 19.9444C18.3139 19.854 18.2511 19.6553 18.3344 19.4864C18.2523 19.6549 18.3152 19.8527 18.4865 19.9428C18.6704 20.0396 18.9095 19.9758 19.0207 19.8002L19.2199 19.4856L18.9135 21.0155C18.8727 21.2196 18.9984 21.442 19.1943 21.5122C19.3595 21.5714 19.5218 21.5036 19.5932 21.3586C19.5222 21.5048 19.3593 21.5733 19.1935 21.5138C18.9976 21.4436 18.8719 21.2212 18.9128 21.0171L19.2191 19.4872L19.0199 19.8018C18.9721 19.8773 18.9007 19.9321 18.8203 19.9624C18.7134 20.0026 18.5906 19.9996 18.4857 19.9444ZM20.4269 20.5125C20.1053 20.5209 19.8502 20.724 19.7126 21.0042C19.85 20.7232 20.1054 20.5193 20.4277 20.5109C20.4583 20.5101 20.4897 20.5097 20.5217 20.5097L20.5608 20.5099C21.0144 20.5146 21.3637 20.8767 21.4528 21.3215C21.4933 21.5241 21.6839 21.6318 21.8784 21.5621C21.9839 21.5243 22.069 21.4419 22.1182 21.3422C22.0691 21.4427 21.9837 21.5257 21.8776 21.5637C21.6831 21.6335 21.4925 21.5258 21.452 21.3232C21.3629 20.8784 21.0136 20.5162 20.56 20.5115L20.5209 20.5113C20.4889 20.5113 20.4575 20.5117 20.4269 20.5125ZM21.9827 19.7864L21.8747 19.6158L21.8739 19.6117L21.9835 19.7847C22.0943 19.9597 22.3326 20.0233 22.5159 19.9269C22.5857 19.8901 22.6375 19.8354 22.6687 19.7721C22.6376 19.8361 22.5855 19.8914 22.5151 19.9285C22.4292 19.9737 22.3312 19.9837 22.2399 19.9636C22.1364 19.9409 22.0416 19.8793 21.9827 19.7864Z" fill="black"/>
</svg>
