<svg width="30" height="30" viewBox="0 0 30 30" fill="none" xmlns="http://www.w3.org/2000/svg">
<path fill-rule="evenodd" clip-rule="evenodd" d="M24.9281 11.159C24.9165 11.0731 24.9022 10.9873 24.885 10.902C24.766 10.3119 24.5154 9.7563 24.1519 9.27653C23.7883 8.79676 23.3212 8.40523 22.7852 8.13113C22.7078 8.0915 22.6291 8.05447 22.5495 8.02007L22.4911 10.535L24.9281 11.159ZM26.462 11.5518C26.4749 12.0574 26.4181 12.5638 26.2919 13.0567L24.8388 12.6846L20.9638 11.6924L21.0566 7.69344L21.0915 6.19385C21.6001 6.20565 22.103 6.28792 22.5862 6.4371C22.8891 6.53062 23.1843 6.65043 23.4683 6.79567C24.2052 7.17256 24.8475 7.71091 25.3474 8.37059C25.8473 9.03027 26.1919 9.79427 26.3554 10.6056C26.4184 10.9183 26.4539 11.2349 26.462 11.5518ZM25.1743 14.8984C25.4403 14.4694 25.6473 14.0037 25.7876 13.5137L20.5 12L20.5 6.49997C19.9903 6.49997 19.4857 6.57079 19 6.70847C18.5113 6.84702 18.0417 7.05327 17.6056 7.32319C17.0926 7.6407 16.6378 8.03888 16.2574 8.49997H4C2.89543 8.49997 2 9.3954 2 10.5V23.5C2 24.6045 2.89543 25.5 4 25.5H22C23.1046 25.5 24 24.6045 24 23.5V16.2426C24.0678 16.1867 24.1343 16.1291 24.1995 16.0698C24.5791 15.7248 24.9066 15.3302 25.1743 14.8984ZM22.5 17.1235V23.5C22.5 23.7761 22.2761 24 22 24H4C3.72386 24 3.5 23.7761 3.5 23.5V10.5C3.5 10.2238 3.72386 9.99997 4 9.99997H15.3765C15.0666 10.7938 14.9446 11.651 15.0232 12.5041C15.1169 13.5224 15.4926 14.4944 16.1082 15.3109C16.7238 16.1274 17.5548 16.7562 18.508 17.1265C19.4611 17.4969 20.4986 17.5942 21.504 17.4076C21.8457 17.3441 22.1791 17.2487 22.5 17.1235ZM19 8.29187L19 13.1308L23.6521 14.4626C23.5132 14.6404 23.3589 14.8068 23.1906 14.9598C22.6403 15.4601 21.9614 15.797 21.2302 15.9328C20.499 16.0685 19.7444 15.9977 19.0512 15.7284C18.358 15.459 17.7537 15.0018 17.306 14.4079C16.8583 13.8141 16.585 13.1072 16.5168 12.3666C16.4487 11.6261 16.5883 10.8812 16.9201 10.2156C17.2518 9.54997 17.7626 8.99005 18.395 8.59868C18.5884 8.47897 18.7908 8.37648 19 8.29187ZM10.4325 16.2061C10.5171 16.2761 10.6424 16.2648 10.7131 16.1807L11.3051 15.4767C11.3746 15.3941 11.3659 15.2712 11.2855 15.1991C10.8401 14.7995 10.3292 14.4756 9.64 14.3529V13.508C9.64 13.3975 9.55045 13.308 9.43999 13.308H8.656C8.54554 13.308 8.456 13.3975 8.456 13.508V14.3457C8.03161 14.4181 7.66296 14.5755 7.37451 14.811C6.9615 15.1482 6.72799 15.6339 6.72799 16.212C6.72799 16.7539 6.95712 17.1436 7.29175 17.4298C7.61737 17.7083 8.04204 17.8885 8.4397 18.033C8.56637 18.079 8.6889 18.121 8.80607 18.1612L8.80609 18.1612C9.07137 18.2522 9.30922 18.3338 9.50565 18.4309C9.79206 18.5724 9.888 18.6985 9.888 18.836C9.888 19.0044 9.82711 19.1155 9.69739 19.1961C9.55143 19.2869 9.3022 19.348 8.91199 19.348C8.36687 19.348 7.80663 19.1566 7.34872 18.7504C7.30534 18.7119 7.24739 18.6941 7.18989 18.7017C7.1324 18.7093 7.08102 18.7414 7.04907 18.7898L6.52107 19.5898C6.46844 19.6695 6.47957 19.7754 6.54763 19.8424C6.84831 20.1387 7.26059 20.3536 7.67918 20.4945C7.93703 20.5813 8.20305 20.642 8.456 20.6759V21.508C8.456 21.6184 8.54554 21.708 8.656 21.708H9.43999C9.55045 21.708 9.64 21.6184 9.64 21.508V20.644C10.0802 20.5614 10.4515 20.4003 10.7408 20.1693C11.1827 19.8164 11.416 19.3137 11.416 18.732C11.416 18.1816 11.1883 17.7851 10.8534 17.4941C10.5273 17.2108 10.1021 17.0295 9.70344 16.8867C9.56047 16.8355 9.42316 16.7898 9.29292 16.7464L9.29272 16.7464L9.29264 16.7463L9.29252 16.7463C9.04429 16.6637 8.82171 16.5896 8.63439 16.5021C8.34241 16.3658 8.256 16.2493 8.256 16.132C8.256 15.9754 8.32036 15.8702 8.44125 15.7944C8.57371 15.7113 8.78307 15.66 9.064 15.66C9.55134 15.66 9.99571 15.8446 10.4325 16.2061ZM14.5 21.75C14.5 21.3358 14.8358 21 15.25 21L20.75 21C21.1642 21 21.5 21.3358 21.5 21.75C21.5 22.1642 21.1642 22.5 20.75 22.5H15.25C14.8358 22.5 14.5 22.1642 14.5 21.75ZM15.25 19C14.8358 19 14.5 19.3358 14.5 19.75C14.5 20.1642 14.8358 20.5 15.25 20.5L20.75 20.5C21.1642 20.5 21.5 20.1642 21.5 19.75C21.5 19.3358 21.1642 19 20.75 19L15.25 19Z" fill="black"/>
</svg>
