<svg width="30" height="30" viewBox="0 0 30 30" fill="none" xmlns="http://www.w3.org/2000/svg">
<path d="M16.5226 25H12.8826C12.4127 25 12.0061 24.673 11.9056 24.214L11.4986 22.33C10.9556 22.0921 10.4408 21.7946 9.96356 21.443L8.12656 22.028C7.67856 22.1709 7.19154 21.9823 6.95656 21.575L5.13256 18.424C4.90014 18.0165 4.98021 17.5025 5.32556 17.185L6.75056 15.885C6.68575 15.2961 6.68575 14.7019 6.75056 14.113L5.32556 12.816C4.97971 12.4984 4.8996 11.9837 5.13256 11.576L6.95256 8.423C7.18754 8.0157 7.67456 7.82714 8.12256 7.97L9.95956 8.555C10.2036 8.37416 10.4577 8.20722 10.7206 8.055C10.9729 7.91269 11.2326 7.78385 11.4986 7.669L11.9066 5.787C12.0066 5.32797 12.4127 5.00049 12.8826 5H16.5226C16.9924 5.00049 17.3985 5.32797 17.4986 5.787L17.9106 7.67C18.1913 7.79352 18.4648 7.93308 18.7296 8.088C18.9765 8.23081 19.2152 8.38739 19.4446 8.557L21.2826 7.972C21.7303 7.82967 22.2167 8.01816 22.4516 8.425L24.2716 11.578C24.504 11.9855 24.4239 12.4995 24.0786 12.817L22.6536 14.117C22.7184 14.7059 22.7184 15.3001 22.6536 15.889L24.0786 17.189C24.4239 17.5065 24.504 18.0205 24.2716 18.428L22.4516 21.581C22.2167 21.9878 21.7303 22.1763 21.2826 22.034L19.4446 21.449C19.212 21.6203 18.9703 21.7789 18.7206 21.924C18.4584 22.0759 18.188 22.2131 17.9106 22.335L17.4986 24.214C17.3981 24.6726 16.9921 24.9996 16.5226 25ZM10.3226 19.229L11.1426 19.829C11.3274 19.9652 11.5201 20.0904 11.7196 20.204C11.9073 20.3127 12.1005 20.4115 12.2986 20.5L13.2316 20.909L13.6886 23H15.7186L16.1756 20.908L17.1086 20.499C17.5159 20.3194 17.9025 20.0961 18.2616 19.833L19.0826 19.233L21.1236 19.883L22.1386 18.125L20.5556 16.682L20.6676 15.67C20.7168 15.2274 20.7168 14.7806 20.6676 14.338L20.5556 13.326L22.1396 11.88L21.1236 10.121L19.0826 10.771L18.2616 10.171C17.9023 9.90671 17.5158 9.68175 17.1086 9.5L16.1756 9.091L15.7186 7H13.6886L13.2296 9.092L12.2986 9.5C12.1004 9.58704 11.9071 9.68486 11.7196 9.793C11.5213 9.90633 11.3296 10.0309 11.1456 10.166L10.3246 10.766L8.28456 10.116L7.26756 11.88L8.85056 13.321L8.73856 14.334C8.68936 14.7766 8.68936 15.2234 8.73856 15.666L8.85056 16.678L7.26756 18.121L8.28256 19.879L10.3226 19.229ZM14.6986 19C12.4894 19 10.6986 17.2091 10.6986 15C10.6986 12.7909 12.4894 11 14.6986 11C16.9077 11 18.6986 12.7909 18.6986 15C18.6958 17.208 16.9066 18.9972 14.6986 19ZM14.6986 13C13.606 13.0011 12.7164 13.8788 12.7008 14.9713C12.6851 16.0638 13.5491 16.9667 14.6412 16.9991C15.7334 17.0315 16.6494 16.1815 16.6986 15.09V15.49V15C16.6986 13.8954 15.8031 13 14.6986 13Z" fill="black"/>
</svg>
