<svg width="30" height="30" viewBox="0 0 30 30" fill="none" xmlns="http://www.w3.org/2000/svg">
<path fill-rule="evenodd" clip-rule="evenodd" d="M24.9281 11.159C24.9165 11.0731 24.9022 10.9873 24.885 10.902C24.766 10.3119 24.5154 9.7563 24.1519 9.27653C23.7883 8.79676 23.3212 8.40523 22.7852 8.13113C22.7078 8.0915 22.6291 8.05447 22.5495 8.02007L22.4911 10.535L24.9281 11.159ZM26.462 11.5518C26.4749 12.0574 26.4181 12.5638 26.2919 13.0567L24.8388 12.6846L20.9638 11.6924L21.0566 7.69344L21.0915 6.19385C21.6001 6.20565 22.103 6.28792 22.5862 6.4371C22.8891 6.53062 23.1843 6.65043 23.4683 6.79567C24.2052 7.17256 24.8475 7.71091 25.3474 8.37059C25.8473 9.03027 26.1919 9.79427 26.3554 10.6056C26.4184 10.9183 26.4539 11.2349 26.462 11.5518ZM25.1743 14.8984C25.4403 14.4694 25.6473 14.0037 25.7876 13.5137L20.5 12L20.5 6.49997C19.9903 6.49997 19.4857 6.57079 19 6.70847C18.5113 6.84702 18.0417 7.05327 17.6056 7.32319C17.0926 7.6407 16.6378 8.03888 16.2574 8.49997H4C2.89543 8.49997 2 9.3954 2 10.5V23.5C2 24.6045 2.89543 25.5 4 25.5H22C23.1046 25.5 24 24.6045 24 23.5V16.2426C24.0678 16.1867 24.1343 16.1291 24.1995 16.0698C24.5791 15.7248 24.9066 15.3302 25.1743 14.8984ZM22.5 17.1235V23.5C22.5 23.7761 22.2761 24 22 24H4C3.72386 24 3.5 23.7761 3.5 23.5V10.5C3.5 10.2238 3.72386 9.99997 4 9.99997H15.3765C15.0666 10.7938 14.9446 11.651 15.0232 12.5041C15.1169 13.5224 15.4926 14.4944 16.1082 15.3109C16.7238 16.1274 17.5548 16.7562 18.508 17.1265C19.4611 17.4969 20.4986 17.5942 21.504 17.4076C21.8457 17.3441 22.1791 17.2487 22.5 17.1235ZM19 8.29187L19 13.1308L23.6521 14.4626C23.5132 14.6404 23.3589 14.8068 23.1906 14.9598C22.6403 15.4601 21.9614 15.797 21.2302 15.9328C20.499 16.0685 19.7444 15.9977 19.0512 15.7284C18.358 15.459 17.7537 15.0018 17.306 14.4079C16.8583 13.8141 16.585 13.1072 16.5168 12.3666C16.4487 11.6261 16.5883 10.8812 16.9201 10.2156C17.2518 9.54997 17.7626 8.99005 18.395 8.59868C18.5884 8.47897 18.7908 8.37648 19 8.29187ZM6 13.5C6 12.9477 6.44772 12.5 7 12.5H12C12.5523 12.5 13 12.9477 13 13.5C13 14.0523 12.5523 14.5 12 14.5H7C6.44772 14.5 6 14.0523 6 13.5ZM6 17C6 16.4477 6.44772 16 7 16H12C12.5523 16 13 16.4477 13 17C13 17.5523 12.5523 18 12 18H7C6.44772 18 6 17.5523 6 17ZM7 19.5C6.44772 19.5 6 19.9477 6 20.5C6 21.0523 6.44772 21.5 7 21.5H12C12.5523 21.5 13 21.0523 13 20.5C13 19.9477 12.5523 19.5 12 19.5H7Z" fill="black"/>
</svg>
