<svg width="30" height="30" viewBox="0 0 30 30" fill="none" xmlns="http://www.w3.org/2000/svg">
<path fill-rule="evenodd" clip-rule="evenodd" d="M17.2021 9.54513H24.4232C24.5624 9.54499 24.6909 9.47563 24.7604 9.36315C24.8299 9.25066 24.8299 9.11212 24.7603 8.99967L21.1497 3.18149C21.0801 3.06916 20.9516 3 20.8125 3C20.6734 3 20.5449 3.06916 20.4753 3.18149L16.8647 8.99967C16.7951 9.11218 16.7951 9.2508 16.8647 9.36331C16.9343 9.47581 17.0629 9.54513 17.2021 9.54513ZM7.68728 9.58627C7.68728 10.5934 8.50372 11.4099 9.51086 11.4099C10.518 11.4099 11.3344 10.5934 11.3344 9.58627C11.3344 8.57914 10.518 7.7627 9.51086 7.7627C8.50372 7.7627 7.68728 8.57914 7.68728 9.58627ZM9.51086 12.9099C7.67529 12.9099 6.18728 11.4218 6.18728 9.58627C6.18728 7.75071 7.67529 6.2627 9.51086 6.2627C11.3464 6.2627 12.8344 7.75071 12.8344 9.58627C12.8344 11.4218 11.3464 12.9099 9.51086 12.9099ZM13.0752 11.8113C13.984 11.27 15.2457 11.4352 15.9789 12.2098C16.2109 12.455 16.3736 12.7446 16.4522 13.0568C16.4753 13.0993 16.4969 13.1429 16.5167 13.1877L17.9791 16.4885C18.0341 16.6129 18.0742 16.7425 18.099 16.8747C18.1888 17.138 18.2373 17.4196 18.2373 17.7112V23.6993C18.2373 25.1298 17.0777 26.2894 15.6472 26.2894C14.6862 26.2894 13.8483 25.7664 13.4012 24.9897L13.2216 25.3008C12.6474 26.2954 11.3757 26.6361 10.3811 26.0619C9.38651 25.4877 9.04574 24.2159 9.61996 23.2213L11.8416 19.3733L11.4077 17.7142L10.2407 18.4587C9.68526 18.813 8.98859 18.8934 8.35996 18.7254C8.36995 18.7997 8.375 18.8748 8.375 18.9502V25.8408C8.375 26.0738 8.18612 26.2627 7.95313 26.2627C7.72013 26.2627 7.53125 26.0738 7.53125 25.8408V18.9502H7.53862C7.53862 18.8229 7.51008 18.6973 7.45507 18.5824C7.39925 18.4659 7.31764 18.3637 7.21643 18.2834C7.11522 18.2031 6.99706 18.1469 6.87091 18.1191C6.74475 18.0912 6.61392 18.0925 6.48832 18.1227C6.36272 18.1529 6.24565 18.2114 6.14599 18.2936C6.04632 18.3758 5.96667 18.4796 5.91308 18.5971C5.85948 18.7146 5.83335 18.8428 5.83666 18.972C5.84211 19.185 5.77884 19.4221 5.58971 19.5203L5.56105 19.5352C5.35608 19.6417 5.09782 19.5617 5.0449 19.3369C5.01846 19.2246 5.00353 19.1095 5.00055 18.9934C4.994 18.7374 5.04581 18.4832 5.15207 18.2501C5.25833 18.0171 5.41625 17.8113 5.61386 17.6483C5.81146 17.4853 6.04357 17.3695 6.2926 17.3096C6.46345 17.2684 6.63918 17.2544 6.81345 17.2674C6.7567 17.0531 6.74015 16.8296 6.76776 16.6054C6.83426 16.0653 7.14833 15.5912 7.62751 15.2855L9.72134 13.9498L9.84783 13.8691L9.99563 13.8432C11.2177 13.6297 12.236 12.9495 12.8326 12.0433L12.9273 11.8995L13.0752 11.8113ZM13.9653 13.0428C13.1489 14.18 11.8763 14.997 10.4059 15.2923L8.43425 16.5501C8.30164 16.6347 8.26404 16.7276 8.25651 16.7887C8.24899 16.8498 8.26294 16.949 8.37107 17.0632C8.62273 17.3291 9.12533 17.391 9.43398 17.1941L11.4692 15.8957L12.3376 15.3418L12.5982 16.3382L12.6557 16.558C12.6767 16.6016 12.6937 16.6478 12.7062 16.6963L13.9797 21.6199L14.328 22.9515L14.5675 23.8673L14.5733 23.8896L14.5778 23.9121C14.6764 24.4123 15.1186 24.7894 15.6472 24.7894C16.2493 24.7894 16.7373 24.3013 16.7373 23.6993V17.7112C16.7373 17.5747 16.7126 17.4458 16.6681 17.3274L16.6382 17.248L16.6268 17.1639C16.6236 17.1406 16.6172 17.1178 16.6076 17.0961L15.1453 13.7953C15.1383 13.7796 15.1306 13.7659 15.1225 13.7539L15.0285 13.6147L15.0028 13.4486C14.9947 13.3964 14.9669 13.3227 14.8895 13.241C14.6744 13.0137 14.2719 12.9335 13.9653 13.0428ZM12.7972 23.036C12.7943 23.0266 12.7917 23.017 12.7892 23.0074L12.3828 21.436L10.919 23.9713C10.759 24.2485 10.8539 24.6029 11.1311 24.7629C11.4082 24.9229 11.7626 24.8279 11.9226 24.5508L12.7972 23.036Z" fill="black"/>
</svg>
