<svg width="16" height="16" viewBox="0 0 16 16" fill="none" xmlns="http://www.w3.org/2000/svg">
<path d="M10.4136 6.5H6.77976C6.4285 6.5 6.103 6.3157 5.92227 6.0145L5.32227 5.0145C4.92236 4.34797 5.40247 3.5 6.17976 3.5H6.28069C6.50623 3.5 6.72514 3.57624 6.90188 3.71634L10.4136 6.5Z" stroke="#D9667B" stroke-linecap="round" stroke-linejoin="round"/>
<path fill-rule="evenodd" clip-rule="evenodd" d="M1.53718 6.17286C1.39544 5.85699 1.62653 5.5 1.97275 5.5C2.10971 5.5 2.24007 5.55882 2.33069 5.66151L3.06409 6.49254C3.34883 6.81518 3.75843 7 4.18875 7H6.39031H11.3906C11.4901 7 11.5873 7.02967 11.6698 7.08522L14.1416 8.74908C14.2219 8.80315 14.2848 8.87937 14.3226 8.9685L14.4653 9.30465C14.6053 9.63438 14.3633 10 14.005 10H9.22337H8.35481C8.21821 10 8.08756 10.0559 7.99321 10.1547C7.68938 10.4728 7.91488 11 8.35481 11H9.22337H14.005C15.0797 11 15.8057 9.90315 15.3858 8.91394L15.2431 8.5778C15.1297 8.31041 14.941 8.08173 14.7 7.91952L12.2283 6.25566C11.9807 6.08902 11.6891 6 11.3906 6H6.39031H4.18875C4.04531 6 3.90878 5.93839 3.81387 5.83085L3.08047 4.99982C2.80002 4.68203 2.39659 4.5 1.97275 4.5C0.901323 4.5 0.186179 5.60475 0.624828 6.58227L2.2097 10.1141C2.45159 10.6532 2.98739 11 3.57823 11H4.55076C4.7358 11 4.90572 10.8978 4.99244 10.7343C5.16913 10.4013 4.92774 10 4.55076 10H3.57823C3.38128 10 3.20268 9.88439 3.12205 9.7047L1.53718 6.17286Z" fill="#D9667B"/>
<path d="M10.4136 8.5H6.63822C6.30544 8.5 5.99446 8.66555 5.80864 8.94162L4.42309 11.0001C3.99279 11.6395 4.45089 12.5 5.22152 12.5C5.44512 12.5 5.66174 12.4221 5.83418 12.2798L10.4136 8.5Z" stroke="#D9667B" stroke-linecap="round" stroke-linejoin="round"/>
</svg>
