<svg width="16" height="16" viewBox="0 0 16 16" fill="none" xmlns="http://www.w3.org/2000/svg">
<rect x="10" y="4.5" width="1" height="3" rx="0.5" fill="#D9667B"/>
<rect x="9" y="6.5" width="1" height="3" rx="0.5" transform="rotate(-90 9 6.5)" fill="#D9667B"/>
<path fill-rule="evenodd" clip-rule="evenodd" d="M3.06216 10.5H2.5835L2.5835 8.5V8.31522L3.85415 6.5H5.0835H6.00018V9.66031C6.40533 9.80885 6.75149 10.0528 7.00018 10.3593V6.5V5.5H6.00018H5.0835H3.85415C3.52784 5.5 3.22205 5.65921 3.03492 5.92654L1.76426 7.74176C1.64661 7.90984 1.5835 8.11005 1.5835 8.31522V8.5V10.5C1.5835 11.0523 2.03121 11.5 2.5835 11.5H2.75C2.75 11.1357 2.86363 10.7942 3.06216 10.5Z" fill="#D9667B"/>
<path fill-rule="evenodd" clip-rule="evenodd" d="M14 3.5H7L7 10.5H10.2676C10.0974 10.7942 10 11.1357 10 11.5H7C7 10.7597 6.5978 10.1134 6 9.76756V3.5C6 2.94772 6.44772 2.5 7 2.5H14C14.5523 2.5 15 2.94772 15 3.5V11C15 11.2761 14.7761 11.5 14.5 11.5H14C14 11.1357 13.9026 10.7942 13.7324 10.5H14V3.5Z" fill="#D9667B"/>
<circle cx="5" cy="11.5" r="1.5" stroke="#D9667B"/>
<path fill-rule="evenodd" clip-rule="evenodd" d="M3.26756 10.5H1.5C1.22386 10.5 1 10.7239 1 11C1 11.2761 1.22386 11.5 1.5 11.5H3C3 11.1357 3.09739 10.7942 3.26756 10.5Z" fill="#D9667B"/>
<circle cx="12" cy="11.5" r="1.5" stroke="#D9667B"/>
<rect x="2" y="8.5" width="13" height="2" fill="#D9667B"/>
</svg>
