<svg width="24" height="24" viewBox="0 0 24 24" fill="none" xmlns="http://www.w3.org/2000/svg">
<path fill-rule="evenodd" clip-rule="evenodd" d="M7.8 5.34615C7.8 5.23995 7.88954 5.15385 8 5.15385H12H12.2V7.65385C12.2 8.39731 12.8268 9 13.6 9H16.2V10.7308V13.0385H7.8V5.34615ZM17.4 11.5V10.7308V8.98995C17.4 8.6414 17.2594 8.30644 17.0078 8.05554L16.8 7.84835V7.84615H16.7978L13.3536 4.41174C13.0897 4.14863 12.7259 4 12.3458 4H12H8C7.2268 4 6.6 4.60269 6.6 5.34615V11.5H6H5.37661C5.03226 11.5 4.72655 11.7119 4.61766 12.026L4.04105 13.6893C4.01386 13.7677 4 13.8498 4 13.9325V16.1154C4 16.5402 4.35817 16.8846 4.8 16.8846H6.6V17.6538C6.6 18.3973 7.2268 19 8 19H16C16.7732 19 17.4 18.3973 17.4 17.6538V16.8846H19.2C19.6418 16.8846 20 16.5402 20 16.1154V13.9325C20 13.8498 19.9861 13.7677 19.9589 13.6893L19.3823 12.026C19.2734 11.7119 18.9677 11.5 18.6234 11.5H17.4ZM17.6 14.5769C17.6 14.1521 17.9582 13.8077 18.4 13.8077C18.8418 13.8077 19.2 14.1521 19.2 14.5769C19.2 15.0018 18.8418 15.3462 18.4 15.3462C17.9582 15.3462 17.6 15.0018 17.6 14.5769ZM8 17.8462C7.88954 17.8462 7.8 17.7601 7.8 17.6538V16.1154H16.2V17.6538C16.2 17.7601 16.1105 17.8462 16 17.8462H8ZM15.1308 7.84615H13.6C13.4895 7.84615 13.4 7.76005 13.4 7.65385V6.12031L15.1308 7.84615Z" fill="#2E3A59"/>
</svg>
