<svg width="24" height="24" viewBox="0 0 24 24" fill="none" xmlns="http://www.w3.org/2000/svg">
<path fill-rule="evenodd" clip-rule="evenodd" d="M9.67387 14.2954C9.77206 14.403 9.91094 14.4645 10.0566 14.4647C10.0717 14.4647 10.0878 14.4642 10.1039 14.4626L11.503 14.3354L17.3795 8.45839L15.5425 6.62147L9.66452 12.499L9.53728 13.8985C9.52417 14.0442 9.57386 14.1886 9.67387 14.2954ZM15.9097 6.2542L17.7461 8.09111L17.7467 8.09059L18.8477 6.98927C18.9452 6.89183 19 6.75961 19 6.62173C19 6.48386 18.9452 6.35164 18.8477 6.2542L17.7461 5.15236C17.6487 5.05481 17.5165 5 17.3787 5C17.2409 5 17.1087 5.05481 17.0113 5.15236L15.9097 6.2542ZM6.1831 7.36628C6.1831 6.82178 6.62451 6.38037 7.16901 6.38037H11.9014C12.2281 6.38037 12.493 6.11552 12.493 5.78882C12.493 5.46212 12.2281 5.19728 11.9014 5.19728H7.16901C5.9711 5.19728 5 6.16837 5 7.36628V16.831C5 18.0289 5.9711 19 7.16901 19H16.6338C17.8317 19 18.8028 18.0289 18.8028 16.831V12.0986C18.8028 11.7719 18.538 11.5071 18.2113 11.5071C17.8846 11.5071 17.6197 11.7719 17.6197 12.0986V16.831C17.6197 17.3755 17.1783 17.8169 16.6338 17.8169H7.16901C6.62451 17.8169 6.1831 17.3755 6.1831 16.831V7.36628Z" fill="#2E3A59"/>
</svg>
