<svg width="24" height="24" viewBox="0 0 24 24" fill="none" xmlns="http://www.w3.org/2000/svg">
<path fill-rule="evenodd" clip-rule="evenodd" d="M7.28049 8.25373C6.708 8.25373 6.2439 8.72149 6.2439 9.29851C6.2439 9.87552 6.708 10.3433 7.28049 10.3433C7.85298 10.3433 8.31707 9.87552 8.31707 9.29851C8.31707 8.72149 7.85298 8.25373 7.28049 8.25373ZM5 9.29851C5 8.02908 6.02101 7 7.28049 7C8.53997 7 9.56098 8.02908 9.56098 9.29851C9.56098 10.5679 8.53997 11.597 7.28049 11.597C6.02101 11.597 5 10.5679 5 9.29851ZM16.3472 11.8104H12.7697C12.1672 11.3786 11.4138 11.1791 10.6872 11.1791C9.94726 11.1791 9.17947 11.3859 8.57167 11.8344L7.88604 12.3402L8.57167 12.846L11.2463 14.8193L11.4103 14.9403H11.6136L12.2309 14.9403L12.2558 14.9403H18.8902H19.5122V14.3134C19.5122 13.5471 19.0899 12.9067 18.5127 12.4809C17.9352 12.0548 17.1675 11.8104 16.3472 11.8104ZM11.8169 13.6866L10.1816 12.4801C10.3445 12.449 10.5143 12.4328 10.6872 12.4328C11.2127 12.4328 11.7103 12.5821 12.068 12.846L12.1995 12.9431L12.3635 13.0641H12.5669L16.3472 13.0641C16.9313 13.0641 17.4352 13.2397 17.778 13.4926C17.8625 13.5549 17.9351 13.6199 17.9965 13.6866H12.2564L12.2316 13.6866H11.8169ZM6.5366 18.6743H18.4756V16.9201H11.3225C10.8518 16.9201 10.395 16.7586 10.0274 16.4622L6.5366 13.9883V14.4044V15.5588V18.6743ZM5.29269 12.9853V14.4044V15.5588V19.0923C5.29269 19.5539 5.66397 19.9281 6.12196 19.9281H18.8902C19.3482 19.9281 19.7195 19.5539 19.7195 19.0923V16.5022C19.7195 16.0406 19.3482 15.6664 18.8902 15.6664H11.3225C11.1342 15.6664 10.9515 15.6018 10.8045 15.4832L6.5366 12.3827L6.39594 12.2693L5.84688 11.8344C5.73828 11.7468 5.29269 11.597 5.29269 12.1269V12.8038V12.9853Z" fill="#2E3A59"/>
<path d="M13.3415 8.65804C13.2156 8.78415 13 8.69495 13 8.51671V7.0125C13 6.90204 13.0895 6.8125 13.2 6.8125H14.705C14.8831 6.8125 14.9724 7.02784 14.8465 7.15385L14.1822 7.81874C14.529 8.17343 15.0039 8.37386 15.5 8.37498C16.2936 8.37381 17.0005 7.87318 17.265 7.125H17.2706C17.2767 7.10775 17.2825 7.09042 17.2881 7.07301C17.3353 6.9254 17.4649 6.8125 17.6199 6.8125V6.8125C17.8112 6.8125 17.9607 6.98126 17.9099 7.16569C17.6155 8.23496 16.6381 8.99994 15.5 8.99999H15.4969C14.834 9.00196 14.1979 8.73864 13.7303 8.26873L13.3415 8.65804ZM13.7119 5.92663C13.6642 6.07425 13.5345 6.1875 13.3793 6.1875V6.1875C13.1883 6.1875 13.039 6.01895 13.0897 5.83472C13.3839 4.76568 14.3607 4.00063 15.4984 4.00001H15.5C16.163 3.99789 16.7993 4.26122 17.2669 4.73127L17.6588 4.34038C17.7848 4.21464 18 4.30393 18 4.48199V5.9875C18 6.09796 17.9105 6.1875 17.8 6.1875H16.2956C16.1173 6.1875 16.0281 5.97201 16.1542 5.84604L16.8194 5.18126C16.4722 4.82616 15.9967 4.62569 15.5 4.62502C14.7064 4.62619 13.9995 5.12682 13.735 5.87501H13.7294C13.7233 5.89213 13.7175 5.90934 13.7119 5.92663Z" fill="#2E3A59" stroke="#2E3A59" stroke-width="0.3"/>
</svg>
