<svg width="24" height="24" viewBox="0 0 24 24" fill="none" xmlns="http://www.w3.org/2000/svg">
<path fill-rule="evenodd" clip-rule="evenodd" d="M11.5044 4.6662C11.5044 4.93808 11.2927 5.15849 11.0316 5.15849C10.7704 5.15849 10.5587 4.93808 10.5587 4.6662C10.5587 4.39432 10.7704 4.17391 11.0316 4.17391C11.2927 4.17391 11.5044 4.39432 11.5044 4.6662ZM11.0405 6.33237L11.0316 6.3324L11.0235 6.33238L11.0316 6.33242L11.0405 6.33237ZM12.3144 5.66253C12.3362 5.63211 12.3571 5.60089 12.3769 5.56892C12.3571 5.60089 12.3362 5.63211 12.3144 5.66253H12.3144ZM12.6319 4.6662C12.6319 4.75959 12.6245 4.85119 12.6103 4.9404L12.6106 4.93899H15.0999C16.2415 4.93899 17.167 5.90255 17.167 7.09116V10.3118V12.4056V12.525C18.2789 13.3802 19 14.7546 19 16.3043C19 18.8977 16.9808 21 14.49 21C13.3705 21 12.3463 20.5753 11.5578 19.8723H7.0671C5.92547 19.8723 5 18.9087 5 17.7201V7.09116C5 5.90255 5.92547 4.93899 7.0671 4.93899H9.45257C9.49498 5.20715 9.59889 5.45374 9.74872 5.66253H9.74875C9.54932 5.38464 9.43123 5.03978 9.43123 4.6662C9.43123 3.74598 10.1477 3 11.0316 3C11.9154 3 12.6319 3.74598 12.6319 4.6662ZM16.0395 10.3118V11.8932C15.5563 11.7091 15.0344 11.6087 14.49 11.6087C14.019 11.6087 13.5649 11.6838 13.1382 11.8233H8.28866C7.97731 11.8233 7.72491 12.0861 7.72491 12.4102C7.72491 12.7344 7.97731 12.9972 8.28866 12.9972H11.2883C11.0158 13.2832 10.7783 13.6055 10.5833 13.9565H8.28866C7.97731 13.9565 7.72491 14.2193 7.72491 14.5435C7.72491 14.8676 7.97731 15.1304 8.28866 15.1304H10.122C10.0293 15.5056 9.97992 15.899 9.97992 16.3043C9.97992 17.1788 10.2095 17.9974 10.6093 18.6984H7.0671C6.54818 18.6984 6.12751 18.2604 6.12751 17.7201V7.09116C6.12751 6.55088 6.54818 6.1129 7.0671 6.1129H8.39591C8.35043 6.21375 8.32501 6.32635 8.32501 6.44514V6.72241C8.32501 7.15463 8.66155 7.50502 9.07669 7.50502H12.8823C13.2974 7.50502 13.634 7.15463 13.634 6.72241V6.44514C13.634 6.32635 13.6086 6.21375 13.5631 6.1129H15.0999C15.6188 6.1129 16.0395 6.55088 16.0395 7.09116V10.3118ZM16.3016 14.989C16.4744 14.7193 16.4043 14.3549 16.1453 14.175C15.8862 13.9952 15.5362 14.0681 15.3635 14.3378L14.0544 16.3823L13.6344 15.7263C13.4617 15.4566 13.1117 15.3837 12.8526 15.5635C12.5936 15.7434 12.5236 16.1078 12.6963 16.3775L13.5854 17.766L14.0544 18.4986L14.5235 17.766L16.3016 14.989ZM14.49 19.8261C16.3581 19.8261 17.8725 18.2494 17.8725 16.3043C17.8725 14.3593 16.3581 12.7826 14.49 12.7826C12.6218 12.7826 11.1074 14.3593 11.1074 16.3043C11.1074 18.2494 12.6218 19.8261 14.49 19.8261ZM8.28866 9.65217C7.97731 9.65217 7.72491 9.91496 7.72491 10.2391C7.72491 10.5633 7.97731 10.8261 8.28866 10.8261H13.9262C14.2376 10.8261 14.49 10.5633 14.49 10.2391C14.49 9.91496 14.2376 9.65217 13.9262 9.65217H8.28866Z" fill="#2E3A59"/>
</svg>
