<svg width="24" height="24" viewBox="0 0 24 24" fill="none" xmlns="http://www.w3.org/2000/svg">
<path fill-rule="evenodd" clip-rule="evenodd" d="M17.98 11.5C17.98 14.9112 15.1533 17.6765 11.6664 17.6765C8.17957 17.6765 5.3529 14.9112 5.3529 11.5C5.3529 8.08883 8.17957 5.32353 11.6664 5.32353C15.1533 5.32353 17.98 8.08883 17.98 11.5ZM17.524 16.3388C16.1178 17.9665 14.0155 19 11.6664 19C7.43238 19 4 15.6421 4 11.5C4 7.35786 7.43238 4 11.6664 4C15.9005 4 19.3329 7.35786 19.3329 11.5C19.3329 12.8689 18.958 14.1521 18.3032 15.2568L20.6204 17C20.9261 17.2101 20.9999 17.6228 20.7852 17.9219C20.5704 18.221 20.1485 18.2932 19.8428 18.0831L17.524 16.3388ZM11.6665 8.19118C10.3108 8.19118 9.33646 9.14388 9.33646 10.1765C9.33646 10.5365 9.44887 10.8762 9.65147 11.1723L9.65513 11.1777L9.65869 11.1831L11.6665 14.245L13.6751 11.1817L13.682 11.1712C13.8842 10.8754 13.9964 10.5361 13.9964 10.1765C13.9964 9.14388 13.0221 8.19118 11.6665 8.19118ZM7.98356 10.1765C7.98356 8.2852 9.70125 6.86765 11.6665 6.86765C13.6317 6.86765 15.3493 8.2852 15.3493 10.1765C15.3493 10.8112 15.1501 11.4023 14.8106 11.9013L12.2358 15.8279L11.6665 16.6962L11.0971 15.8279L8.52331 11.9029C8.18318 11.4035 7.98356 10.8119 7.98356 10.1765ZM11.2155 10.1765C11.2155 9.93282 11.4174 9.73529 11.6664 9.73529C11.9155 9.73529 12.1174 9.93282 12.1174 10.1765C12.1174 10.4201 11.9155 10.6176 11.6664 10.6176C11.4174 10.6176 11.2155 10.4201 11.2155 10.1765ZM11.6664 8.85294C10.9192 8.85294 10.3135 9.44551 10.3135 10.1765C10.3135 10.9074 10.9192 11.5 11.6664 11.5C12.4136 11.5 13.0193 10.9074 13.0193 10.1765C13.0193 9.44551 12.4136 8.85294 11.6664 8.85294Z" fill="#2E3A59"/>
</svg>
