<svg width="24" height="24" viewBox="0 0 24 24" fill="none" xmlns="http://www.w3.org/2000/svg">
<path fill-rule="evenodd" clip-rule="evenodd" d="M7.28049 8.25373C6.708 8.25373 6.2439 8.72149 6.2439 9.29851C6.2439 9.87552 6.708 10.3433 7.28049 10.3433C7.85298 10.3433 8.31707 9.87552 8.31707 9.29851C8.31707 8.72149 7.85298 8.25373 7.28049 8.25373ZM5 9.29851C5 8.02908 6.02101 7 7.28049 7C8.53997 7 9.56098 8.02908 9.56098 9.29851C9.56098 10.5679 8.53997 11.597 7.28049 11.597C6.02101 11.597 5 10.5679 5 9.29851ZM16.3472 11.8104H12.7697C12.1672 11.3786 11.4138 11.1791 10.6872 11.1791C9.94726 11.1791 9.17947 11.3859 8.57167 11.8344L7.88604 12.3402L8.57167 12.846L11.2463 14.8193L11.4103 14.9403H11.6136L12.2309 14.9403L12.2558 14.9403H18.8902H19.5122V14.3134C19.5122 13.5471 19.0899 12.9067 18.5127 12.4809C17.9352 12.0548 17.1675 11.8104 16.3472 11.8104ZM11.8169 13.6866L10.1816 12.4801C10.3445 12.449 10.5143 12.4328 10.6872 12.4328C11.2127 12.4328 11.7103 12.5821 12.068 12.846L12.1995 12.9431L12.3635 13.0641H12.5669L16.3472 13.0641C16.9313 13.0641 17.4352 13.2397 17.778 13.4926C17.8625 13.5549 17.9351 13.6199 17.9965 13.6866H12.2564L12.2316 13.6866H11.8169ZM6.5366 18.6743H18.4756V16.9201H11.3225C10.8518 16.9201 10.395 16.7586 10.0274 16.4622L6.5366 13.9883V14.4044V15.5588V18.6743ZM5.29269 12.9853V14.4044V15.5588V19.0923C5.29269 19.5539 5.66397 19.9281 6.12196 19.9281H18.8902C19.3482 19.9281 19.7195 19.5539 19.7195 19.0923V16.5022C19.7195 16.0406 19.3482 15.6664 18.8902 15.6664H11.3225C11.1342 15.6664 10.9515 15.6018 10.8045 15.4832L6.5366 12.3827L6.39594 12.2693L5.84688 11.8344C5.73828 11.7468 5.29269 11.597 5.29269 12.1269V12.8038V12.9853Z" fill="#2E3A59"/>
<path fill-rule="evenodd" clip-rule="evenodd" d="M15.2433 3.06907C15.3231 2.97698 15.4659 2.97698 15.5457 3.06907L16.4069 4.06356C16.5191 4.19309 16.4271 4.3945 16.2558 4.3945H15.8945L15.8945 4.8945V5.89446H17.3945V5.5332C17.3945 5.36185 17.5959 5.26984 17.7254 5.38202L18.7199 6.24328C18.812 6.32303 18.812 6.46589 18.7199 6.54565L17.7254 7.4069C17.5959 7.51908 17.3945 7.42707 17.3945 7.25572V6.89446L16.8945 6.89446H15.8945V7.8945V8.3945H16.2558C16.4271 8.3945 16.5191 8.5959 16.4069 8.72543L15.5457 9.71992C15.4659 9.81201 15.3231 9.81201 15.2433 9.71992L14.3821 8.72543C14.2699 8.5959 14.3619 8.3945 14.5332 8.3945H14.8945V7.8945V6.89446H13.3945V7.25572C13.3945 7.42707 13.1931 7.51908 13.0636 7.4069L12.0691 6.54565C11.977 6.46589 11.977 6.32303 12.0691 6.24328L13.0636 5.38202C13.1931 5.26984 13.3945 5.36185 13.3945 5.5332V5.89446L13.8945 5.89446H14.8945V4.89449L14.8945 4.3945H14.5332C14.3619 4.3945 14.2699 4.19309 14.3821 4.06356L15.2433 3.06907Z" fill="#2E3A59"/>
</svg>
