<svg width="24" height="24" viewBox="0 0 24 24" fill="none" xmlns="http://www.w3.org/2000/svg">
<path fill-rule="evenodd" clip-rule="evenodd" d="M12.6853 9.65132C12.4068 10.995 11.2846 12 9.94263 12C8.3912 12 7.13353 10.6569 7.13353 9C7.13353 7.34315 8.3912 6 9.94263 6C11.3116 6 12.4518 7.04578 12.7011 8.43009H19.4282C19.744 8.43009 20 8.70347 20 9.04071C20 9.37794 19.744 9.65132 19.4282 9.65132L12.6853 9.65132ZM11.4788 8.9531C11.4788 9.85918 10.7911 10.5937 9.94264 10.5937C9.09422 10.5937 8.40644 9.85918 8.40644 8.9531C8.40644 8.04703 9.09422 7.31251 9.94264 7.31251C10.7911 7.31251 11.4788 8.04703 11.4788 8.9531ZM6.65769 8.43009H4.57176C4.25599 8.43009 4 8.70347 4 9.04071C4 9.37794 4.25599 9.65132 4.57176 9.65132H6.65769C6.60838 9.45616 6.58216 9.25155 6.58216 9.04071C6.58216 8.82986 6.60838 8.62526 6.65769 8.43009Z" fill="#2E3A59"/>
<path fill-rule="evenodd" clip-rule="evenodd" d="M11.3147 14.3487C11.5932 13.005 12.7154 12 14.0574 12C15.6088 12 16.8665 13.3431 16.8665 15C16.8665 16.6569 15.6088 18 14.0574 18C12.6884 18 11.5482 16.9542 11.2989 15.5699L4.57176 15.5699C4.25599 15.5699 4 15.2965 4 14.9593C4 14.6221 4.25599 14.3487 4.57176 14.3487L11.3147 14.3487ZM12.5212 15.0469C12.5212 14.1408 13.2089 13.4063 14.0574 13.4063C14.9058 13.4063 15.5936 14.1408 15.5936 15.0469C15.5936 15.953 14.9058 16.6875 14.0574 16.6875C13.2089 16.6875 12.5212 15.953 12.5212 15.0469ZM17.3423 15.5699L19.4282 15.5699C19.744 15.5699 20 15.2965 20 14.9593C20 14.6221 19.744 14.3487 19.4282 14.3487L17.3423 14.3487C17.3916 14.5438 17.4178 14.7484 17.4178 14.9593C17.4178 15.1701 17.3916 15.3747 17.3423 15.5699Z" fill="#2E3A59"/>
</svg>
