<svg width="36" height="36" viewBox="0 0 36 36" fill="none" xmlns="http://www.w3.org/2000/svg">
<path d="M22.6722 16.6598C22.5461 16.7854 22.3311 16.6961 22.3311 16.5181V13.7182C22.3311 13.6077 22.4206 13.5182 22.5311 13.5182H25.3467C25.5251 13.5182 25.6142 13.734 25.4878 13.8599L24.2226 15.1196C24.7775 15.6841 25.5373 16.0031 26.3311 16.0049C27.6008 16.003 28.7318 15.2063 29.1551 14.0155H29.1641C29.1736 13.9886 29.1827 13.9616 29.1915 13.9345C29.2675 13.6986 29.4748 13.5182 29.7225 13.5182C30.0288 13.5182 30.2679 13.7884 30.186 14.0835C29.7138 15.7836 28.1508 16.9995 26.3311 16.9996H26.3261C25.2654 17.0028 24.2476 16.5837 23.4996 15.8358L22.6722 16.6598ZM23.4706 12.1066C23.3939 12.3425 23.1864 12.5235 22.9384 12.5235C22.6325 12.5235 22.3936 12.2535 22.4754 11.9588C22.9472 10.2591 24.5093 9.04299 26.3286 9.04201H26.3311C27.3919 9.03864 28.4099 9.45774 29.1581 10.2058L29.9902 9.38021C30.1164 9.25498 30.3311 9.34438 30.3311 9.52218V12.3235C30.3311 12.4339 30.2415 12.5235 30.1311 12.5235H27.3159C27.1375 12.5235 27.0484 12.3074 27.1749 12.1816L28.4421 10.922C27.8865 10.3568 27.1257 10.0378 26.3311 10.0367C25.0613 10.0386 23.9303 10.8354 23.5071 12.0261H23.4981C23.4885 12.0528 23.4794 12.0797 23.4706 12.1066Z" fill="#D9667B"/>
<path fill-rule="evenodd" clip-rule="evenodd" d="M11.9423 5C11.4473 5 11.0268 5.36214 10.9533 5.85166L10.5033 8.85166C10.4526 9.19011 10.5769 9.50948 10.8035 9.72508C10.5308 10.3054 10.3783 10.9534 10.3783 11.6371C10.3783 14.1224 12.393 16.1371 14.8783 16.1371C17.3636 16.1371 19.3783 14.1224 19.3783 11.6371C19.3783 10.9276 19.2141 10.2564 18.9216 9.6595C19.1077 9.44735 19.2047 9.15728 19.1588 8.85166L18.7088 5.85166C18.6354 5.36214 18.2149 5 17.7199 5H11.9423ZM12.2075 10H17.5491C17.8417 10.4764 18.0105 11.037 18.0105 11.6371C18.0105 13.367 16.6082 14.7693 14.8783 14.7693C13.1485 14.7693 11.7461 13.367 11.7461 11.6371C11.7461 11.037 11.9149 10.4764 12.2075 10ZM8.6563 24.7975C8.44116 24.7972 8.22516 24.7481 8.02789 24.6452C7.4026 24.319 7.20217 23.575 7.58021 22.9833L10.2484 18.8075C10.6264 18.2158 11.4398 18.0006 12.0651 18.3268C12.1437 18.3679 12.2157 18.4155 12.2806 18.4687C12.3588 18.4735 12.4375 18.4866 12.5151 18.5088C13.2608 18.7213 14.0437 18.8345 14.8511 18.8345C15.7616 18.8345 16.641 18.6906 17.4708 18.4226L17.4923 18.4159C17.5548 18.3656 17.6238 18.3204 17.6989 18.2812C18.322 17.9561 19.1326 18.1706 19.5094 18.7602L22.1771 22.9354C22.5539 23.525 22.3541 24.2666 21.731 24.5917C21.5903 24.6651 21.4402 24.711 21.2876 24.7312C20.764 24.8009 20.2122 24.5693 19.9204 24.1127L19.69 23.7521L19.9656 25.2136L20.6273 28.4179C20.771 29.1134 20.3394 29.8678 19.6634 30.1028C18.9875 30.3378 18.323 29.9645 18.1794 29.2689L18.1699 29.2228C17.8689 27.7656 16.7091 26.5875 15.2086 26.5584C15.1224 26.5567 15.0355 26.5559 14.9481 26.5559C14.7985 26.5559 14.6534 26.5584 14.5131 26.5632C13.1306 26.6099 12.1144 27.716 11.837 29.0591L11.8297 29.0945C11.685 29.7952 11.0156 30.1713 10.3346 29.9346C9.65366 29.6978 9.21892 28.9379 9.36362 28.2372L10.3767 23.3318L9.84456 24.1646C9.58579 24.5696 9.12306 24.7982 8.6563 24.7975ZM8.37493 26.1599C8.03466 26.1255 7.6972 26.0283 7.38093 25.8633C6.03817 25.1628 5.59497 23.5174 6.40678 22.2469L9.07496 18.0711C9.84036 16.8732 11.446 16.4483 12.712 17.1088C12.7449 17.1259 12.7774 17.1437 12.8094 17.1621C12.8393 17.1695 12.8692 17.1774 12.899 17.1859C13.5217 17.3634 14.1755 17.458 14.8511 17.458C15.5515 17.458 16.2286 17.3563 16.8723 17.1659C16.9306 17.1295 16.9905 17.0952 17.0519 17.0632C18.3158 16.4038 19.9187 16.8279 20.6828 18.0238L23.3506 22.199C24.1611 23.4675 23.7186 25.1103 22.3779 25.8097C22.1172 25.9458 21.8419 26.0357 21.5627 26.0822L21.988 28.1419C22.2709 29.5118 21.4546 30.9388 20.1232 31.4017C18.653 31.9128 17.1311 31.0576 16.8187 29.5449L16.8092 29.4988C16.6085 28.5273 15.8942 27.9484 15.1814 27.9346C15.1041 27.9331 15.0262 27.9323 14.9481 27.9323C14.8144 27.9323 14.6851 27.9346 14.5605 27.9388C13.9899 27.9581 13.384 28.4331 13.1977 29.3351L13.1904 29.3705C12.8769 30.8884 11.3501 31.7463 9.8749 31.2334C8.5385 30.7688 7.71894 29.3363 8.00292 27.9612L8.37493 26.1599ZM14.8311 9C14.5549 9 14.3311 8.77614 14.3311 8.5V8H13.8311C13.5549 8 13.3311 7.77614 13.3311 7.5C13.3311 7.22386 13.5549 7 13.8311 7H14.3311V6.5C14.3311 6.22386 14.5549 6 14.8311 6C15.1072 6 15.3311 6.22386 15.3311 6.5V7H15.8311C16.1072 7 16.3311 7.22386 16.3311 7.5C16.3311 7.77614 16.1072 8 15.8311 8H15.3311V8.5C15.3311 8.77614 15.1072 9 14.8311 9Z" fill="#D9667B"/>
</svg>
