<svg width="36" height="36" viewBox="0 0 36 36" fill="none" xmlns="http://www.w3.org/2000/svg">
<path fill-rule="evenodd" clip-rule="evenodd" d="M8.75 5.5C8.05964 5.5 7.5 6.05964 7.5 6.75V28.75C7.5 29.4404 8.05964 30 8.75 30H17.7056C18.0768 30.5751 18.5437 31.0826 19.0838 31.5H8.75C7.23122 31.5 6 30.2688 6 28.75V6.75C6 5.23122 7.23122 4 8.75 4H17.0226C17.7601 4 18.4668 4.29628 18.9838 4.82229L24.7826 10.7219L26.7682 12.7075C26.8573 12.7967 26.9259 12.8943 26.9757 12.9966C27.3144 13.4634 27.5 14.0282 27.5 14.6118V23.0838C27.0826 22.5437 26.5751 22.0768 26 21.7056V14.6118C26 14.5743 25.9983 14.537 25.995 14.5H18.75C17.7835 14.5 17 13.7165 17 12.75V5.5H8.75ZM23.7174 11.7781L18.5 6.56066V12.75C18.5 12.8881 18.6119 13 18.75 13H24.9185L23.7174 11.7781Z" fill="#D9667B"/>
<path d="M11.5 16.75C11.0858 16.75 10.75 17.0858 10.75 17.5C10.75 17.9142 11.0858 18.25 11.5 18.25H22C22.4142 18.25 22.75 17.9142 22.75 17.5C22.75 17.0858 22.4142 16.75 22 16.75H11.5Z" fill="#D9667B"/>
<path d="M17.5527 23.75H11.5C11.0858 23.75 10.75 24.0858 10.75 24.5C10.75 24.9142 11.0858 25.25 11.5 25.25H16.939C17.076 24.7178 17.2841 24.2143 17.5527 23.75Z" fill="#D9667B"/>
<path d="M10.75 21C10.75 20.5858 11.0858 20.25 11.5 20.25H21.25C21.5949 20.25 21.8854 20.4828 21.973 20.7999C21.0423 20.9202 20.1785 21.2538 19.4322 21.75H11.5C11.0858 21.75 10.75 21.4142 10.75 21Z" fill="#D9667B"/>
<path d="M26.7094 29.291L26.9618 28.8216C27.3528 28.094 27.5568 27.2815 27.5555 26.4565L27.5555 26.4543C27.5555 23.6769 25.2922 21.4255 22.5 21.4255C19.7078 21.4255 17.4444 23.6769 17.4444 26.4543C17.4444 29.2318 19.7078 31.4831 22.5 31.4831H22.5022C23.3316 31.4844 24.1484 31.2815 24.8798 30.8925L25.3518 30.6415L27.0974 31.0274L26.7094 29.291ZM28.8972 32.4598C28.9451 32.6741 28.754 32.8655 28.5396 32.8181L25.5608 32.1596C24.6192 32.6603 23.5677 32.9215 22.5 32.9199C18.91 32.9199 16 30.0253 16 26.4543C16 22.8834 18.91 19.9888 22.5 19.9888C26.0899 19.9888 29 22.8834 29 26.4543C29.0016 27.5164 28.739 28.5624 28.2356 29.499L28.8972 32.4598Z" fill="#D9667B"/>
<path d="M20.5 26.75C20.5 27.1642 20.1642 27.5 19.75 27.5C19.3358 27.5 19 27.1642 19 26.75C19 26.3358 19.3358 26 19.75 26C20.1642 26 20.5 26.3358 20.5 26.75Z" fill="#D9667B"/>
<path d="M23 26.75C23 27.1642 22.6642 27.5 22.25 27.5C21.8358 27.5 21.5 27.1642 21.5 26.75C21.5 26.3358 21.8358 26 22.25 26C22.6642 26 23 26.3358 23 26.75Z" fill="#D9667B"/>
<path d="M25.5 26.75C25.5 27.1642 25.1642 27.5 24.75 27.5C24.3358 27.5 24 27.1642 24 26.75C24 26.3358 24.3358 26 24.75 26C25.1642 26 25.5 26.3358 25.5 26.75Z" fill="#D9667B"/>
</svg>
