<svg width="36" height="36" viewBox="0 0 36 36" fill="none" xmlns="http://www.w3.org/2000/svg">
<path d="M24.2856 22.9675C24.1723 22.7574 23.8709 22.7574 23.7576 22.9675L23.1113 24.1651L21.8007 24.4472C21.5775 24.4953 21.4876 24.7651 21.6374 24.9374L22.5488 25.9856L22.3994 27.3787C22.3744 27.6122 22.6152 27.7826 22.827 27.6814L24.0216 27.1108L25.2162 27.6814C25.428 27.7826 25.6688 27.6122 25.6438 27.3787L25.4944 25.9856L26.4058 24.9374C26.5556 24.7651 26.4657 24.4953 26.2425 24.4472L24.9318 24.1651L24.2856 22.9675Z" fill="#D9667B"/>
<path fill-rule="evenodd" clip-rule="evenodd" d="M10.022 7.26091V4.75C10.022 4.33579 10.3578 4 10.772 4C11.1862 4 11.522 4.33579 11.522 4.75V7.26091H19.8042V4.75C19.8042 4.33579 20.14 4 20.5542 4C20.9684 4 21.3042 4.33579 21.3042 4.75V7.26091H24.7391C25.8437 7.26091 26.7391 8.15634 26.7391 9.26091V19.8691C28.6748 20.8586 30 22.8723 30 25.1955C30 28.4972 27.3234 31.1737 24.0217 31.1737C20.72 31.1737 18.0435 28.4972 18.0435 25.1955C18.0435 21.8938 20.72 19.2172 24.0217 19.2172C24.4389 19.2172 24.8461 19.2599 25.2391 19.3413V13.7826H6.5V27C6.5 27.2762 6.72386 27.5 7 27.5H18.5038C18.7319 28.0458 19.0387 28.5505 19.41 29H7C5.89543 29 5 28.1046 5 27V9.26091C5 8.15634 5.89543 7.26091 7 7.26091H10.022ZM7 8.76091H24.7391C25.0153 8.76091 25.2391 8.98477 25.2391 9.26091V12.2826H6.5V9.26091C6.5 8.98477 6.72386 8.76091 7 8.76091ZM24.0217 29.6737C26.495 29.6737 28.5 27.6687 28.5 25.1955C28.5 22.7222 26.495 20.7172 24.0217 20.7172C21.5484 20.7172 19.5435 22.7222 19.5435 25.1955C19.5435 27.6687 21.5484 29.6737 24.0217 29.6737Z" fill="#D9667B"/>
<path d="M11.5215 19.2173C12.1218 19.2173 12.6085 18.7306 12.6085 18.1303C12.6085 17.53 12.1218 17.0434 11.5215 17.0434C10.9212 17.0434 10.4346 17.53 10.4346 18.1303C10.4346 18.7306 10.9212 19.2173 11.5215 19.2173Z" fill="#D9667B"/>
<path d="M12.6085 22.4782C12.6085 23.0785 12.1218 23.5652 11.5215 23.5652C10.9212 23.5652 10.4346 23.0785 10.4346 22.4782C10.4346 21.8779 10.9212 21.3913 11.5215 21.3913C12.1218 21.3913 12.6085 21.8779 12.6085 22.4782Z" fill="#D9667B"/>
<path d="M15.8697 19.2173C16.47 19.2173 16.9566 18.7306 16.9566 18.1303C16.9566 17.53 16.47 17.0434 15.8697 17.0434C15.2694 17.0434 14.7827 17.53 14.7827 18.1303C14.7827 18.7306 15.2694 19.2173 15.8697 19.2173Z" fill="#D9667B"/>
<path d="M16.9566 22.4782C16.9566 23.0785 16.47 23.5652 15.8697 23.5652C15.2694 23.5652 14.7827 23.0785 14.7827 22.4782C14.7827 21.8779 15.2694 21.3913 15.8697 21.3913C16.47 21.3913 16.9566 21.8779 16.9566 22.4782Z" fill="#D9667B"/>
<path d="M20.2173 19.2173C20.8176 19.2173 21.3043 18.7306 21.3043 18.1303C21.3043 17.53 20.8176 17.0434 20.2173 17.0434C19.617 17.0434 19.1304 17.53 19.1304 18.1303C19.1304 18.7306 19.617 19.2173 20.2173 19.2173Z" fill="#D9667B"/>
</svg>
