<svg width="36" height="36" viewBox="0 0 36 36" fill="none" xmlns="http://www.w3.org/2000/svg">
<path d="M18.3962 14.9151C18.3493 14.6992 18.1363 14.5622 17.9204 14.6091C17.7045 14.656 17.5675 14.869 17.6144 15.0849L17.8367 16.1083L16.9357 16.417L17.3091 18.1362C17.356 18.3521 17.569 18.4891 17.7849 18.4422C18.0008 18.3953 18.1377 18.1823 18.0909 17.9664L17.8686 16.943L18.7696 16.6343L18.3962 14.9151Z" fill="#D9667B"/>
<path d="M21.2979 16.0538C21.3275 15.8348 21.1742 15.6333 20.9552 15.6036C20.7363 15.5739 20.5348 15.7273 20.5051 15.9462L20.3644 16.984L19.4121 16.9662L19.1756 18.7096C19.1459 18.9285 19.2993 19.13 19.5182 19.1597C19.7372 19.1894 19.9387 19.036 19.9684 18.8171L20.1091 17.7794L21.0614 17.7971L21.2979 16.0538Z" fill="#D9667B"/>
<path d="M15.3073 15.7439C15.1659 15.5742 14.9136 15.5513 14.7439 15.6927C14.5742 15.8341 14.5513 16.0864 14.6927 16.2561L15.3937 17.0973L14.3937 17.6973L15.6927 19.2561C15.8341 19.4258 16.0864 19.4487 16.2561 19.3073C16.4258 19.1659 16.4487 18.9136 16.3073 18.7439L15.6063 17.9027L16.6063 17.3027L15.3073 15.7439Z" fill="#D9667B"/>
<path fill-rule="evenodd" clip-rule="evenodd" d="M15.1073 6.79785H9.75C8.23122 6.79785 7 8.02907 7 9.54785V30.3217C7 31.8405 8.23122 33.0717 9.75 33.0717H26.4446C27.9634 33.0717 29.1946 31.8405 29.1946 30.3217V9.54785C29.1946 8.02907 27.9634 6.79785 26.4446 6.79785H20.8927C20.9627 6.5438 21 6.27626 21 6C21 4.34315 19.6569 3 18 3C16.3431 3 15 4.34315 15 6C15 6.27626 15.0373 6.5438 15.1073 6.79785ZM19.5 6C19.5 6.82843 18.8284 7.5 18 7.5C17.1716 7.5 16.5 6.82843 16.5 6C16.5 5.17157 17.1716 4.5 18 4.5C18.8284 4.5 19.5 5.17157 19.5 6ZM22.7473 8.29785C22.8309 8.44397 22.8787 8.6132 22.8787 8.79358V10.111C22.8787 10.6633 22.431 11.111 21.8787 11.111H13.9264C13.3742 11.111 12.9264 10.6633 12.9264 10.111V8.79358C12.9264 8.6132 12.9742 8.44397 13.0578 8.29785H9.75C9.05965 8.29785 8.5 8.8575 8.5 9.54785V30.3217C8.5 31.0121 9.05964 31.5717 9.75 31.5717H12.5169L12.7566 31.0443C12.8694 30.7961 12.7879 30.3844 12.5138 30.0241C11.9392 29.2687 11.3912 28.0578 11.3911 26.7264C11.3911 25.8407 11.7176 24.827 12.2255 24.1171C12.4801 23.7613 12.8092 23.4414 13.2091 23.2762C13.5594 23.1314 13.9406 23.1167 14.3137 23.2662C14.5301 21.4269 16.0943 20 17.9918 20C19.147 20 20.1787 20.5289 20.858 21.3578C20.9631 21.3037 21.0771 21.2594 21.1996 21.2262C21.6958 21.0918 22.2925 21.1496 22.9634 21.418C24.3718 21.9813 25.1791 23.4768 25.4024 25.0415C25.6276 26.6202 25.2867 28.4175 24.2299 29.7408C24.1637 29.8236 24.1374 29.8828 24.1295 29.9218C23.9937 30.5902 24.2073 31.1109 24.4684 31.4814C24.4905 31.5127 24.5128 31.5428 24.5352 31.5717H26.4446C27.135 31.5717 27.6946 31.0121 27.6946 30.3217V9.54785C27.6946 8.8575 27.135 8.29785 26.4446 8.29785H22.7473ZM13.6153 31.5717H23.3675C23.1375 31.0832 22.9998 30.4595 23.1495 29.7227C23.2009 29.4699 23.3288 29.2666 23.4485 29.1167C24.3011 28.0491 24.6066 26.5441 24.4124 25.1827C24.2162 23.8072 23.5381 22.7249 22.592 22.3465C22.0567 22.1323 21.6885 22.1298 21.461 22.1914C21.2421 22.2507 21.122 22.3757 21.0634 22.5075C20.9392 22.7871 21.0515 23.1922 21.4884 23.3378C22.4988 23.6746 23.0365 24.8281 23.0365 25.9495C23.0365 27.1204 22.4727 28.4187 21.105 29.2393C18.7709 30.6398 16.1458 29.7644 15.1326 29.2578C14.5565 28.9698 14.0952 28.5073 13.8021 27.9981C13.5129 27.4954 13.3604 26.8966 13.4881 26.3403C13.5416 26.1074 13.6775 25.7724 13.7876 25.5164C13.9039 25.2464 14.0151 25.0113 14.0402 24.9585L14.0416 24.9556C14.0578 24.917 14.1281 24.7366 14.1401 24.5471C14.1522 24.355 14.1039 24.2824 14.0349 24.2411C13.8683 24.1413 13.7315 24.1423 13.5909 24.2004C13.4259 24.2686 13.2313 24.4299 13.0388 24.699C12.6526 25.2387 12.3911 26.0488 12.3911 26.7263C12.3911 27.7992 12.8412 28.8027 13.3097 29.4187C13.6869 29.9146 13.9993 30.727 13.667 31.4581L13.6153 31.5717ZM14.8296 25.633C14.7924 25.7149 14.7496 25.8109 14.7062 25.9118C14.5911 26.1792 14.4928 26.4333 14.4628 26.564C14.4079 26.803 14.4633 27.1421 14.6689 27.4993C14.8706 27.8499 15.1909 28.1689 15.5798 28.3634C16.4964 28.8217 18.7055 29.5129 20.5905 28.3819C21.6352 27.755 22.0365 26.7954 22.0365 25.9495C22.0365 25.3526 21.8465 24.8771 21.5904 24.5834C21.1956 26.2042 19.7342 27.4074 17.9918 27.4074C16.6531 27.4074 15.4803 26.6972 14.8296 25.633ZM20.9745 23.5849C20.8496 23.509 20.7471 23.4148 20.6669 23.3092C20.6857 23.438 20.6955 23.5697 20.6955 23.7037C20.6955 25.1969 19.485 26.4074 17.9918 26.4074C16.4986 26.4074 15.2881 25.1969 15.2881 23.7037C15.2881 22.2105 16.4986 21 17.9918 21C19.0866 21 20.0295 21.6508 20.4546 22.5866C20.4613 22.5044 20.4777 22.4232 20.5039 22.3449C20.7463 22.7101 20.9111 23.1313 20.9745 23.5849Z" fill="#D9667B"/>
</svg>
