<svg width="36" height="36" viewBox="0 0 36 36" fill="none" xmlns="http://www.w3.org/2000/svg">
<path d="M10.5776 15.983C10.5776 15.5688 10.9134 15.233 11.3276 15.233H21.8276C22.2418 15.233 22.5776 15.5688 22.5776 15.983C22.5776 16.3973 22.2418 16.733 21.8276 16.733H11.3276C10.9134 16.733 10.5776 16.3973 10.5776 15.983Z" fill="#D9667B"/>
<path d="M10.5776 19.483C10.5776 19.0688 10.9134 18.733 11.3276 18.733H21.8276C22.2418 18.733 22.5776 19.0688 22.5776 19.483C22.5776 19.8973 22.2418 20.233 21.8276 20.233H11.3276C10.9134 20.233 10.5776 19.8973 10.5776 19.483Z" fill="#D9667B"/>
<path d="M24.2744 23.8523C24.161 23.6423 23.8597 23.6423 23.7463 23.8523L23.1001 25.05L21.7894 25.3321C21.5663 25.3801 21.4764 25.6499 21.6262 25.8222L22.5375 26.8705L22.3882 28.2635C22.3632 28.497 22.6039 28.6674 22.8158 28.5662L24.0104 27.9956L25.2049 28.5662C25.4168 28.6674 25.6576 28.497 25.6325 28.2635L25.4832 26.8705L26.3946 25.8222C26.5443 25.6499 26.4545 25.3801 26.2313 25.3321L24.9206 25.05L24.2744 23.8523Z" fill="#D9667B"/>
<path fill-rule="evenodd" clip-rule="evenodd" d="M18.5051 3.82229L24.0289 9.44216L25.9066 11.3198C25.994 11.4073 26.0617 11.5029 26.1112 11.6031C26.4518 12.0706 26.6384 12.6369 26.6384 13.2222V20.7091C28.6226 21.6817 29.9887 23.7215 29.9887 26.0803C29.9887 29.382 27.3122 32.0586 24.0105 32.0586C21.9284 32.0586 20.0949 30.9942 19.0245 29.3799H8.75C7.23122 29.3799 6 28.1487 6 26.6299V5.75C6 4.23122 7.23122 3 8.75 3H16.5439C17.2815 3 17.9881 3.29628 18.5051 3.82229ZM7.5 5.75C7.5 5.05964 8.05964 4.5 8.75 4.5H16.5261V11.3623C16.5261 12.3288 17.3096 13.1123 18.2761 13.1123H25.1335C25.1368 13.1487 25.1384 13.1854 25.1384 13.2222V20.2083C24.7731 20.1386 24.3961 20.1021 24.0105 20.1021C20.7088 20.1021 18.0322 22.7786 18.0322 26.0803C18.0322 26.7074 18.1288 27.312 18.3078 27.8799H8.75C8.05965 27.8799 7.5 27.3203 7.5 26.6299V5.75ZM18.0261 5.56066L22.9636 10.4981L24.0587 11.6123H18.2761C18.138 11.6123 18.0261 11.5003 18.0261 11.3623V5.56066ZM28.4887 26.0803C28.4887 28.5536 26.4838 30.5586 24.0105 30.5586C21.5372 30.5586 19.5322 28.5536 19.5322 26.0803C19.5322 23.607 21.5372 21.6021 24.0105 21.6021C26.4838 21.6021 28.4887 23.607 28.4887 26.0803Z" fill="#D9667B"/>
<path d="M19.7695 21.8669H11.3276C10.9134 21.8669 10.5776 22.2026 10.5776 22.6169C10.5776 23.0311 10.9134 23.3669 11.3276 23.3669H18.6821C18.9658 22.8109 19.3339 22.3053 19.7695 21.8669Z" fill="#D9667B"/>
</svg>
