<svg width="36" height="36" viewBox="0 0 36 36" fill="none" xmlns="http://www.w3.org/2000/svg">
<path d="M16.5 16C16.5 15.4477 16.9477 15 17.5 15H18.5C19.0523 15 19.5 15.4477 19.5 16V27C19.5 27.5523 19.0523 28 18.5 28H17.5C16.9477 28 16.5 27.5523 16.5 27V16Z" fill="#D9667B"/>
<path d="M11.5 21C11.5 20.4477 11.9477 20 12.5 20H13.5C14.0523 20 14.5 20.4477 14.5 21V27C14.5 27.5523 14.0523 28 13.5 28H12.5C11.9477 28 11.5 27.5523 11.5 27V21Z" fill="#D9667B"/>
<path d="M22.5 18C21.9477 18 21.5 18.4477 21.5 19V27C21.5 27.5523 21.9477 28 22.5 28H23.5C24.0523 28 24.5 27.5523 24.5 27V19C24.5 18.4477 24.0523 18 23.5 18H22.5Z" fill="#D9667B"/>
<path fill-rule="evenodd" clip-rule="evenodd" d="M9.75 6.79785H15.1073C15.0373 6.5438 15 6.27626 15 6C15 4.34315 16.3431 3 18 3C19.6569 3 21 4.34315 21 6C21 6.27626 20.9627 6.5438 20.8927 6.79785H26.4446C27.9634 6.79785 29.1946 8.02907 29.1946 9.54785V30.3217C29.1946 31.8405 27.9634 33.0717 26.4446 33.0717H9.75C8.23122 33.0717 7 31.8405 7 30.3217V9.54785C7 8.02907 8.23122 6.79785 9.75 6.79785ZM18 7.5C18.8284 7.5 19.5 6.82843 19.5 6C19.5 5.17157 18.8284 4.5 18 4.5C17.1716 4.5 16.5 5.17157 16.5 6C16.5 6.82843 17.1716 7.5 18 7.5ZM22.8787 8.79358C22.8787 8.6132 22.8309 8.44397 22.7473 8.29785H26.4446C27.135 8.29785 27.6946 8.8575 27.6946 9.54785V30.3217C27.6946 31.0121 27.135 31.5717 26.4446 31.5717H9.75C9.05964 31.5717 8.5 31.0121 8.5 30.3217V9.54785C8.5 8.8575 9.05965 8.29785 9.75 8.29785H13.0578C12.9742 8.44397 12.9264 8.6132 12.9264 8.79358V10.111C12.9264 10.6633 13.3742 11.111 13.9264 11.111H21.8787C22.431 11.111 22.8787 10.6633 22.8787 10.111V8.79358Z" fill="#D9667B"/>
</svg>
