<svg width="36" height="36" viewBox="0 0 36 36" fill="none" xmlns="http://www.w3.org/2000/svg">
<path fill-rule="evenodd" clip-rule="evenodd" d="M15.1073 6.79785H9.75C8.23122 6.79785 7 8.02907 7 9.54785V30.3217C7 31.8405 8.23122 33.0717 9.75 33.0717H26.4446C27.9634 33.0717 29.1946 31.8405 29.1946 30.3217V9.54785C29.1946 8.02907 27.9634 6.79785 26.4446 6.79785H20.8927C20.9627 6.5438 21 6.27626 21 6C21 4.34315 19.6569 3 18 3C16.3431 3 15 4.34315 15 6C15 6.27626 15.0373 6.5438 15.1073 6.79785ZM19.5 6C19.5 6.82843 18.8284 7.5 18 7.5C17.1716 7.5 16.5 6.82843 16.5 6C16.5 5.17157 17.1716 4.5 18 4.5C18.8284 4.5 19.5 5.17157 19.5 6ZM22.7473 8.29785C22.8309 8.44397 22.8787 8.6132 22.8787 8.79358V10.111C22.8787 10.6633 22.431 11.111 21.8787 11.111H13.9264C13.3742 11.111 12.9264 10.6633 12.9264 10.111V8.79358C12.9264 8.6132 12.9742 8.44397 13.0578 8.29785H9.75C9.05965 8.29785 8.5 8.8575 8.5 9.54785V30.3217C8.5 31.0121 9.05964 31.5717 9.75 31.5717H26.4446C27.135 31.5717 27.6946 31.0121 27.6946 30.3217V9.54785C27.6946 8.8575 27.135 8.29785 26.4446 8.29785H22.7473Z" fill="#D9667B"/>
<path d="M18.0075 24.9624C17.4547 24.9597 17.0065 24.5167 17.001 23.9677H19.004C19.0052 24.1007 18.9799 24.2325 18.9294 24.3556C18.798 24.655 18.5297 24.8734 18.2083 24.9425H18.1853C18.1268 24.9546 18.0673 24.9612 18.0075 24.9624ZM22.0135 22.8563C22.0135 23.1954 21.7386 23.4704 21.3995 23.4704H14.6156C14.2764 23.4704 14.0015 23.1954 14.0015 22.8563C14.0015 22.6231 14.1336 22.4101 14.3424 22.3063L15.003 21.9783V19.2429C14.9766 18.5411 15.1362 17.8449 15.4657 17.2236C15.7937 16.6474 16.3544 16.2383 17.006 16.0996V16.0169C17.006 15.4637 17.4544 15.0154 18.0075 15.0154C18.5606 15.0154 19.009 15.4637 19.009 16.0169V16.0996C20.3005 16.405 21.012 17.521 21.012 19.2429V21.9783L21.6726 22.3063C21.8814 22.4101 22.0135 22.6231 22.0135 22.8563ZM22.9527 18.4754C22.9914 18.7566 22.7628 18.9942 22.4789 18.9942C22.2108 18.9942 21.9939 18.7812 21.9543 18.5161C21.8175 17.6005 21.3874 16.7531 20.7295 16.0996C20.516 15.8876 20.4902 15.5373 20.7029 15.3245C20.8796 15.1478 21.1622 15.1279 21.3457 15.2976C21.7921 15.7103 22.1589 16.2021 22.4266 16.7491C22.6931 17.2943 22.8703 17.8771 22.9527 18.4754ZM14.0457 18.5161C14.0061 18.7812 13.7892 18.9942 13.5211 18.9942C13.2372 18.9942 13.0086 18.7567 13.0473 18.4754C13.1296 17.8771 13.3069 17.2943 13.5734 16.7491C13.8411 16.2021 14.2079 15.7103 14.6543 15.2976C14.8378 15.1279 15.1204 15.1477 15.2971 15.3245C15.5098 15.5372 15.4839 15.8876 15.2705 16.0996C14.6125 16.753 14.1824 17.6005 14.0457 18.5161Z" fill="#D9667B"/>
</svg>
