<svg width="36" height="36" viewBox="0 0 36 36" fill="none" xmlns="http://www.w3.org/2000/svg">
<path fill-rule="evenodd" clip-rule="evenodd" d="M24.801 8.59629C24.801 10.5825 23.1909 12.1926 21.2047 12.1926C19.2185 12.1926 17.6084 10.5825 17.6084 8.59629C17.6084 6.61011 19.2185 5 21.2047 5C23.1909 5 24.801 6.61011 24.801 8.59629ZM23.501 8.59629C23.501 9.86449 22.4729 10.8926 21.2047 10.8926C19.9365 10.8926 18.9084 9.86449 18.9084 8.59629C18.9084 7.32808 19.9365 6.3 21.2047 6.3C22.4729 6.3 23.501 7.32808 23.501 8.59629Z" fill="#D9667B"/>
<path d="M14.3403 11.8562C14.3403 13.4382 13.0578 14.7206 11.4758 14.7206C9.8938 14.7206 8.61133 13.4382 8.61133 11.8562C8.61133 10.2742 9.8938 8.9917 11.4758 8.9917C13.0578 8.9917 14.3403 10.2742 14.3403 11.8562Z" fill="#D9667B"/>
<path fill-rule="evenodd" clip-rule="evenodd" d="M24.019 13.0132L24.019 13.004L23.9401 13.0043C23.9194 13.0025 23.8979 13.001 23.8771 13L23.8703 13.0045L23.8564 13.0138C23.6181 13.1714 23.3676 13.3087 23.1068 13.4233C22.5101 13.6858 21.8596 13.83 21.1788 13.83C20.2193 13.83 19.3199 13.5434 18.5463 13.0432C18.0083 13.0954 17.4963 13.4147 17.1929 13.9472L15.2203 17.4084C15.1128 17.597 15.04 17.797 15 18H13.2677L14.7293 15.6918C14.5088 15.5283 14.2483 15.4258 13.9781 15.3923L13.9781 15.3851L13.9097 15.3854C13.891 15.3838 13.8723 15.3827 13.8535 15.3818C13.159 15.7997 12.3457 16.0401 11.4762 16.0401C10.6307 16.0401 9.83828 15.8128 9.15671 15.4161C8.68286 15.4575 8.23194 15.7107 7.96468 16.1328L6.78223 18.0001H6.98066C5.885 18.0105 5 18.9019 5 20V29C5 30.1046 5.89543 31 7 31H28C29.1046 31 30 30.1046 30 29V20C30 18.8954 29.1046 18 28 18H27.5044C27.4664 17.7834 27.3914 17.5694 27.2769 17.3685L25.3046 13.9078C25.014 13.398 24.5319 13.0838 24.019 13.0132ZM26.4726 18C26.4551 17.9541 26.4337 17.9086 26.408 17.8636L24.4358 14.403C24.3386 14.2325 24.2056 14.1198 24.0673 14.0576C23.207 14.5488 22.2241 14.83 21.1788 14.83C20.1749 14.83 19.2282 14.5705 18.3925 14.1146C18.2678 14.1799 18.15 14.2873 18.0617 14.4423L16.0891 17.9035C16.0709 17.9354 16.0548 17.9676 16.0408 18H26.4726ZM28 19.5H7C6.72386 19.5 6.5 19.7239 6.5 20V27H28.5V20C28.5 19.7239 28.2761 19.5 28 19.5Z" fill="#D9667B"/>
</svg>
