<svg width="36" height="36" viewBox="0 0 36 36" fill="none" xmlns="http://www.w3.org/2000/svg">
<path d="M12.75 17C12.3358 17 12 17.3358 12 17.75C12 18.1642 12.3358 18.5 12.75 18.5H23.25C23.6642 18.5 24 18.1642 24 17.75C24 17.3358 23.6642 17 23.25 17H12.75Z" fill="#D9667B"/>
<path fill-rule="evenodd" clip-rule="evenodd" d="M26.0326 10.972L20.2338 5.07229C19.7168 4.54628 19.0101 4.25 18.2726 4.25H10C8.48122 4.25 7.25 5.48122 7.25 7V29C7.25 30.5188 8.48122 31.75 10 31.75H26C27.5188 31.75 28.75 30.5188 28.75 29V14.8618C28.75 14.2782 28.5644 13.7134 28.2257 13.2466C28.1759 13.1443 28.1073 13.0467 28.0182 12.9575L26.0326 10.972ZM10 5.75C9.30964 5.75 8.75 6.30964 8.75 7V29C8.75 29.6904 9.30964 30.25 10 30.25H26C26.0782 30.25 26.1548 30.2428 26.2291 30.2291L24.1427 28.1427C23.4006 28.6819 22.4875 29 21.5 29C19.3584 29 17.5662 27.504 17.1115 25.5H12.75C12.3358 25.5 12 25.1642 12 24.75C12 24.3358 12.3358 24 12.75 24H17.0275C17.1087 23.2656 17.3666 22.5844 17.7578 22H12.75C12.3358 22 12 21.6642 12 21.25C12 20.8358 12.3358 20.5 12.75 20.5H19.4364C20.0545 20.1805 20.7562 20 21.5 20C23.9853 20 26 22.0147 26 24.5C26 25.4563 25.7017 26.3429 25.1931 27.0718L27.2441 29.1227C27.248 29.0824 27.25 29.0414 27.25 29V14.8618C27.25 14.8243 27.2483 14.787 27.245 14.75H20C19.0335 14.75 18.25 13.9665 18.25 13V5.75H10ZM19.75 6.81066V13C19.75 13.1381 19.8619 13.25 20 13.25H26.1685L24.9675 12.0281L19.75 6.81066ZM24.5 24.5C24.5 26.1569 23.1569 27.5 21.5 27.5C19.8431 27.5 18.5 26.1569 18.5 24.5C18.5 22.8431 19.8431 21.5 21.5 21.5C23.1569 21.5 24.5 22.8431 24.5 24.5Z" fill="#D9667B"/>
</svg>
