<svg width="36" height="36" viewBox="0 0 36 36" fill="none" xmlns="http://www.w3.org/2000/svg">
<path fill-rule="evenodd" clip-rule="evenodd" d="M9.95 10.7152C9.95 9.84085 10.8343 9.69983 11 9.69983H18.05V14.0998C18.05 14.689 18.5 15.3409 19.4 15.3409H24.05V21.9973H9.95V10.7152ZM25.1 19.7409V16.0594C25.1 15.5482 24.8891 15.057 24.5117 14.689L24.2 14.3851V14.3819H24.1967L19.0304 9.34474C18.6346 8.95884 18.0889 8.74085 17.5187 8.74085H11C9.8402 8.74085 8.9 9.6248 8.9 10.7152V19.7409H7.06491C6.54839 19.7409 6.08983 20.0516 5.92649 20.5123L5.06158 22.9518C5.02079 23.0668 5 23.1873 5 23.3085V26.5101C5 27.1332 5.53726 27.6383 6.2 27.6383H8.9V28.7665C8.9 29.8569 9.8402 30.7409 11 30.7409H23C24.1598 30.7409 25.1 29.8569 25.1 28.7665V27.6383H27.8C28.4627 27.6383 29 27.1332 29 26.5101V23.3085C29 23.1873 28.9792 23.0668 28.9384 22.9518L28.0735 20.5123C27.9102 20.0516 27.4516 19.7409 26.9351 19.7409H25.1ZM25.4 24.2537C25.4 23.6306 25.9373 23.1255 26.6 23.1255C27.2627 23.1255 27.8 23.6306 27.8 24.2537C27.8 24.8768 27.2627 25.3819 26.6 25.3819C25.9373 25.3819 25.4 24.8768 25.4 24.2537ZM11 29.7819C10.8343 29.7819 9.95 29.6409 9.95 28.7665V26.5101H24.05V28.7665C24.05 28.9223 23.75 29.7819 23 29.7819H11ZM22.4462 14.3819H19.4C19.2343 14.3819 19.1 14.2556 19.1 14.0998V11.1173L22.4462 14.3819Z" fill="#D9667B"/>
<path d="M16.4725 7.5C16.4725 6.67157 17.144 6 17.9725 6H23.2322C23.6119 6 23.9753 6.15438 24.239 6.42768L29.5714 11.9553C29.8412 12.2349 29.9919 12.6083 29.9919 12.9967V22.7317C29.9919 23.3818 29.5783 23.9353 28.9999 24.1435V25.1801C30.137 24.9453 30.9919 23.9384 30.9919 22.7317V12.9967C30.9919 12.3493 30.7407 11.727 30.2911 11.261L24.9587 5.73339C24.5066 5.26473 23.8834 5 23.2322 5H17.9725C16.5918 5 15.4725 6.11928 15.4725 7.5V8.74084H16.4725V7.5Z" fill="#D9667B"/>
</svg>
