<svg width="36" height="36" viewBox="0 0 36 36" fill="none" xmlns="http://www.w3.org/2000/svg">
<mask id="path-1-outside-1_2010_495" maskUnits="userSpaceOnUse" x="6" y="2" width="24" height="32" fill="black">
<rect fill="white" x="6" y="2" width="24" height="32"/>
<path fill-rule="evenodd" clip-rule="evenodd" d="M15.1073 6.79785H9.75C8.23122 6.79785 7 8.02907 7 9.54785V30.3217C7 31.8405 8.23122 33.0717 9.75 33.0717H26.4446C27.9634 33.0717 29.1946 31.8405 29.1946 30.3217V9.54785C29.1946 8.02907 27.9634 6.79785 26.4446 6.79785H20.8927C20.9627 6.5438 21 6.27626 21 6C21 4.34315 19.6569 3 18 3C16.3431 3 15 4.34315 15 6C15 6.27626 15.0373 6.5438 15.1073 6.79785ZM19.5 6C19.5 6.82843 18.8284 7.5 18 7.5C17.1716 7.5 16.5 6.82843 16.5 6C16.5 5.17157 17.1716 4.5 18 4.5C18.8284 4.5 19.5 5.17157 19.5 6ZM22.7473 8.29785C22.8309 8.44397 22.8787 8.6132 22.8787 8.79358V10.111C22.8787 10.6633 22.431 11.111 21.8787 11.111H13.9264C13.3742 11.111 12.9264 10.6633 12.9264 10.111V8.79358C12.9264 8.6132 12.9742 8.44397 13.0578 8.29785H9.75C9.05965 8.29785 8.5 8.8575 8.5 9.54785V30.3217C8.5 31.0121 9.05964 31.5717 9.75 31.5717H26.4446C27.135 31.5717 27.6946 31.0121 27.6946 30.3217V9.54785C27.6946 8.8575 27.135 8.29785 26.4446 8.29785H22.7473Z"/>
<path d="M15.8958 19.7553C15.8958 20.8525 15.0063 21.742 13.9091 21.742C12.8118 21.742 11.9224 20.8525 11.9224 19.7553C11.9224 18.658 12.8118 17.7686 13.9091 17.7686C15.0063 17.7686 15.8958 18.658 15.8958 19.7553Z"/>
<path fill-rule="evenodd" clip-rule="evenodd" d="M23.151 17.4943C23.151 18.8718 22.0342 19.9886 20.6567 19.9886C19.2791 19.9886 18.1624 18.8718 18.1624 17.4943C18.1624 16.1167 19.2791 15 20.6567 15C22.0342 15 23.151 16.1167 23.151 17.4943ZM22.151 17.4943C22.151 18.3196 21.4819 18.9886 20.6567 18.9886C19.8314 18.9886 19.1624 18.3196 19.1624 17.4943C19.1624 16.669 19.8314 16 20.6567 16C21.4819 16 22.151 16.669 22.151 17.4943Z"/>
<path fill-rule="evenodd" clip-rule="evenodd" d="M15.6446 22.2078C15.7684 22.2231 15.8893 22.2594 16.0012 22.3149L15.7542 22.705L15.1574 23.6475C14.8007 24.2108 14.9496 25.3683 15.5396 25.6788C15.744 25.7864 15.9687 25.8295 16.1882 25.8149L16.2007 25.8836L16.2201 25.9803L16.0179 26.9901C15.9147 27.5053 16.1574 28.0426 16.5883 28.3232C16.4833 28.4191 16.3598 28.4957 16.2222 28.545C15.6605 28.7464 15.0825 28.4197 14.9654 27.8347C14.8605 27.3108 14.4701 26.9599 14.0389 26.9554L13.9837 26.9551C13.9385 26.9551 13.8943 26.9557 13.8512 26.9568C13.4831 26.9664 13.1488 27.2714 13.0519 27.7553C12.9342 28.3426 12.3541 28.6705 11.7902 28.4684C11.2757 28.2839 10.9574 27.7208 11.0648 27.1848L11.2728 26.146C11.0616 26.1713 10.842 26.1359 10.6442 26.0317C10.1254 25.7586 9.95492 25.12 10.2686 24.6246L11.4738 22.7213C11.6592 22.4286 11.9719 22.253 12.3006 22.2242C12.7733 22.4994 13.3229 22.657 13.9093 22.657C14.5123 22.657 15.0765 22.4903 15.5581 22.2005C15.5711 22.2011 15.5841 22.2019 15.5971 22.2029L15.6445 22.2027L15.6446 22.2078Z"/>
<path d="M16.2007 25.8836L16.1882 25.8149C16.2103 25.8135 16.2325 25.8114 16.2545 25.8088L16.2201 25.9803L16.2007 25.8836Z"/>
<path fill-rule="evenodd" clip-rule="evenodd" d="M17.2634 24.8429C17.1405 24.8428 17.0171 24.8148 16.9044 24.756C16.5473 24.5696 16.4328 24.1446 16.6487 23.8067L18.1728 21.4214C18.3887 21.0835 18.8533 20.9605 19.2105 21.1469C19.2554 21.1703 19.2965 21.1975 19.3336 21.2279C19.3783 21.2306 19.4232 21.2382 19.4675 21.2508C19.8935 21.3722 20.3407 21.4369 20.8019 21.4369C21.322 21.4369 21.8242 21.3546 22.2983 21.2016L22.3105 21.1977C22.3463 21.169 22.3856 21.1432 22.4285 21.1208C22.7845 20.9351 23.2475 21.0576 23.4627 21.3944L24.9865 23.7793C25.2017 24.1161 25.0876 24.5397 24.7317 24.7254C24.6513 24.7673 24.5656 24.7935 24.4784 24.8051C24.1794 24.8449 23.8641 24.7126 23.6975 24.4518L23.5659 24.2458L23.7233 25.0807L24.1013 26.9109C24.1833 27.3082 23.9368 27.7391 23.5507 27.8733C23.1646 28.0076 22.785 27.7943 22.703 27.397L22.6976 27.3707C22.5257 26.5384 21.8632 25.8654 21.0061 25.8488C20.9568 25.8478 20.9072 25.8473 20.8573 25.8473C20.7718 25.8473 20.689 25.8488 20.6088 25.8515C19.8191 25.8782 19.2387 26.51 19.0802 27.2772L19.076 27.2974C18.9934 27.6977 18.611 27.9125 18.2221 27.7773C17.8331 27.642 17.5848 27.2079 17.6674 26.8077L18.2461 24.0057L17.9421 24.4814C17.7943 24.7128 17.53 24.8433 17.2634 24.8429ZM17.1027 25.6212C16.9083 25.6015 16.7155 25.546 16.5349 25.4517C15.7679 25.0516 15.5147 24.1118 15.9784 23.386L17.5025 21.0008C17.9397 20.3165 18.8569 20.0739 19.58 20.4511C19.5988 20.4609 19.6173 20.4711 19.6356 20.4816C19.6527 20.4858 19.6698 20.4903 19.6868 20.4952C20.0425 20.5966 20.416 20.6506 20.8019 20.6506C21.2019 20.6506 21.5887 20.5925 21.9564 20.4837C21.9897 20.4629 22.0239 20.4434 22.059 20.4251C22.7809 20.0485 23.6965 20.2907 24.133 20.9738L25.6568 23.3587C26.1198 24.0833 25.867 25.0216 25.1012 25.4211C24.9523 25.4988 24.7951 25.5502 24.6355 25.5768L24.8785 26.7533C25.0401 27.5358 24.5738 28.3509 23.8133 28.6153C22.9735 28.9072 22.1042 28.4188 21.9258 27.5547L21.9203 27.5284C21.8057 26.9734 21.3977 26.6428 20.9906 26.6349C20.9464 26.634 20.9019 26.6336 20.8573 26.6336C20.7809 26.6336 20.7071 26.6349 20.6359 26.6373C20.3099 26.6483 19.9639 26.9196 19.8575 27.4348L19.8533 27.4551C19.6742 28.3221 18.8021 28.8121 17.9595 28.5192C17.1961 28.2538 16.728 27.4355 16.8902 26.6501L17.1027 25.6212Z"/>
</mask>
<path fill-rule="evenodd" clip-rule="evenodd" d="M15.1073 6.79785H9.75C8.23122 6.79785 7 8.02907 7 9.54785V30.3217C7 31.8405 8.23122 33.0717 9.75 33.0717H26.4446C27.9634 33.0717 29.1946 31.8405 29.1946 30.3217V9.54785C29.1946 8.02907 27.9634 6.79785 26.4446 6.79785H20.8927C20.9627 6.5438 21 6.27626 21 6C21 4.34315 19.6569 3 18 3C16.3431 3 15 4.34315 15 6C15 6.27626 15.0373 6.5438 15.1073 6.79785ZM19.5 6C19.5 6.82843 18.8284 7.5 18 7.5C17.1716 7.5 16.5 6.82843 16.5 6C16.5 5.17157 17.1716 4.5 18 4.5C18.8284 4.5 19.5 5.17157 19.5 6ZM22.7473 8.29785C22.8309 8.44397 22.8787 8.6132 22.8787 8.79358V10.111C22.8787 10.6633 22.431 11.111 21.8787 11.111H13.9264C13.3742 11.111 12.9264 10.6633 12.9264 10.111V8.79358C12.9264 8.6132 12.9742 8.44397 13.0578 8.29785H9.75C9.05965 8.29785 8.5 8.8575 8.5 9.54785V30.3217C8.5 31.0121 9.05964 31.5717 9.75 31.5717H26.4446C27.135 31.5717 27.6946 31.0121 27.6946 30.3217V9.54785C27.6946 8.8575 27.135 8.29785 26.4446 8.29785H22.7473Z" fill="#D9667B"/>
<path d="M15.8958 19.7553C15.8958 20.8525 15.0063 21.742 13.9091 21.742C12.8118 21.742 11.9224 20.8525 11.9224 19.7553C11.9224 18.658 12.8118 17.7686 13.9091 17.7686C15.0063 17.7686 15.8958 18.658 15.8958 19.7553Z" fill="#D9667B"/>
<path fill-rule="evenodd" clip-rule="evenodd" d="M23.151 17.4943C23.151 18.8718 22.0342 19.9886 20.6567 19.9886C19.2791 19.9886 18.1624 18.8718 18.1624 17.4943C18.1624 16.1167 19.2791 15 20.6567 15C22.0342 15 23.151 16.1167 23.151 17.4943ZM22.151 17.4943C22.151 18.3196 21.4819 18.9886 20.6567 18.9886C19.8314 18.9886 19.1624 18.3196 19.1624 17.4943C19.1624 16.669 19.8314 16 20.6567 16C21.4819 16 22.151 16.669 22.151 17.4943Z" fill="#D9667B"/>
<path fill-rule="evenodd" clip-rule="evenodd" d="M15.6446 22.2078C15.7684 22.2231 15.8893 22.2594 16.0012 22.3149L15.7542 22.705L15.1574 23.6475C14.8007 24.2108 14.9496 25.3683 15.5396 25.6788C15.744 25.7864 15.9687 25.8295 16.1882 25.8149L16.2007 25.8836L16.2201 25.9803L16.0179 26.9901C15.9147 27.5053 16.1574 28.0426 16.5883 28.3232C16.4833 28.4191 16.3598 28.4957 16.2222 28.545C15.6605 28.7464 15.0825 28.4197 14.9654 27.8347C14.8605 27.3108 14.4701 26.9599 14.0389 26.9554L13.9837 26.9551C13.9385 26.9551 13.8943 26.9557 13.8512 26.9568C13.4831 26.9664 13.1488 27.2714 13.0519 27.7553C12.9342 28.3426 12.3541 28.6705 11.7902 28.4684C11.2757 28.2839 10.9574 27.7208 11.0648 27.1848L11.2728 26.146C11.0616 26.1713 10.842 26.1359 10.6442 26.0317C10.1254 25.7586 9.95492 25.12 10.2686 24.6246L11.4738 22.7213C11.6592 22.4286 11.9719 22.253 12.3006 22.2242C12.7733 22.4994 13.3229 22.657 13.9093 22.657C14.5123 22.657 15.0765 22.4903 15.5581 22.2005C15.5711 22.2011 15.5841 22.2019 15.5971 22.2029L15.6445 22.2027L15.6446 22.2078Z" fill="#D9667B"/>
<path d="M16.2007 25.8836L16.1882 25.8149C16.2103 25.8135 16.2325 25.8114 16.2545 25.8088L16.2201 25.9803L16.2007 25.8836Z" fill="#D9667B"/>
<path fill-rule="evenodd" clip-rule="evenodd" d="M17.2634 24.8429C17.1405 24.8428 17.0171 24.8148 16.9044 24.756C16.5473 24.5696 16.4328 24.1446 16.6487 23.8067L18.1728 21.4214C18.3887 21.0835 18.8533 20.9605 19.2105 21.1469C19.2554 21.1703 19.2965 21.1975 19.3336 21.2279C19.3783 21.2306 19.4232 21.2382 19.4675 21.2508C19.8935 21.3722 20.3407 21.4369 20.8019 21.4369C21.322 21.4369 21.8242 21.3546 22.2983 21.2016L22.3105 21.1977C22.3463 21.169 22.3856 21.1432 22.4285 21.1208C22.7845 20.9351 23.2475 21.0576 23.4627 21.3944L24.9865 23.7793C25.2017 24.1161 25.0876 24.5397 24.7317 24.7254C24.6513 24.7673 24.5656 24.7935 24.4784 24.8051C24.1794 24.8449 23.8641 24.7126 23.6975 24.4518L23.5659 24.2458L23.7233 25.0807L24.1013 26.9109C24.1833 27.3082 23.9368 27.7391 23.5507 27.8733C23.1646 28.0076 22.785 27.7943 22.703 27.397L22.6976 27.3707C22.5257 26.5384 21.8632 25.8654 21.0061 25.8488C20.9568 25.8478 20.9072 25.8473 20.8573 25.8473C20.7718 25.8473 20.689 25.8488 20.6088 25.8515C19.8191 25.8782 19.2387 26.51 19.0802 27.2772L19.076 27.2974C18.9934 27.6977 18.611 27.9125 18.2221 27.7773C17.8331 27.642 17.5848 27.2079 17.6674 26.8077L18.2461 24.0057L17.9421 24.4814C17.7943 24.7128 17.53 24.8433 17.2634 24.8429ZM17.1027 25.6212C16.9083 25.6015 16.7155 25.546 16.5349 25.4517C15.7679 25.0516 15.5147 24.1118 15.9784 23.386L17.5025 21.0008C17.9397 20.3165 18.8569 20.0739 19.58 20.4511C19.5988 20.4609 19.6173 20.4711 19.6356 20.4816C19.6527 20.4858 19.6698 20.4903 19.6868 20.4952C20.0425 20.5966 20.416 20.6506 20.8019 20.6506C21.2019 20.6506 21.5887 20.5925 21.9564 20.4837C21.9897 20.4629 22.0239 20.4434 22.059 20.4251C22.7809 20.0485 23.6965 20.2907 24.133 20.9738L25.6568 23.3587C26.1198 24.0833 25.867 25.0216 25.1012 25.4211C24.9523 25.4988 24.7951 25.5502 24.6355 25.5768L24.8785 26.7533C25.0401 27.5358 24.5738 28.3509 23.8133 28.6153C22.9735 28.9072 22.1042 28.4188 21.9258 27.5547L21.9203 27.5284C21.8057 26.9734 21.3977 26.6428 20.9906 26.6349C20.9464 26.634 20.9019 26.6336 20.8573 26.6336C20.7809 26.6336 20.7071 26.6349 20.6359 26.6373C20.3099 26.6483 19.9639 26.9196 19.8575 27.4348L19.8533 27.4551C19.6742 28.3221 18.8021 28.8121 17.9595 28.5192C17.1961 28.2538 16.728 27.4355 16.8902 26.6501L17.1027 25.6212Z" fill="#D9667B"/>
<path d="M16.558 22.8618C16.5728 22.8384 16.5658 22.8075 16.5425 22.7928C16.5192 22.778 16.4883 22.7849 16.4735 22.8083L16.558 22.8618ZM15.7353 22.7513C15.7609 22.7617 15.79 22.7495 15.8005 22.7239C15.8109 22.6983 15.7986 22.6691 15.773 22.6587L15.7353 22.7513ZM15.6568 22.6227C15.6298 22.6169 15.6032 22.634 15.5973 22.661C15.5915 22.688 15.6086 22.7146 15.6356 22.7205L15.6568 22.6227ZM16.2374 25.8059C16.2324 25.7788 16.2064 25.7608 16.1792 25.7657C16.152 25.7707 16.134 25.7968 16.139 25.8239L16.2374 25.8059ZM16.2007 25.8836L16.1515 25.8925L16.1517 25.8934L16.2007 25.8836ZM16.1711 25.9901C16.1765 26.0172 16.2028 26.0347 16.2299 26.0293C16.257 26.0239 16.2746 25.9975 16.2691 25.9704L16.1711 25.9901ZM15.552 24.357L15.5097 24.3302V24.3303L15.552 24.357ZM15.4061 24.741C15.4084 24.7686 15.4325 24.789 15.46 24.7867C15.4876 24.7844 15.508 24.7603 15.5057 24.7327L15.4061 24.741ZM16.672 26.1185C16.6666 26.1455 16.6842 26.1719 16.7112 26.1773C16.7383 26.1827 16.7647 26.1652 16.7701 26.1381L16.672 26.1185ZM17.1123 24.4296C17.1177 24.4025 17.1001 24.3762 17.0731 24.3708C17.046 24.3653 17.0196 24.3829 17.0142 24.41L17.1123 24.4296ZM16.7678 26.1497C16.7732 26.1226 16.7556 26.0963 16.7286 26.0908C16.7015 26.0854 16.6751 26.103 16.6697 26.13L16.7678 26.1497ZM16.528 27.0923L16.479 27.0825L16.528 27.0923ZM16.465 27.2557C16.4659 27.2833 16.489 27.3049 16.5166 27.304C16.5442 27.3031 16.5659 27.2799 16.5649 27.2523L16.465 27.2557ZM12.3557 22.7292C12.3833 22.7273 12.4041 22.7035 12.4022 22.6759C12.4003 22.6484 12.3764 22.6276 12.3489 22.6295L12.3557 22.7292ZM11.8603 22.9663L11.9025 22.9931H11.9025L11.8603 22.9663ZM10.6551 24.8694L10.6128 24.8426H10.6128L10.6551 24.8694ZM10.5304 25.0458C10.5249 25.0728 10.5423 25.0992 10.5694 25.1047C10.5964 25.1103 10.6228 25.0928 10.6284 25.0657L10.5304 25.0458ZM15.6356 22.7205C15.6696 22.7279 15.703 22.7382 15.7353 22.7513L15.773 22.6587C15.7354 22.6434 15.6965 22.6313 15.6568 22.6227L15.6356 22.7205ZM16.2499 25.8746L16.2374 25.8059L16.139 25.8239L16.1516 25.8925L16.2499 25.8746ZM16.2691 25.9704L16.2498 25.8737L16.1517 25.8934L16.1711 25.9901L16.2691 25.9704ZM15.5057 24.7327C15.4961 24.6168 15.5238 24.495 15.5942 24.3837L15.5097 24.3303C15.4277 24.4597 15.3946 24.6033 15.4061 24.741L15.5057 24.7327ZM16.577 27.1021L16.7678 26.1497L16.6697 26.13L16.479 27.0825L16.577 27.1021ZM16.5649 27.2523C16.5632 27.2021 16.5671 27.1517 16.577 27.1021L16.479 27.0825C16.4675 27.1399 16.463 27.1981 16.465 27.2557L16.5649 27.2523ZM12.3489 22.6295C12.1391 22.6438 11.9359 22.7535 11.818 22.9396L11.9025 22.9931C12.0019 22.8361 12.175 22.7416 12.3557 22.7292L12.3489 22.6295ZM10.6973 24.8961L11.9025 22.9931L11.818 22.9396L10.6128 24.8426L10.6973 24.8961ZM10.6284 25.0657C10.6401 25.0081 10.6628 24.9507 10.6973 24.8961L10.6128 24.8426C10.5718 24.9074 10.5445 24.9761 10.5304 25.0458L10.6284 25.0657ZM15.5942 24.3838L16.558 22.8618L16.4735 22.8083L15.5097 24.3302L15.5942 24.3838ZM17.0142 24.41L16.672 26.1185L16.7701 26.1381L17.1123 24.4296L17.0142 24.41ZM22.1154 20.4246L22.1031 20.4016L22.0148 20.4485L22.027 20.4715L22.1154 20.4246ZM17.6678 26.7568L16.9001 26.6011L16.8802 26.6991L17.6479 26.8548L17.6678 26.7568ZM15.1073 6.79785V6.89785H15.2385L15.2037 6.77132L15.1073 6.79785ZM20.8927 6.79785L20.7963 6.77132L20.7615 6.89785H20.8927V6.79785ZM22.7473 8.29785V8.19785H22.5749L22.6605 8.3475L22.7473 8.29785ZM13.0578 8.29785L13.1446 8.3475L13.2302 8.19785H13.0578V8.29785ZM16.0012 22.3149L16.0857 22.3684C16.1008 22.3445 16.1051 22.3152 16.0975 22.288C16.0899 22.2607 16.071 22.2379 16.0457 22.2253L16.0012 22.3149ZM15.6446 22.2078L15.5446 22.2081C15.5447 22.2585 15.5823 22.3008 15.6323 22.307L15.6446 22.2078ZM15.7542 22.705L15.8386 22.7585L15.7542 22.705ZM15.1574 23.6475L15.0729 23.594L15.1574 23.6475ZM15.5396 25.6788L15.493 25.7673L15.5396 25.6788ZM16.1882 25.8149L16.1948 25.9147H16.1948L16.1882 25.8149ZM16.2201 25.9803L16.1221 25.9606L16.2201 25.9803ZM16.0179 26.9901L16.1159 27.0098L16.0179 26.9901ZM16.5883 28.3232L16.6558 28.397C16.6786 28.3762 16.6905 28.3459 16.688 28.3151C16.6855 28.2842 16.6688 28.2563 16.6429 28.2394L16.5883 28.3232ZM16.2222 28.545L16.1884 28.4509L16.2222 28.545ZM14.9654 27.8347L15.0634 27.815L14.9654 27.8347ZM14.0389 26.9554L14.0399 26.8554L14.0394 26.8554L14.0389 26.9554ZM13.9837 26.9551L13.9843 26.8551H13.9837V26.9551ZM13.8512 26.9568L13.8486 26.8569L13.8512 26.9568ZM13.0519 27.7553L12.9538 27.7356L13.0519 27.7553ZM11.7902 28.4684L11.7565 28.5625L11.7902 28.4684ZM11.0648 27.1848L11.1628 27.2045L11.0648 27.1848ZM11.2728 26.146L11.3708 26.1656C11.3771 26.1342 11.368 26.1017 11.3462 26.0781C11.3245 26.0546 11.2927 26.0429 11.2609 26.0467L11.2728 26.146ZM10.6442 26.0317L10.5976 26.1202H10.5976L10.6442 26.0317ZM10.2686 24.6246L10.1841 24.5711H10.1841L10.2686 24.6246ZM11.4738 22.7213L11.3893 22.6678L11.4738 22.7213ZM12.3006 22.2242L12.3509 22.1378C12.333 22.1274 12.3124 22.1228 12.2919 22.1246L12.3006 22.2242ZM15.5581 22.2005L15.5626 22.1006C15.5429 22.0997 15.5234 22.1046 15.5066 22.1148L15.5581 22.2005ZM15.5971 22.2029L15.589 22.3029L15.5974 22.3029L15.5971 22.2029ZM15.6445 22.2027L15.7445 22.2024C15.7443 22.1472 15.6994 22.1026 15.6442 22.1027L15.6445 22.2027ZM16.2545 25.8088L16.3525 25.8284C16.3588 25.797 16.3496 25.7644 16.3279 25.7409C16.3061 25.7174 16.2744 25.7057 16.2426 25.7095L16.2545 25.8088ZM17.2634 24.8429L17.2635 24.7429L17.2634 24.8429ZM16.9044 24.756L16.9507 24.6673L16.9044 24.756ZM16.6487 23.8067L16.733 23.8605H16.733L16.6487 23.8067ZM18.1728 21.4214L18.0885 21.3676H18.0885L18.1728 21.4214ZM19.2105 21.1469L19.1642 21.2355L19.2105 21.1469ZM19.3336 21.2279L19.2702 21.3053L19.2952 21.3257L19.3275 21.3277L19.3336 21.2279ZM19.4675 21.2508L19.4401 21.347L19.4675 21.2508ZM22.2983 21.2016L22.2685 21.1061L22.2675 21.1064L22.2983 21.2016ZM22.3105 21.1977L22.3403 21.2932L22.3584 21.2876L22.3732 21.2757L22.3105 21.1977ZM22.4285 21.1208L22.3823 21.0322L22.4285 21.1208ZM23.4627 21.3944L23.547 21.3406L23.4627 21.3944ZM24.9865 23.7793L25.0708 23.7255L24.9865 23.7793ZM24.7317 24.7254L24.7779 24.8141L24.7317 24.7254ZM24.4784 24.8051L24.4916 24.9042L24.4784 24.8051ZM23.6975 24.4518L23.6132 24.5056L23.6975 24.4518ZM23.5659 24.2458L23.6501 24.192L23.4676 24.2643L23.5659 24.2458ZM23.7233 25.0807L23.625 25.0992L23.6253 25.1009L23.7233 25.0807ZM24.1013 26.9109L24.1992 26.8907L24.1013 26.9109ZM23.5507 27.8733L23.5835 27.9678L23.5507 27.8733ZM22.703 27.397L22.8009 27.3768H22.8009L22.703 27.397ZM22.6976 27.3707L22.5996 27.3909H22.5996L22.6976 27.3707ZM21.0061 25.8488L21.0041 25.9488L21.0061 25.8488ZM20.6088 25.8515L20.6054 25.7516L20.6088 25.8515ZM19.0802 27.2772L18.9823 27.2569L19.0802 27.2772ZM19.076 27.2974L19.174 27.3176L19.076 27.2974ZM18.2221 27.7773L18.2549 27.6828L18.2221 27.7773ZM17.6674 26.8077L17.5695 26.7875L17.6674 26.8077ZM18.2461 24.0057L18.344 24.0259L18.1618 23.9519L18.2461 24.0057ZM17.9421 24.4814L18.0264 24.5353H18.0264L17.9421 24.4814ZM16.5349 25.4517L16.4886 25.5404L16.5349 25.4517ZM17.1027 25.6212L17.2006 25.6414L17.223 25.5328L17.1127 25.5217L17.1027 25.6212ZM15.9784 23.386L16.0627 23.4399H16.0627L15.9784 23.386ZM17.5025 21.0008L17.4183 20.9469H17.4183L17.5025 21.0008ZM19.58 20.4511L19.6263 20.3625L19.58 20.4511ZM19.6356 20.4816L19.5858 20.5683L19.598 20.5754L19.6118 20.5787L19.6356 20.4816ZM19.6868 20.4952L19.7142 20.399L19.6868 20.4952ZM21.9564 20.4837L21.9848 20.5796L21.9978 20.5758L22.0093 20.5686L21.9564 20.4837ZM22.059 20.4251L22.0127 20.3364L22.059 20.4251ZM24.133 20.9738L24.0487 21.0276L24.133 20.9738ZM25.6568 23.3587L25.7411 23.3048L25.6568 23.3587ZM25.1012 25.4211L25.1475 25.5098L25.1012 25.4211ZM24.6355 25.5768L24.6191 25.4781L24.5166 25.4952L24.5376 25.597L24.6355 25.5768ZM24.8785 26.7533L24.9764 26.7331L24.8785 26.7533ZM23.8133 28.6153L23.8461 28.7097L23.8133 28.6153ZM21.9258 27.5547L22.0237 27.5345L21.9258 27.5547ZM20.9906 26.6349L20.9886 26.7349H20.9886L20.9906 26.6349ZM20.6359 26.6373L20.6392 26.7372L20.6359 26.6373ZM19.8575 27.4348L19.7595 27.4146L19.8575 27.4348ZM19.8533 27.4551L19.9512 27.4753L19.8533 27.4551ZM17.9595 28.5192L17.9923 28.4247L17.9595 28.5192ZM16.8902 26.6501L16.7922 26.6298L16.8902 26.6501ZM18 7.6C18.8837 7.6 19.6 6.88366 19.6 6H19.4C19.4 6.7732 18.7732 7.4 18 7.4V7.6ZM16.4 6C16.4 6.88366 17.1163 7.6 18 7.6V7.4C17.2268 7.4 16.6 6.7732 16.6 6H16.4ZM18 4.4C17.1163 4.4 16.4 5.11634 16.4 6H16.6C16.6 5.2268 17.2268 4.6 18 4.6V4.4ZM19.6 6C19.6 5.11634 18.8837 4.4 18 4.4V4.6C18.7732 4.6 19.4 5.2268 19.4 6H19.6ZM15.1073 6.69785H9.75V6.89785H15.1073V6.69785ZM9.75 6.69785C8.17599 6.69785 6.9 7.97384 6.9 9.54785H7.1C7.1 8.0843 8.28645 6.89785 9.75 6.89785V6.69785ZM6.9 9.54785V30.3217H7.1V9.54785H6.9ZM6.9 30.3217C6.9 31.8957 8.17599 33.1717 9.75 33.1717V32.9717C8.28645 32.9717 7.1 31.7853 7.1 30.3217H6.9ZM9.75 33.1717H26.4446V32.9717H9.75V33.1717ZM26.4446 33.1717C28.0187 33.1717 29.2946 31.8957 29.2946 30.3217H29.0946C29.0946 31.7853 27.9082 32.9717 26.4446 32.9717V33.1717ZM29.2946 30.3217V9.54785H29.0946V30.3217H29.2946ZM29.2946 9.54785C29.2946 7.97384 28.0187 6.69785 26.4446 6.69785V6.89785C27.9082 6.89785 29.0946 8.0843 29.0946 9.54785H29.2946ZM26.4446 6.69785H20.8927V6.89785H26.4446V6.69785ZM20.9892 6.82438C21.0614 6.56177 21.1 6.28531 21.1 6H20.9C20.9 6.26721 20.8639 6.52583 20.7963 6.77132L20.9892 6.82438ZM21.1 6C21.1 4.28792 19.7121 2.9 18 2.9V3.1C19.6016 3.1 20.9 4.39837 20.9 6H21.1ZM18 2.9C16.2879 2.9 14.9 4.28792 14.9 6H15.1C15.1 4.39837 16.3984 3.1 18 3.1V2.9ZM14.9 6C14.9 6.28531 14.9386 6.56177 15.0108 6.82438L15.2037 6.77132C15.1361 6.52583 15.1 6.26721 15.1 6H14.9ZM22.9787 8.79358C22.9787 8.59533 22.9261 8.40904 22.8341 8.24821L22.6605 8.3475C22.7357 8.4789 22.7787 8.63107 22.7787 8.79358H22.9787ZM22.9787 10.111V8.79358H22.7787V10.111H22.9787ZM21.8787 11.211C22.4862 11.211 22.9787 10.7185 22.9787 10.111H22.7787C22.7787 10.608 22.3757 11.011 21.8787 11.011V11.211ZM13.9264 11.211H21.8787V11.011H13.9264V11.211ZM12.8264 10.111C12.8264 10.7185 13.3189 11.211 13.9264 11.211V11.011C13.4294 11.011 13.0264 10.608 13.0264 10.111H12.8264ZM12.8264 8.79358V10.111H13.0264V8.79358H12.8264ZM12.971 8.24821C12.879 8.40904 12.8264 8.59533 12.8264 8.79358H13.0264C13.0264 8.63107 13.0694 8.4789 13.1446 8.3475L12.971 8.24821ZM9.75 8.39785H13.0578V8.19785H9.75V8.39785ZM8.6 9.54785C8.6 8.91272 9.11487 8.39785 9.75 8.39785V8.19785C9.00442 8.19785 8.4 8.80227 8.4 9.54785H8.6ZM8.6 30.3217V9.54785H8.4V30.3217H8.6ZM9.75 31.4717C9.11487 31.4717 8.6 30.9569 8.6 30.3217H8.4C8.4 31.0673 9.00442 31.6717 9.75 31.6717V31.4717ZM26.4446 31.4717H9.75V31.6717H26.4446V31.4717ZM27.5946 30.3217C27.5946 30.9569 27.0798 31.4717 26.4446 31.4717V31.6717C27.1902 31.6717 27.7946 31.0673 27.7946 30.3217H27.5946ZM27.5946 9.54785V30.3217H27.7946V9.54785H27.5946ZM26.4446 8.39785C27.0798 8.39785 27.5946 8.91272 27.5946 9.54785H27.7946C27.7946 8.80227 27.1902 8.19785 26.4446 8.19785V8.39785ZM22.7473 8.39785H26.4446V8.19785H22.7473V8.39785ZM15.7958 19.7553C15.7958 20.7973 14.9511 21.642 13.9091 21.642V21.842C15.0615 21.842 15.9958 20.9077 15.9958 19.7553H15.7958ZM13.9091 21.642C12.8671 21.642 12.0224 20.7973 12.0224 19.7553H11.8224C11.8224 20.9077 12.7566 21.842 13.9091 21.842V21.642ZM12.0224 19.7553C12.0224 18.7133 12.8671 17.8686 13.9091 17.8686V17.6686C12.7566 17.6686 11.8224 18.6028 11.8224 19.7553H12.0224ZM13.9091 17.8686C14.9511 17.8686 15.7958 18.7133 15.7958 19.7553H15.9958C15.9958 18.6028 15.0615 17.6686 13.9091 17.6686V17.8686ZM20.6567 19.0886C21.5372 19.0886 22.251 18.3748 22.251 17.4943H22.051C22.051 18.2643 21.4267 18.8886 20.6567 18.8886V19.0886ZM19.0624 17.4943C19.0624 18.3748 19.7762 19.0886 20.6567 19.0886V18.8886C19.8866 18.8886 19.2624 18.2643 19.2624 17.4943H19.0624ZM20.6567 15.9C19.7762 15.9 19.0624 16.6138 19.0624 17.4943H19.2624C19.2624 16.7242 19.8866 16.1 20.6567 16.1V15.9ZM22.251 17.4943C22.251 16.6138 21.5372 15.9 20.6567 15.9V16.1C21.4267 16.1 22.051 16.7242 22.051 17.4943H22.251ZM20.6567 20.0886C22.0895 20.0886 23.251 18.9271 23.251 17.4943H23.051C23.051 18.8166 21.979 19.8886 20.6567 19.8886V20.0886ZM18.0624 17.4943C18.0624 18.9271 19.2239 20.0886 20.6567 20.0886V19.8886C19.3343 19.8886 18.2624 18.8166 18.2624 17.4943H18.0624ZM20.6567 14.9C19.2239 14.9 18.0624 16.0615 18.0624 17.4943H18.2624C18.2624 16.172 19.3343 15.1 20.6567 15.1V14.9ZM23.251 17.4943C23.251 16.0615 22.0895 14.9 20.6567 14.9V15.1C21.979 15.1 23.051 16.172 23.051 17.4943H23.251ZM16.0457 22.2253C15.9236 22.1648 15.7918 22.1252 15.6569 22.1085L15.6323 22.307C15.7449 22.321 15.855 22.354 15.9567 22.4045L16.0457 22.2253ZM15.8386 22.7585L16.0857 22.3684L15.9167 22.2614L15.6697 22.6515L15.8386 22.7585ZM15.2418 23.701L15.8386 22.7585L15.6697 22.6515L15.0729 23.594L15.2418 23.701ZM15.5862 25.5903C15.3317 25.4563 15.1564 25.1271 15.0921 24.7415C15.0282 24.3579 15.0809 23.9551 15.2418 23.701L15.0729 23.594C14.8771 23.9031 14.8259 24.3607 14.8949 24.7743C14.9634 25.186 15.1576 25.5907 15.493 25.7673L15.5862 25.5903ZM16.1816 25.7152C15.9796 25.7285 15.7734 25.6889 15.5862 25.5903L15.493 25.7673C15.7146 25.8839 15.9578 25.9304 16.1948 25.9147L16.1816 25.7152ZM16.1159 27.0098L16.3182 25.9999L16.1221 25.9606L15.9198 26.9705L16.1159 27.0098ZM16.6429 28.2394C16.2446 27.9801 16.0212 27.483 16.1159 27.0098L15.9198 26.9705C15.8082 27.5277 16.0701 28.1052 16.5337 28.407L16.6429 28.2394ZM16.2559 28.6392C16.4066 28.5851 16.5415 28.5014 16.6558 28.397L16.5209 28.2494C16.4251 28.3368 16.3129 28.4062 16.1884 28.4509L16.2559 28.6392ZM14.8673 27.8543C14.9965 28.4992 15.6368 28.8611 16.2559 28.6392L16.1884 28.4509C15.6842 28.6316 15.1686 28.3402 15.0634 27.815L14.8673 27.8543ZM14.0378 27.0554C14.4119 27.0593 14.7696 27.3664 14.8673 27.8543L15.0634 27.815C14.9513 27.2552 14.5282 26.8605 14.0399 26.8554L14.0378 27.0554ZM13.9832 27.0551L14.0384 27.0554L14.0394 26.8554L13.9843 26.8551L13.9832 27.0551ZM13.8538 27.0568C13.896 27.0557 13.9393 27.0551 13.9837 27.0551V26.8551C13.9376 26.8551 13.8925 26.8557 13.8486 26.8569L13.8538 27.0568ZM13.1499 27.7749C13.2402 27.3242 13.5441 27.0649 13.8538 27.0568L13.8486 26.8569C13.422 26.868 13.0574 27.2186 12.9538 27.7356L13.1499 27.7749ZM11.7565 28.5625C12.3778 28.7853 13.0203 28.4221 13.1499 27.7749L12.9538 27.7356C12.8482 28.2631 12.3304 28.5558 11.824 28.3742L11.7565 28.5625ZM10.9667 27.1652C10.8496 27.7498 11.1953 28.3613 11.7565 28.5625L11.824 28.3742C11.3561 28.2065 11.0652 27.6918 11.1628 27.2045L10.9667 27.1652ZM11.1747 26.1264L10.9667 27.1652L11.1628 27.2045L11.3708 26.1656L11.1747 26.1264ZM10.5976 26.1202C10.8144 26.2343 11.0544 26.2729 11.2847 26.2453L11.2609 26.0467C11.0687 26.0697 10.8697 26.0374 10.6908 25.9432L10.5976 26.1202ZM10.1841 24.5711C9.8392 25.1158 10.0272 25.8199 10.5976 26.1202L10.6908 25.9432C10.2237 25.6973 10.0706 25.1241 10.353 24.6781L10.1841 24.5711ZM11.3893 22.6678L10.1841 24.5711L10.353 24.6781L11.5583 22.7748L11.3893 22.6678ZM12.2919 22.1246C11.9342 22.1559 11.5924 22.3471 11.3893 22.6678L11.5583 22.7748C11.7259 22.5101 12.0097 22.3501 12.3093 22.3239L12.2919 22.1246ZM13.9093 22.557C13.341 22.557 12.8087 22.4043 12.3509 22.1378L12.2503 22.3107C12.7379 22.5945 13.3047 22.757 13.9093 22.757V22.557ZM15.5066 22.1148C15.0401 22.3955 14.4937 22.557 13.9093 22.557V22.757C14.531 22.757 15.1129 22.5851 15.6097 22.2862L15.5066 22.1148ZM15.6051 22.1032C15.5909 22.1021 15.5768 22.1012 15.5626 22.1006L15.5537 22.3004C15.5655 22.3009 15.5773 22.3016 15.5891 22.3026L15.6051 22.1032ZM15.6442 22.1027L15.5967 22.1029L15.5974 22.3029L15.6449 22.3027L15.6442 22.1027ZM15.7446 22.2074L15.7445 22.2024L15.5445 22.2031L15.5446 22.2081L15.7446 22.2074ZM16.2426 25.7095C16.2223 25.7119 16.2019 25.7138 16.1816 25.7152L16.1948 25.9147C16.2187 25.9131 16.2426 25.9109 16.2663 25.9081L16.2426 25.7095ZM16.3182 25.9999L16.3525 25.8284L16.1564 25.7891L16.1221 25.9606L16.3182 25.9999ZM17.2635 24.7429C17.1557 24.7428 17.0483 24.7182 16.9507 24.6673L16.8582 24.8446C16.986 24.9113 17.1253 24.9427 17.2632 24.9429L17.2635 24.7429ZM16.9507 24.6673C16.6451 24.5079 16.5489 24.1486 16.733 23.8605L16.5644 23.7528C16.3167 24.1406 16.4494 24.6314 16.8582 24.8446L16.9507 24.6673ZM16.733 23.8605L18.2571 21.4753L18.0885 21.3676L16.5644 23.7528L16.733 23.8605ZM18.2571 21.4753C18.4449 21.1813 18.8527 21.073 19.1642 21.2355L19.2567 21.0582C18.8539 20.8481 18.3326 20.9856 18.0885 21.3676L18.2571 21.4753ZM19.1642 21.2355C19.2032 21.2559 19.2385 21.2793 19.2702 21.3053L19.3969 21.1505C19.3545 21.1158 19.3077 21.0848 19.2567 21.0582L19.1642 21.2355ZM19.3275 21.3277C19.3651 21.33 19.4029 21.3363 19.4401 21.347L19.495 21.1546C19.4436 21.14 19.3915 21.1313 19.3397 21.1281L19.3275 21.3277ZM19.4401 21.347C19.8749 21.4709 20.3313 21.5369 20.8019 21.5369V21.3369C20.3501 21.3369 19.9121 21.2735 19.495 21.1546L19.4401 21.347ZM20.8019 21.5369C21.3326 21.5369 21.8452 21.453 22.329 21.2967L22.2675 21.1064C21.8033 21.2563 21.3113 21.3369 20.8019 21.3369V21.5369ZM22.328 21.297L22.3403 21.2932L22.2808 21.1023L22.2685 21.1061L22.328 21.297ZM22.3732 21.2757C22.4037 21.2511 22.4376 21.2289 22.4748 21.2095L22.3823 21.0322C22.3336 21.0575 22.2888 21.0869 22.2479 21.1198L22.3732 21.2757ZM22.4748 21.2095C22.7851 21.0476 23.1913 21.1555 23.3784 21.4483L23.547 21.3406C23.3037 20.9598 22.7839 20.8227 22.3823 21.0322L22.4748 21.2095ZM23.3784 21.4483L24.9023 23.8331L25.0708 23.7255L23.547 21.3406L23.3784 21.4483ZM24.9023 23.8331C25.0856 24.1201 24.9898 24.478 24.6854 24.6367L24.7779 24.8141C25.1855 24.6014 25.3179 24.1121 25.0708 23.7255L24.9023 23.8331ZM24.6854 24.6367C24.6159 24.673 24.5413 24.6959 24.4652 24.706L24.4916 24.9042C24.5898 24.8912 24.6868 24.8616 24.7779 24.8141L24.6854 24.6367ZM24.4652 24.706C24.2018 24.741 23.926 24.6236 23.7818 24.3979L23.6132 24.5056C23.8023 24.8015 24.1569 24.9488 24.4916 24.9042L24.4652 24.706ZM23.7818 24.3979L23.6501 24.192L23.4816 24.2996L23.6132 24.5056L23.7818 24.3979ZM24.0033 26.9312C24.0751 27.2787 23.8571 27.6609 23.5179 27.7789L23.5835 27.9678C24.0165 27.8173 24.2915 27.3377 24.1992 26.8907L24.0033 26.9312ZM23.5179 27.7789C23.188 27.8936 22.8706 27.7141 22.8009 27.3768L22.6051 27.4173C22.6995 27.8746 23.1412 28.1216 23.5835 27.9678L23.5179 27.7789ZM22.8009 27.3768L22.7955 27.3505L22.5996 27.3909L22.6051 27.4173L22.8009 27.3768ZM22.7955 27.3505C22.6162 26.4823 21.9212 25.7665 21.008 25.7488L21.0041 25.9488C21.8052 25.9643 22.4351 26.5944 22.5996 27.3909L22.7955 27.3505ZM21.008 25.7488C20.9582 25.7478 20.9079 25.7473 20.8573 25.7473V25.9473C20.9066 25.9473 20.9555 25.9478 21.0041 25.9488L21.008 25.7488ZM20.8573 25.7473C20.7707 25.7473 20.6867 25.7488 20.6054 25.7516L20.6122 25.9514C20.6912 25.9488 20.7729 25.9473 20.8573 25.9473V25.7473ZM20.6054 25.7516C19.7579 25.7802 19.1475 26.4572 18.9823 27.2569L19.1782 27.2974C19.3299 26.5628 19.8804 25.9762 20.6122 25.9514L20.6054 25.7516ZM18.9823 27.2569L18.9781 27.2772L19.174 27.3176L19.1782 27.2974L18.9823 27.2569ZM18.9781 27.2772C18.9078 27.6174 18.5877 27.7985 18.2549 27.6828L18.1892 27.8717C18.6344 28.0265 19.0789 27.7779 19.174 27.3176L18.9781 27.2772ZM18.2549 27.6828C17.9128 27.5639 17.693 27.1784 17.7653 26.8279L17.5695 26.7875C17.4765 27.2375 17.7534 27.7202 18.1892 27.8717L18.2549 27.6828ZM18.1618 23.9519L17.8579 24.4276L18.0264 24.5353L18.3303 24.0596L18.1618 23.9519ZM17.8579 24.4276C17.73 24.6277 17.499 24.7433 17.2635 24.7429L17.2632 24.9429C17.561 24.9434 17.8586 24.7978 18.0264 24.5353L17.8579 24.4276ZM16.4886 25.5404C16.6809 25.6407 16.886 25.6998 17.0926 25.7207L17.1127 25.5217C16.9306 25.5033 16.7501 25.4512 16.5811 25.3631L16.4886 25.5404ZM15.8942 23.3322C15.3986 24.1078 15.67 25.1133 16.4886 25.5404L16.5811 25.3631C15.8658 24.9898 15.6309 24.1158 16.0627 23.4399L15.8942 23.3322ZM17.4183 20.9469L15.8942 23.3322L16.0627 23.4399L17.5868 21.0546L17.4183 20.9469ZM19.6263 20.3625C18.8575 19.9614 17.8836 20.2187 17.4183 20.9469L17.5868 21.0546C17.9959 20.4144 18.8563 20.1863 19.5338 20.5398L19.6263 20.3625ZM19.6855 20.3949C19.666 20.3837 19.6463 20.3729 19.6263 20.3625L19.5338 20.5398C19.5513 20.549 19.5687 20.5585 19.5858 20.5683L19.6855 20.3949ZM19.7142 20.399C19.696 20.3938 19.6777 20.389 19.6594 20.3845L19.6118 20.5787C19.6277 20.5826 19.6436 20.5868 19.6594 20.5914L19.7142 20.399ZM20.8019 20.5506C20.4254 20.5506 20.0612 20.4979 19.7142 20.399L19.6594 20.5914C20.0239 20.6952 20.4066 20.7506 20.8019 20.7506V20.5506ZM21.928 20.3878C21.5694 20.494 21.1922 20.5506 20.8019 20.5506V20.7506C21.2117 20.7506 21.608 20.6911 21.9848 20.5796L21.928 20.3878ZM22.0127 20.3364C21.9754 20.3559 21.9389 20.3767 21.9034 20.3989L22.0093 20.5686C22.0404 20.5491 22.0724 20.5309 22.1052 20.5137L22.0127 20.3364ZM24.2172 20.92C23.7527 20.1929 22.7803 19.936 22.0127 20.3364L22.1052 20.5137C22.7815 20.1609 23.6403 20.3885 24.0487 21.0276L24.2172 20.92ZM25.7411 23.3048L24.2172 20.92L24.0487 21.0276L25.5725 23.4125L25.7411 23.3048ZM25.1475 25.5098C25.9649 25.0834 26.2359 24.0793 25.7411 23.3048L25.5725 23.4125C26.0037 24.0872 25.7691 24.9599 25.055 25.3325L25.1475 25.5098ZM24.652 25.6754C24.8216 25.6472 24.9889 25.5925 25.1475 25.5098L25.055 25.3325C24.9156 25.4052 24.7685 25.4533 24.6191 25.4781L24.652 25.6754ZM24.9764 26.7331L24.7335 25.5566L24.5376 25.597L24.7806 26.7735L24.9764 26.7331ZM23.8461 28.7097C24.6535 28.4291 25.1483 27.5653 24.9764 26.7331L24.7806 26.7735C24.9319 27.5063 24.4941 28.2727 23.7805 28.5208L23.8461 28.7097ZM21.8278 27.5749C22.0187 28.499 22.9501 29.0212 23.8461 28.7097L23.7805 28.5208C22.9969 28.7932 22.1897 28.3385 22.0237 27.5345L21.8278 27.5749ZM21.8224 27.5486L21.8278 27.5749L22.0237 27.5345L22.0183 27.5081L21.8224 27.5486ZM20.9886 26.7349C21.3412 26.7417 21.7155 27.0312 21.8224 27.5486L22.0183 27.5081C21.8959 26.9157 21.4543 26.5439 20.9925 26.5349L20.9886 26.7349ZM20.8573 26.7336C20.9012 26.7336 20.9451 26.734 20.9886 26.7349L20.9925 26.5349C20.9477 26.534 20.9026 26.5336 20.8573 26.5336V26.7336ZM20.6392 26.7372C20.7093 26.7349 20.782 26.7336 20.8573 26.7336V26.5336C20.7798 26.5336 20.7048 26.5349 20.6325 26.5373L20.6392 26.7372ZM19.9554 27.455C20.0546 26.9748 20.3692 26.7464 20.6392 26.7372L20.6325 26.5373C20.2507 26.5503 19.8731 26.8644 19.7595 27.4146L19.9554 27.455ZM19.9512 27.4753L19.9554 27.455L19.7595 27.4146L19.7553 27.4349L19.9512 27.4753ZM17.9266 28.6136C18.8255 28.9261 19.7598 28.4023 19.9512 27.4753L19.7553 27.4349C19.5887 28.2418 18.7787 28.6981 17.9923 28.4247L17.9266 28.6136ZM16.7922 26.6298C16.6198 27.465 17.1164 28.332 17.9266 28.6136L17.9923 28.4247C17.2758 28.1756 16.8362 27.406 16.9881 26.6703L16.7922 26.6298ZM17.0047 25.6009L16.7922 26.6298L16.9881 26.6703L17.2006 25.6414L17.0047 25.6009ZM23.4676 24.2643L23.625 25.0992L23.8215 25.0621L23.6641 24.2273L23.4676 24.2643ZM23.6253 25.1009L24.0033 26.9312L24.1992 26.8907L23.8212 25.0604L23.6253 25.1009ZM17.7653 26.8279L18.344 24.0259L18.1481 23.9855L17.5695 26.7875L17.7653 26.8279Z" fill="#D9667B" mask="url(#path-1-outside-1_2010_495)"/>
</svg>
