<svg width="36" height="36" viewBox="0 0 36 36" fill="none" xmlns="http://www.w3.org/2000/svg">
<path fill-rule="evenodd" clip-rule="evenodd" d="M25.0002 9C25.0002 11.2091 23.2093 13 21.0002 13C18.791 13 17.0002 11.2091 17.0002 9C17.0002 6.79086 18.791 5 21.0002 5C23.2093 5 25.0002 6.79086 25.0002 9ZM23.8002 9C23.8002 10.5464 22.5466 11.8 21.0002 11.8C19.4538 11.8 18.2002 10.5464 18.2002 9C18.2002 7.4536 19.4538 6.2 21.0002 6.2C22.5466 6.2 23.8002 7.4536 23.8002 9Z" fill="#D9667B"/>
<path fill-rule="evenodd" clip-rule="evenodd" d="M15.0482 11.3937C14.5107 10.8165 13.6715 10.6334 12.9424 10.9341C11.8497 11.3848 11.4333 12.7161 12.0745 13.7091L14.397 17.3061C14.6575 17.7096 15.0244 18.0027 15.4366 18.1728L14.7806 18.8239L14.217 18.4718C13.4807 17.8654 12.4251 17.7148 11.5187 18.176L8.52514 19.6992C7.41729 20.2629 7.05827 21.6726 7.76152 22.6976C8.23847 23.3927 9.09117 23.7267 9.91334 23.5403L11.9735 23.0733L12.887 23.6439L10.9876 26.9741C10.5278 27.7802 10.765 28.8043 11.5325 29.3262C12.2529 29.8161 13.2223 29.712 13.8223 29.0803L16.7621 25.9852C18.6528 27.0202 21.0569 26.1847 21.8759 24.1513L23.2136 20.8306L22.9119 22.9114C22.7905 23.7486 23.1992 24.5736 23.9388 24.9841C25.0305 25.59 26.4054 25.0798 26.8375 23.9084L28.0229 20.6947C28.2064 20.1972 28.2142 19.6761 28.0774 19.2022C28.0043 18.8491 27.8547 18.5065 27.6261 18.2001L25.0474 14.7431C24.8898 14.5319 24.7049 14.3515 24.5008 14.2037C24.0889 13.8501 23.5525 13.635 22.9671 13.6332L17.1163 13.6145L15.0482 11.3937ZM13.4 12.0434C13.6666 11.9335 13.9735 12.0004 14.17 12.2115L16.5925 14.8129L22.9633 14.8331C23.2584 14.8341 23.5263 14.9437 23.7314 15.1249L23.7561 15.1468L23.7831 15.1658C23.8954 15.2448 23.9978 15.3431 24.0855 15.4606L26.6642 18.9176C26.7892 19.0851 26.8684 19.2707 26.9055 19.4611L26.9113 19.4911L26.9202 19.5203C26.9929 19.7607 26.9909 20.025 26.897 20.2795L25.7116 23.4931C25.5342 23.9742 24.9695 24.1837 24.5212 23.9349C24.2175 23.7663 24.0496 23.4275 24.0994 23.0837L24.4789 20.4674L22.9122 18.3673L20.7629 23.703C20.1932 25.117 18.4795 25.6664 17.1939 24.8472L16.8555 24.6315L16.7786 24.6077C16.6707 24.5742 16.5646 24.5263 16.463 24.4628L12.1902 21.7937L9.64805 22.37C9.3053 22.4477 8.94983 22.3085 8.751 22.0187C8.45783 21.5914 8.6075 21.0037 9.06934 20.7687L12.0629 19.2455C12.5367 19.0044 13.0914 19.0869 13.473 19.414L13.5073 19.4434L14.9513 20.3454L18.1691 17.1513L16.4336 17.1457C16.4186 17.1457 16.4037 17.1454 16.3889 17.1448L16.3663 17.1438L16.3436 17.1446C15.9775 17.1575 15.6168 16.9831 15.4051 16.6552L13.0826 13.0582C12.8482 12.695 13.0004 12.2082 13.4 12.0434ZM13.7981 24.4686L12.0299 27.5686C11.8804 27.8309 11.9575 28.1641 12.2072 28.3339C12.4416 28.4933 12.757 28.4594 12.9522 28.2539L15.5894 25.4774L13.7981 24.4686Z" fill="#D9667B"/>
<path d="M7.77882 7.95941C6.96302 9.27991 7.15462 10.9596 8.19095 12.0637C8.36905 12.2535 8.67214 12.2003 8.8092 11.9787C8.92053 11.7987 8.88182 11.5675 8.7441 11.4072C8.7278 11.3882 8.71176 11.369 8.69601 11.3495L8.70005 11.343C8.01737 10.5022 7.94076 9.32499 8.50876 8.40365C8.86588 7.82804 9.4408 7.41956 10.104 7.27024L10.4431 8.68837C10.4844 8.86117 10.715 8.89761 10.8087 8.74615L12.0193 6.789C12.0774 6.69506 12.0481 6.57217 11.9539 6.51451L9.98541 5.30978C9.83343 5.21677 9.644 5.35338 9.68517 5.5263L9.90034 6.43001C9.01674 6.63693 8.25315 7.18704 7.77994 7.9576L7.77882 7.95941Z" fill="#D9667B"/>
<path d="M23.9384 29.3184C23.8672 29.4813 23.634 29.4767 23.5685 29.3111L22.7226 27.173C22.682 27.0703 22.7325 26.9544 22.8353 26.9142L24.9855 26.0725C25.1515 26.0075 25.3139 26.1756 25.2427 26.3387L24.6597 27.6727C25.2795 27.9492 25.9849 27.9664 26.6176 27.7204C27.628 27.3232 28.2777 26.3362 28.2396 25.2561L28.2467 25.2533C28.2458 25.2288 28.2446 25.2043 28.243 25.1798C28.2292 24.9685 28.3375 24.7604 28.5349 24.6832C28.7787 24.5877 29.0541 24.728 29.0818 24.9881C29.2418 26.4893 28.3802 27.9451 26.9309 28.5125L26.9269 28.5141C26.0834 28.8471 25.1409 28.8307 24.3096 28.4683L23.9384 29.3184Z" fill="#D9667B"/>
</svg>
