<svg width="36" height="36" viewBox="0 0 36 36" fill="none" xmlns="http://www.w3.org/2000/svg">
<path fill-rule="evenodd" clip-rule="evenodd" d="M15.1073 6.79785H9.75C8.23122 6.79785 7 8.02907 7 9.54785V30.3217C7 31.8405 8.23122 33.0717 9.75 33.0717H26.4446C27.9634 33.0717 29.1946 31.8405 29.1946 30.3217V9.54785C29.1946 8.02907 27.9634 6.79785 26.4446 6.79785H20.8927C20.9627 6.5438 21 6.27626 21 6C21 4.34315 19.6569 3 18 3C16.3431 3 15 4.34315 15 6C15 6.27626 15.0373 6.5438 15.1073 6.79785ZM19.5 6C19.5 6.82843 18.8284 7.5 18 7.5C17.1716 7.5 16.5 6.82843 16.5 6C16.5 5.17157 17.1716 4.5 18 4.5C18.8284 4.5 19.5 5.17157 19.5 6ZM22.7473 8.29785C22.8309 8.44397 22.8787 8.6132 22.8787 8.79358V10.111C22.8787 10.6633 22.431 11.111 21.8787 11.111H13.9264C13.3742 11.111 12.9264 10.6633 12.9264 10.111V8.79358C12.9264 8.6132 12.9742 8.44397 13.0578 8.29785H9.75C9.05965 8.29785 8.5 8.8575 8.5 9.54785V30.3217C8.5 31.0121 9.05964 31.5717 9.75 31.5717H26.4446C27.135 31.5717 27.6946 31.0121 27.6946 30.3217V9.54785C27.6946 8.8575 27.135 8.29785 26.4446 8.29785H22.7473Z" fill="#D9667B"/>
<path fill-rule="evenodd" clip-rule="evenodd" d="M23.4161 25.8177H12.5845C12.3757 25.8177 12.1827 25.7137 12.0783 25.545C11.9739 25.3762 11.9739 25.1683 12.0783 24.9995L17.4941 16.2722C17.5986 16.1037 17.7914 16 18 16C18.2086 16 18.4014 16.1037 18.5059 16.2722L23.9217 24.9995C24.026 25.1682 24.0261 25.376 23.9218 25.5447C23.8176 25.7134 23.6248 25.8175 23.4161 25.8177ZM17.3999 22.8826C17.3999 22.553 17.6703 22.2858 18 22.2858C18.3296 22.2858 18.6 22.553 18.6 22.8826C18.6 23.2122 18.3296 23.4794 18 23.4794C17.6703 23.4794 17.3999 23.2122 17.3999 22.8826ZM17.3999 21.0889V18.708C17.3999 18.3766 17.6686 18.108 18 18.108C18.3313 18.108 18.6 18.3766 18.6 18.708V21.0889C18.6 21.4203 18.3313 21.689 18 21.689C17.6686 21.689 17.3999 21.4203 17.3999 21.0889Z" fill="#D9667B"/>
</svg>
