<svg width="24" height="24" viewBox="0 0 24 24" fill="none" xmlns="http://www.w3.org/2000/svg">
<path d="M9.84311 6.7145H10.9999V4.77557C10.9999 4.34724 11.0443 4 11.5458 4H12.4539C12.9555 4 12.9999 4.34724 12.9999 4.77557L12.9999 6.7145H14.1567C14.5457 6.7145 14.7545 7.105 14.4999 7.35615L12.3431 9.86608C12.1621 10.0446 11.8377 10.0446 11.6567 9.86608L9.49988 7.35615C9.24522 7.105 9.4541 6.7145 9.84311 6.7145Z" fill="#2E3A59"/>
<path fill-rule="evenodd" clip-rule="evenodd" d="M8.28693 9.59257C8.31773 9.533 8.38068 9.49537 8.44955 9.49537H9.00006C9.3013 9.49537 9.5455 9.25922 9.5455 8.9679C9.5455 8.67659 9.3013 8.44043 9.00006 8.44043H8.44955C7.96749 8.44043 7.5268 8.70382 7.31121 9.12078L6.06261 11.5357C6.04149 11.5745 6.02522 11.6162 6.01458 11.6599C6.00387 11.7036 5.99917 11.7479 6.00012 11.7917V19.5174C6.00012 20.1971 6.56993 20.7481 7.27282 20.7481H16.7272C17.4301 20.7481 17.9999 20.1971 17.9999 19.5174V11.7917C18.0008 11.7479 17.9961 11.7036 17.9854 11.66C17.9748 11.6162 17.9585 11.5745 17.9374 11.5357L16.6888 9.12078C16.4732 8.70382 16.0325 8.44043 15.5504 8.44043H14.9999C14.6987 8.44043 14.4545 8.67659 14.4545 8.9679C14.4545 9.25922 14.6987 9.49537 14.9999 9.49537H15.5504C15.6193 9.49537 15.6823 9.533 15.7131 9.59257L16.6628 11.4294H7.3372L8.28693 9.59257ZM7.09101 12.4844H16.909V19.5174C16.909 19.6145 16.8276 19.6932 16.7272 19.6932H7.27282C7.17241 19.6932 7.09101 19.6145 7.09101 19.5174V12.4844ZM10 14.6492C9.6988 14.6492 9.4546 14.8854 9.4546 15.1767C9.4546 15.468 9.6988 15.7042 10 15.7042H14C14.3012 15.7042 14.5454 15.468 14.5454 15.1767C14.5454 14.8854 14.3012 14.6492 14 14.6492H10Z" fill="#2E3A59"/>
</svg>
