<svg width="24" height="24" viewBox="0 0 24 24" fill="none" xmlns="http://www.w3.org/2000/svg">
<path d="M12.0438 5.449C11.5211 5.463 11.2598 5.64033 11.2598 5.981C11.2598 6.303 11.5164 6.52933 12.0298 6.66L12.0368 6.667C12.0414 6.667 12.0461 6.667 12.0508 6.667C12.0648 6.67167 12.0764 6.66933 12.0858 6.66C12.0951 6.646 12.0998 6.632 12.0998 6.618V5.512C12.0998 5.47 12.0811 5.449 12.0438 5.449ZM12.1208 8.844C12.6201 8.81133 12.8698 8.60833 12.8698 8.235C12.8698 8.06233 12.8138 7.92 12.7018 7.808C12.5898 7.696 12.3938 7.60033 12.1138 7.521C12.0764 7.51167 12.0578 7.52567 12.0578 7.563V8.788C12.0578 8.82533 12.0788 8.844 12.1208 8.844ZM11.3648 7.276C10.6834 6.982 10.3428 6.55033 10.3428 5.981C10.3428 5.589 10.4851 5.27867 10.7698 5.05C11.0591 4.82133 11.4838 4.70467 12.0438 4.7C12.0811 4.7 12.0998 4.679 12.0998 4.637V4.35C12.0998 4.252 12.1324 4.17033 12.1978 4.105C12.2678 4.035 12.3518 4 12.4498 4C12.5478 4 12.6294 4.035 12.6948 4.105C12.7648 4.17033 12.7998 4.252 12.7998 4.35V4.686C12.7998 4.71867 12.8184 4.73967 12.8558 4.749C12.9864 4.763 13.1148 4.784 13.2408 4.812C13.3574 4.83533 13.4508 4.89367 13.5208 4.987C13.5954 5.08033 13.6328 5.18767 13.6328 5.309V5.33C13.6328 5.428 13.5931 5.505 13.5138 5.561C13.4391 5.61233 13.3528 5.62633 13.2548 5.603C13.1194 5.56567 12.9864 5.53767 12.8558 5.519C12.8184 5.50967 12.7998 5.526 12.7998 5.568V6.835C12.7904 6.87233 12.8044 6.90033 12.8418 6.919C13.1918 7.06833 13.4391 7.24567 13.5838 7.451C13.7331 7.65633 13.8078 7.913 13.8078 8.221C13.8078 8.64567 13.6631 8.977 13.3738 9.215C13.0891 9.44833 12.6668 9.57433 12.1068 9.593C12.0741 9.593 12.0578 9.614 12.0578 9.656V9.95C12.0578 10.048 12.0228 10.1297 11.9528 10.195C11.8874 10.265 11.8058 10.3 11.7078 10.3C11.6098 10.3 11.5258 10.265 11.4558 10.195C11.3904 10.1297 11.3578 10.048 11.3578 9.95V9.621C11.3578 9.58367 11.3344 9.56033 11.2878 9.551C11.1524 9.53233 11.0031 9.49967 10.8398 9.453C10.7278 9.42033 10.6368 9.355 10.5668 9.257C10.5014 9.15433 10.4688 9.04233 10.4688 8.921V8.865C10.4688 8.77633 10.5061 8.70633 10.5808 8.655C10.6601 8.60367 10.7418 8.59667 10.8258 8.634C10.9844 8.69933 11.1408 8.74833 11.2948 8.781C11.3088 8.78567 11.3228 8.78333 11.3368 8.774C11.3508 8.76 11.3578 8.746 11.3578 8.732V7.5C11.3578 7.43933 11.3671 7.39033 11.3858 7.353C11.4044 7.31567 11.3974 7.29 11.3648 7.276Z" fill="#2E3A59"/>
<path fill-rule="evenodd" clip-rule="evenodd" d="M8.28693 9.14323C8.31773 9.08366 8.38068 9.04603 8.44955 9.04603H9.00006C9.3013 9.04603 9.5455 8.80988 9.5455 8.51856C9.5455 8.22725 9.3013 7.99109 9.00006 7.99109H8.44955C7.96749 7.99109 7.5268 8.25448 7.31121 8.67144L6.06261 11.0864C6.04149 11.1252 6.02522 11.1668 6.01458 11.2106C6.00387 11.2543 5.99917 11.2985 6.00012 11.3424V19.068C6.00012 19.7477 6.56993 20.2988 7.27282 20.2988H16.7272C17.4301 20.2988 17.9999 19.7477 17.9999 19.068V11.3424C18.0008 11.2986 17.9961 11.2543 17.9854 11.2106C17.9748 11.1668 17.9585 11.1252 17.9374 11.0864L16.6888 8.67144C16.4732 8.25448 16.0325 7.99109 15.5504 7.99109H14.9999C14.6987 7.99109 14.4545 8.22725 14.4545 8.51856C14.4545 8.80988 14.6987 9.04603 14.9999 9.04603H15.5504C15.6193 9.04603 15.6823 9.08366 15.7131 9.14323L16.6628 10.9801H7.3372L8.28693 9.14323ZM7.09101 12.035H16.909V19.068C16.909 19.1651 16.8276 19.2438 16.7272 19.2438H7.27282C7.17241 19.2438 7.09101 19.1651 7.09101 19.068V12.035ZM10 14.1999C9.6988 14.1999 9.4546 14.436 9.4546 14.7274C9.4546 15.0187 9.6988 15.2548 10 15.2548H14C14.3012 15.2548 14.5454 15.0187 14.5454 14.7274C14.5454 14.436 14.3012 14.1999 14 14.1999H10Z" fill="#2E3A59"/>
</svg>
