<svg width="16" height="16" viewBox="0 0 16 16" fill="none" xmlns="http://www.w3.org/2000/svg">
<path fill-rule="evenodd" clip-rule="evenodd" d="M3.25 3H11.25V5.7672C11.3335 5.76707 11.4192 5.78828 11.5 5.83494L12.25 6.26795V3C12.25 2.44772 11.8023 2 11.25 2H3.25C2.69772 2 2.25 2.44772 2.25 3V13C2.25 13.5523 2.69772 14 3.25 14H11.25C11.8023 14 12.25 13.5523 12.25 13V9.73205L11.5 10.1651C11.4192 10.2117 11.3335 10.2329 11.25 10.2328V13H3.25V3Z" fill="#D9667B"/>
<path d="M13.5 7.56687L13.75 7.13386L13.75 7.13386L13.5 7.56687ZM13.5 8.4329L13.25 7.99989L13.5 8.4329ZM10.5 5.83482L10.25 6.26784V6.26784L10.5 5.83482ZM9.75 6.99989V7.49989H10.25V6.99989H9.75ZM6.75 6.99989V6.49989H6.25V6.99989H6.75ZM6.75 8.99989H6.25V9.49989H6.75V8.99989ZM9.75 8.99989H10.25V8.49989H9.75V8.99989ZM10.5 10.1649L10.25 9.73194L10.5 10.1649ZM13.25 7.99989V7.99989L13.75 8.86591C14.4167 8.48101 14.4167 7.51876 13.75 7.13386L13.25 7.99989ZM10.25 6.26784L13.25 7.99989L13.75 7.13386L10.75 5.40181L10.25 6.26784ZM10.25 6.26784V6.26784L10.75 5.40181C10.0833 5.01691 9.25 5.49804 9.25 6.26784H10.25ZM10.25 6.99989V6.26784H9.25V6.99989H10.25ZM6.75 7.49989H9.75V6.49989H6.75V7.49989ZM7.25 8.99989V6.99989H6.25V8.99989H7.25ZM9.75 8.49989H6.75V9.49989H9.75V8.49989ZM10.25 9.73194V8.99989H9.25V9.73194H10.25ZM10.25 9.73194V9.73194H9.25C9.25 10.5017 10.0833 10.9829 10.75 10.598L10.25 9.73194ZM13.25 7.99989L10.25 9.73194L10.75 10.598L13.75 8.86591L13.25 7.99989Z" fill="#D9667B"/>
<rect x="2.75" y="2.5" width="4" height="11" rx="0.5" stroke="#D9667B"/>
</svg>
