<svg width="16" height="16" viewBox="0 0 16 16" fill="none" xmlns="http://www.w3.org/2000/svg">
<rect x="3.5" y="4" width="9" height="10" rx="0.5" stroke="#D9667B"/>
<rect x="6" y="1.5" width="4" height="4" rx="1" fill="#D9667B"/>
<rect x="5.5" y="6.5" width="1" height="1" fill="#D9667B"/>
<rect x="5.5" y="8.5" width="1" height="1" fill="#D9667B"/>
<rect x="7.5" y="6.5" width="1" height="1" fill="#D9667B"/>
<rect x="7.5" y="8.5" width="1" height="1" fill="#D9667B"/>
<rect x="9.5" y="6.5" width="1" height="1" fill="#D9667B"/>
<rect x="9.5" y="8.5" width="1" height="1" fill="#D9667B"/>
<path d="M7.405 4.5C7.359 4.5 7.319 4.483 7.285 4.449C7.253 4.415 7.237 4.375 7.237 4.329V2.481C7.237 2.435 7.253 2.395 7.285 2.361C7.319 2.327 7.359 2.31 7.405 2.31H7.486C7.532 2.31 7.572 2.327 7.606 2.361C7.64 2.395 7.657 2.435 7.657 2.481V3.162C7.657 3.178 7.665 3.186 7.681 3.186H8.431C8.447 3.186 8.455 3.178 8.455 3.162V2.481C8.455 2.435 8.472 2.395 8.506 2.361C8.54 2.327 8.58 2.31 8.626 2.31H8.707C8.753 2.31 8.792 2.327 8.824 2.361C8.858 2.395 8.875 2.435 8.875 2.481V4.329C8.875 4.375 8.858 4.415 8.824 4.449C8.792 4.483 8.753 4.5 8.707 4.5H8.626C8.58 4.5 8.54 4.483 8.506 4.449C8.472 4.415 8.455 4.375 8.455 4.329V3.534C8.455 3.516 8.447 3.507 8.431 3.507H7.681C7.665 3.507 7.657 3.516 7.657 3.534V4.329C7.657 4.375 7.64 4.415 7.606 4.449C7.572 4.483 7.532 4.5 7.486 4.5H7.405Z" fill="white"/>
<rect x="7" y="10.5" width="2" height="4" rx="0.5" fill="#D9667B"/>
</svg>
