<svg width="16" height="16" viewBox="0 0 16 16" fill="none" xmlns="http://www.w3.org/2000/svg">
<path fill-rule="evenodd" clip-rule="evenodd" d="M3.79513 11.4366C3.64974 11.4364 3.50377 11.4033 3.37045 11.3337C2.94788 11.1133 2.81243 10.6104 3.06791 10.2106L4.87107 7.38853C5.12654 6.98869 5.67621 6.84326 6.09878 7.06371C6.15194 7.09145 6.20056 7.12365 6.24443 7.15956C6.29731 7.16281 6.35046 7.17171 6.40292 7.18667C6.90684 7.33029 7.43596 7.4068 7.98161 7.4068C8.5969 7.4068 9.19117 7.30952 9.75199 7.12842L9.76652 7.12389C9.80877 7.08992 9.85536 7.05936 9.9061 7.03289C10.3272 6.81318 10.8751 6.95812 11.1297 7.35661L12.9325 10.1782C13.1871 10.5767 13.0521 11.0778 12.631 11.2975C12.536 11.3471 12.4345 11.3781 12.3314 11.3918C11.9775 11.4389 11.6046 11.2824 11.4074 10.9738L11.2517 10.7301L11.438 11.7178L11.8852 13.8833C11.9822 14.3533 11.6906 14.8631 11.2338 15.0219C10.7769 15.1807 10.3279 14.9284 10.2308 14.4584L10.2244 14.4272C10.021 13.4425 9.23726 12.6463 8.22318 12.6266C8.16494 12.6255 8.10622 12.6249 8.04712 12.6249C7.94602 12.6249 7.848 12.6266 7.75316 12.6298C6.81888 12.6614 6.13212 13.4089 5.94467 14.3166L5.93972 14.3405C5.84193 14.8141 5.38957 15.0682 4.92936 14.9082C4.46915 14.7482 4.17535 14.2347 4.27314 13.7612L4.95778 10.446L4.59816 11.0089C4.42328 11.2826 4.11057 11.4371 3.79513 11.4366ZM3.60498 12.3573C3.37503 12.3341 3.14697 12.2683 2.93323 12.1568C2.0258 11.6834 1.72628 10.5715 2.2749 9.71291L4.07806 6.89086C4.59532 6.08132 5.68043 5.79423 6.53599 6.24056C6.55821 6.25216 6.58014 6.26418 6.60177 6.27662C6.622 6.28158 6.6422 6.28693 6.66235 6.29268C7.0832 6.41263 7.52503 6.47657 7.98161 6.47657C8.45489 6.47657 8.91253 6.40786 9.3475 6.27913C9.3869 6.25454 9.42738 6.23139 9.46889 6.20974C10.323 5.76415 11.4063 6.05075 11.9227 6.85894L13.7255 9.68052C14.2733 10.5378 13.9742 11.648 13.0682 12.1207C12.892 12.2126 12.706 12.2734 12.5173 12.3048L12.8047 13.6967C12.9959 14.6225 12.4442 15.5869 11.5445 15.8997C10.5509 16.2451 9.5224 15.6672 9.31128 14.6449L9.30485 14.6138C9.30485 14.6138 9.30485 14.6138 9.30485 14.6138C9.16925 13.9572 8.68653 13.566 8.20481 13.5567C8.15253 13.5557 8.09994 13.5551 8.04712 13.5551C7.95677 13.5551 7.86942 13.5567 7.78517 13.5595C7.39957 13.5726 6.99012 13.8935 6.86423 14.5031L6.85928 14.5271C6.64744 15.5528 5.61559 16.1326 4.61866 15.786C3.71552 15.472 3.16166 14.5039 3.35358 13.5746L3.60498 12.3573Z" fill="#D9667B"/>
<path fill-rule="evenodd" clip-rule="evenodd" d="M8 5.08811C9.15323 5.08811 10.0881 4.15323 10.0881 3C10.0881 1.84677 9.15323 0.911892 8 0.911892C6.84677 0.911892 5.91189 1.84677 5.91189 3C5.91189 4.15323 6.84677 5.08811 8 5.08811ZM8 6C9.65685 6 11 4.65685 11 3C11 1.34315 9.65685 0 8 0C6.34315 0 5 1.34315 5 3C5 4.65685 6.34315 6 8 6Z" fill="#D9667B"/>
</svg>
