<svg width="16" height="17" viewBox="0 0 16 17" fill="none" xmlns="http://www.w3.org/2000/svg">
<path fill-rule="evenodd" clip-rule="evenodd" d="M3.79513 11.9366C3.64974 11.9364 3.50377 11.9032 3.37045 11.8337C2.94788 11.6133 2.81243 11.1104 3.06791 10.7106L4.87107 7.88853C5.12654 7.48869 5.67621 7.34326 6.09878 7.56371C6.15194 7.59145 6.20056 7.62365 6.24443 7.65956C6.29731 7.66281 6.35046 7.67171 6.40292 7.68667C6.90684 7.83029 7.43596 7.9068 7.98161 7.9068C8.5969 7.9068 9.19117 7.80952 9.75199 7.62842L9.76652 7.62389C9.80877 7.58992 9.85536 7.55936 9.9061 7.53289C10.3272 7.31318 10.8751 7.45812 11.1297 7.85661L12.9325 10.6782C13.1871 11.0767 13.0521 11.5778 12.631 11.7975C12.536 11.8471 12.4345 11.8781 12.3314 11.8918C11.9775 11.9389 11.6046 11.7824 11.4074 11.4738L11.2517 11.2301L11.4379 12.2178L11.8852 14.3833C11.9822 14.8533 11.6906 15.3631 11.2338 15.5219C10.7769 15.6807 10.3279 15.4284 10.2308 14.9584L10.2244 14.9272C10.021 13.9425 9.23726 13.1463 8.22318 13.1266C8.16494 13.1255 8.10622 13.1249 8.04712 13.1249C7.94602 13.1249 7.848 13.1266 7.75316 13.1298C6.81888 13.1614 6.13212 13.9089 5.94467 14.8166L5.93972 14.8405C5.84193 15.3141 5.38957 15.5682 4.92936 15.4082C4.46915 15.2482 4.17535 14.7347 4.27314 14.2612L4.95778 10.946L4.59816 11.5089C4.42328 11.7826 4.11057 11.9371 3.79513 11.9366ZM3.60498 12.8573C3.37503 12.8341 3.14697 12.7683 2.93323 12.6568C2.0258 12.1834 1.72628 11.0715 2.2749 10.2129L4.07806 7.39086C4.59532 6.58132 5.68043 6.29423 6.53599 6.74056C6.55821 6.75216 6.58014 6.76418 6.60177 6.77662C6.622 6.78158 6.6422 6.78693 6.66235 6.79268C7.0832 6.91263 7.52503 6.97657 7.98161 6.97657C8.45489 6.97657 8.91253 6.90786 9.3475 6.77913C9.3869 6.75454 9.42738 6.73139 9.46889 6.70974C10.323 6.26415 11.4063 6.55075 11.9227 7.35894L13.7255 10.1805C14.2733 11.0378 13.9742 12.148 13.0682 12.6207C12.892 12.7126 12.706 12.7734 12.5173 12.8048L12.8047 14.1967C12.9959 15.1225 12.4442 16.0869 11.5445 16.3997C10.5509 16.7451 9.5224 16.1672 9.31128 15.1449L9.30485 15.1138C9.30485 15.1138 9.30485 15.1138 9.30485 15.1138C9.16925 14.4572 8.68653 14.066 8.20481 14.0567C8.15253 14.0557 8.09994 14.0551 8.04712 14.0551C7.95677 14.0551 7.86942 14.0567 7.78517 14.0595C7.39957 14.0726 6.99012 14.3935 6.86423 15.0031L6.85928 15.0271C6.64744 16.0528 5.61559 16.6326 4.61866 16.286C3.71552 15.972 3.16166 15.0039 3.35358 14.0746L3.60498 12.8573Z" fill="#2962AE"/>
<path fill-rule="evenodd" clip-rule="evenodd" d="M8 5.58811C9.15323 5.58811 10.0881 4.65323 10.0881 3.5C10.0881 2.34677 9.15323 1.41189 8 1.41189C6.84677 1.41189 5.91189 2.34677 5.91189 3.5C5.91189 4.65323 6.84677 5.58811 8 5.58811ZM8 6.5C9.65685 6.5 11 5.15685 11 3.5C11 1.84315 9.65685 0.5 8 0.5C6.34315 0.5 5 1.84315 5 3.5C5 5.15685 6.34315 6.5 8 6.5Z" fill="#2962AE"/>
</svg>
