<svg width="24" height="24" viewBox="0 0 24 24" fill="none" xmlns="http://www.w3.org/2000/svg">
<path fill-rule="evenodd" clip-rule="evenodd" d="M6.92062 6.78974C6.34813 6.78974 5.88404 7.2575 5.88404 7.83452C5.88404 8.41153 6.34813 8.87929 6.92062 8.87929C7.49311 8.87929 7.95721 8.41153 7.95721 7.83452C7.95721 7.2575 7.49311 6.78974 6.92062 6.78974ZM4.64014 7.83452C4.64014 6.56509 5.66115 5.53601 6.92062 5.53601C8.1801 5.53601 9.20111 6.56509 9.20111 7.83452C9.20111 9.10395 8.1801 10.133 6.92062 10.133C5.66115 10.133 4.64014 9.10395 4.64014 7.83452ZM15.9873 10.3464H12.4098C11.8074 9.91457 11.0539 9.71512 10.3273 9.71512C9.5874 9.71512 8.8196 9.92195 8.2118 10.3704L7.52617 10.8762L8.2118 11.382L10.8864 13.3553L11.0505 13.4763H11.2538L11.8711 13.4763L11.8959 13.4763H18.5304H19.1523V12.8494C19.1523 12.0832 18.73 11.4427 18.1529 11.0169C17.5753 10.5908 16.8076 10.3464 15.9873 10.3464ZM11.4571 12.2226L9.82175 11.0161C9.98459 10.985 10.1544 10.9688 10.3273 10.9688C10.8528 10.9688 11.3504 11.1182 11.7081 11.382L11.8396 11.4791L12.0037 11.6001H12.207L15.9873 11.6001C16.5715 11.6001 17.0753 11.7757 17.4182 12.0286C17.5026 12.0909 17.5752 12.1559 17.6367 12.2226H11.8966L11.8718 12.2226H11.4571ZM6.17673 17.2104H18.1157V15.4561H10.9627C10.4919 15.4561 10.0352 15.2947 9.66759 14.9983L6.17673 12.5243V12.9404V14.0949V17.2104ZM4.93283 11.5213V12.9404V14.0949V17.6283C4.93283 18.0899 5.30411 18.4641 5.7621 18.4641H18.5304C18.9884 18.4641 19.3596 18.0899 19.3596 17.6283V15.0382C19.3596 14.5766 18.9884 14.2024 18.5304 14.2024H10.9627C10.7744 14.2024 10.5917 14.1378 10.4446 14.0193L6.17673 10.9187L6.03608 10.8053L5.48701 10.3704C5.37842 10.2828 4.93283 10.133 4.93283 10.6629V11.3398V11.5213Z" fill="#D9667B"/>
</svg>
