<svg width="24" height="24" viewBox="0 0 24 24" fill="none" xmlns="http://www.w3.org/2000/svg">
<path d="M14.0709 16.3953C14.2112 16.3632 14.349 16.3131 14.4809 16.2443C15.3253 15.8038 15.6053 14.7666 15.0941 13.9667L13.5166 11.4978C13.0367 10.7466 12.032 10.4812 11.239 10.8949C11.2046 10.9129 11.1709 10.932 11.1379 10.9522C10.7702 11.0597 10.3837 11.1171 9.98391 11.1171C9.59381 11.1171 9.21642 11.0624 8.85697 10.96C8.84271 10.9559 8.82842 10.9521 8.81412 10.9484C8.798 10.9393 8.78171 10.9305 8.76524 10.9219C7.97101 10.5075 6.96475 10.7734 6.48404 11.5257L4.90627 13.995C4.39437 14.7962 4.67471 15.8348 5.52033 16.2759C5.68492 16.3618 5.8586 16.4184 6.03471 16.4476L5.83645 17.4076C5.65825 18.2705 6.17141 19.1663 7.00849 19.4573C7.93704 19.7801 8.90205 19.239 9.09981 18.2815L9.10414 18.2605C9.20707 17.7621 9.53386 17.5241 9.8154 17.5146C9.888 17.5121 9.96331 17.5108 10.0412 17.5108C10.0868 17.5108 10.1322 17.5112 10.1773 17.5121C10.5442 17.5192 10.9329 17.8204 11.0438 18.3573L11.0494 18.3846C11.2466 19.3391 12.2087 19.8785 13.1342 19.5567C13.9684 19.2668 14.4796 18.3743 14.3021 17.5145L14.0709 16.3953ZM9.98391 12.131C10.5329 12.131 11.0633 12.0442 11.5637 11.8826L11.5755 11.8789L11.5936 11.8733L11.6084 11.8614C11.6402 11.8358 11.6754 11.8127 11.7141 11.7925C12.037 11.624 12.4595 11.7362 12.6542 12.0409L14.2317 14.5098C14.4226 14.8086 14.3228 15.1814 14.0059 15.3467C13.9335 15.3845 13.8559 15.4082 13.7768 15.4188C13.5028 15.4552 13.2159 15.3332 13.0658 15.0983L12.9295 14.885L12.747 14.9574L12.9099 15.8217L12.9099 15.8217L12.9103 15.8234L13.3016 17.7181C13.3763 18.0797 13.1496 18.4771 12.7967 18.5998C12.4532 18.7192 12.1225 18.5322 12.0499 18.1809L12.0443 18.1537C11.8589 17.2561 11.1406 16.5167 10.1972 16.4984C10.1456 16.4974 10.0936 16.4968 10.0412 16.4968C9.95163 16.4968 9.86474 16.4984 9.78064 16.5012C8.90527 16.5308 8.27441 17.23 8.10365 18.0568L8.09932 18.0778C8.02615 18.4321 7.69249 18.6207 7.34603 18.5003C6.99018 18.3766 6.76163 17.9759 6.83693 17.6113L7.43599 14.7106L7.25379 14.6365L6.93912 15.129C6.80607 15.3372 6.56573 15.4574 6.32088 15.4571C6.20873 15.4569 6.09696 15.4314 5.99539 15.3784C5.67725 15.2124 5.577 14.8381 5.76869 14.5381L7.34645 12.0689C7.54189 11.763 7.96606 11.6504 8.29018 11.8195C8.3307 11.8406 8.36751 11.865 8.40054 11.892L8.42552 11.9125L8.45775 11.9145C8.49694 11.9169 8.53631 11.9235 8.57515 11.9346C9.02486 12.0627 9.49707 12.131 9.98391 12.131Z" fill="#D9667B" stroke="#D9667B" stroke-width="0.2"/>
<path d="M11.6401 7.5C11.6401 8.4058 10.9058 9.14009 10 9.14009C9.0942 9.14009 8.35991 8.4058 8.35991 7.5C8.35991 6.5942 9.0942 5.85991 10 5.85991C10.9058 5.85991 11.6401 6.5942 11.6401 7.5ZM10 10.1C11.4359 10.1 12.6 8.93594 12.6 7.5C12.6 6.06406 11.4359 4.9 10 4.9C8.56406 4.9 7.4 6.06406 7.4 7.5C7.4 8.93594 8.56406 10.1 10 10.1Z" fill="#D9667B" stroke="#D9667B" stroke-width="0.2"/>
<rect x="16.9" y="6.9" width="1.2" height="5.2" rx="0.6" fill="#D9667B" stroke="#D9667B" stroke-width="0.2"/>
<rect x="20.1" y="8.9" width="1.2" height="5.2" rx="0.6" transform="rotate(90 20.1 8.9)" fill="#D9667B" stroke="#D9667B" stroke-width="0.2"/>
</svg>
