<svg width="24" height="24" viewBox="0 0 24 24" fill="none" xmlns="http://www.w3.org/2000/svg">
<path fill-rule="evenodd" clip-rule="evenodd" d="M4.5 17.5C4.5 18.3284 5.1467 19 5.94444 19H14.8542C14.3925 18.5925 14.0256 18.08 13.7908 17.5H5.94444V10H16.0556V12.2688C16.5036 12.0952 16.9907 12 17.5 12V7C17.5 6.17157 16.8533 5.5 16.0556 5.5H14.6111V4.75C14.6111 4.33579 14.2878 4 13.8889 4C13.49 4 13.1667 4.33579 13.1667 4.75V5.5H8.83333V4.75C8.83333 4.33579 8.50998 4 8.11111 4C7.71224 4 7.38889 4.33579 7.38889 4.75V5.5H5.94444C5.1467 5.5 4.5 6.17157 4.5 7V17.5ZM5.94444 8.5V7H16.0556V8.5H5.94444ZM8.11111 14.5C7.71224 14.5 7.38889 14.8358 7.38889 15.25C7.38889 15.6642 7.71224 16 8.11111 16C8.50998 16 8.83333 15.6642 8.83333 15.25C8.83333 14.8358 8.50998 14.5 8.11111 14.5ZM7.38889 12.25C7.38889 11.8358 7.71224 11.5 8.11111 11.5C8.50998 11.5 8.83333 11.8358 8.83333 12.25C8.83333 12.6642 8.50998 13 8.11111 13C7.71224 13 7.38889 12.6642 7.38889 12.25ZM11 14.5C10.6011 14.5 10.2778 14.8358 10.2778 15.25C10.2778 15.6642 10.6011 16 11 16C11.3989 16 11.7222 15.6642 11.7222 15.25C11.7222 14.8358 11.3989 14.5 11 14.5ZM10.2778 12.25C10.2778 11.8358 10.6011 11.5 11 11.5C11.3989 11.5 11.7222 11.8358 11.7222 12.25C11.7222 12.6642 11.3989 13 11 13C10.6011 13 10.2778 12.6642 10.2778 12.25ZM13.8889 11.5C13.49 11.5 13.1667 11.8358 13.1667 12.25C13.1667 12.6642 13.49 13 13.8889 13C14.2878 13 14.6111 12.6642 14.6111 12.25C14.6111 11.8358 14.2878 11.5 13.8889 11.5Z" fill="#D9667B"/>
<circle cx="17.5" cy="16" r="3.4" stroke="#D9667B" stroke-width="1.2"/>
<path d="M19.4001 14.8255C19.5822 14.5815 19.5084 14.2519 19.2353 14.0892C18.9623 13.9266 18.5933 13.9925 18.4113 14.2365L17.0314 16.0857L16.5887 15.4924C16.4067 15.2484 16.0377 15.1825 15.7647 15.3452C15.4916 15.5078 15.4178 15.8375 15.5999 16.0814L16.537 17.3374L17.0314 18L17.5259 17.3374L19.4001 14.8255Z" fill="#D9667B"/>
</svg>
