<svg width="36" height="36" viewBox="0 0 36 36" fill="none" xmlns="http://www.w3.org/2000/svg">
<path d="M6.00488 9.97488C6.00488 9.3371 6.24888 8.7236 6.68696 8.25074C6.72002 8.21506 6.75417 8.18018 6.78942 8.14615C7.29175 7.66115 7.97305 7.38867 8.68345 7.38867C9.39386 7.38867 10.0752 7.66115 10.5775 8.14615C10.6127 8.18018 10.6469 8.21506 10.6799 8.25074C11.3018 8.92192 11.65 10.9854 11.65 10.9854C12.9014 14.2852 15.0566 15.6066 18.5049 15.6066C22.4498 15.6066 24.9704 12.9921 25.6477 9.97488C25.6477 9.3371 25.8917 8.7236 26.3298 8.25074C26.3629 8.21506 26.397 8.18018 26.4323 8.14615C26.9346 7.66115 27.6159 7.38867 28.3263 7.38867C29.0367 7.38867 29.718 7.66115 30.2204 8.14615C30.2556 8.18018 30.2898 8.21506 30.3228 8.25074C30.7609 8.72361 31.0049 9.3371 31.0049 9.97488C31.0049 14.3296 28.6161 18.1457 25.0347 20.2682L27.8016 30.9384C28.2248 32.5705 27.2506 34.2584 25.6256 34.7083C24.0006 35.1582 22.3403 34.1999 21.917 32.5677L20.865 28.5107C20.2313 28.3228 19.3038 28.1301 18.2896 28.1301C16.8833 28.1301 15.9211 28.5007 15.561 28.7152L14.6334 32.2927C14.1996 33.9657 12.4976 34.948 10.8319 34.4869C9.16629 34.0257 8.16769 32.2956 8.60151 30.6226L11.3833 19.8949C8.13293 17.7155 6.00488 14.0851 6.00488 9.97488Z" fill="#FFE6BE"/>
<path fill-rule="evenodd" clip-rule="evenodd" d="M22.0049 6.5C22.0049 9.53757 19.5424 12 16.5049 12C13.4673 12 11.0049 9.53757 11.0049 6.5C11.0049 3.46243 13.4673 1 16.5049 1C19.5424 1 22.0049 3.46243 22.0049 6.5ZM20.5049 6.5C20.5049 8.70914 18.714 10.5 16.5049 10.5C14.2957 10.5 12.5049 8.70914 12.5049 6.5C12.5049 4.29086 14.2957 2.5 16.5049 2.5C18.714 2.5 20.5049 4.29086 20.5049 6.5Z" fill="#EBB558"/>
<path fill-rule="evenodd" clip-rule="evenodd" d="M4.78942 6.14615C4.75418 6.18018 4.72002 6.21506 4.68696 6.25074C4.24888 6.7236 4.00488 7.3371 4.00488 7.97488C4.00488 11.0857 5.22387 13.9216 7.2258 16.0617C8.38673 17.3027 9.09769 18.9962 8.67114 20.6412L6.60151 28.6226C6.16769 30.2956 7.16629 32.0257 8.83194 32.4869C10.4976 32.948 12.1996 31.9657 12.6334 30.2927L13.1484 28.3065C13.4128 27.287 14.0799 26.3865 15.12 26.2203C15.4646 26.1653 15.856 26.1301 16.2896 26.1301C16.408 26.1301 16.5253 26.1327 16.6411 26.1376C18.0426 26.1975 19.0804 27.3411 19.4325 28.699L19.917 30.5677C20.3403 32.1999 22.0006 33.1582 23.6256 32.7083C25.2506 32.2584 26.2248 30.5705 25.8016 28.9384L23.7897 21.1798C23.3425 19.4553 24.1427 17.6878 25.4144 16.4401C27.6349 14.2617 29.0049 11.2728 29.0049 7.97488C29.0049 7.3371 28.7609 6.7236 28.3228 6.25074C28.2898 6.21506 28.2556 6.18018 28.2204 6.14615C27.718 5.66115 27.0367 5.38867 26.3263 5.38867C25.6159 5.38867 24.9346 5.66115 24.4323 6.14615C24.397 6.18018 24.3629 6.21506 24.3298 6.25074C23.994 6.61323 23.7722 7.05836 23.687 7.53372C23.6685 7.63704 23.6545 7.74127 23.6406 7.84546C23.6155 8.03384 23.5903 8.22208 23.538 8.40451C22.7262 11.2361 20.2612 13.6066 16.5049 13.6066C13.1865 13.6066 11.0657 12.3829 9.79534 9.34993C9.69469 9.1096 9.62924 8.85654 9.57525 8.60164C9.44188 7.97199 9.13376 6.74058 8.67995 6.25074C8.64689 6.21506 8.61273 6.18018 8.57749 6.14615C8.07516 5.66115 7.39386 5.38867 6.68345 5.38867C5.97305 5.38867 5.29175 5.66115 4.78942 6.14615ZM26.3263 6.88867C26.6555 6.88867 26.9612 7.01544 27.1785 7.22526C27.1936 7.2399 27.2083 7.25488 27.2224 7.27015C27.4089 7.47136 27.5049 7.72276 27.5049 7.97487C27.5049 10.846 26.3145 13.4558 24.3639 15.3694C22.8614 16.8434 21.7097 19.1344 22.3377 21.5563L24.3496 29.3149C24.5673 30.1544 24.0612 31.0313 23.2253 31.2627C22.408 31.489 21.5819 31.0121 21.369 30.1912L20.8844 28.3225C20.4256 26.5531 18.9734 24.7359 16.7051 24.639C16.5688 24.6332 16.4302 24.6301 16.2896 24.6301C15.7747 24.6301 15.3042 24.6719 14.8834 24.7391C13.0185 25.037 12.0394 26.6073 11.6964 27.93L11.1814 29.9162C10.9579 30.778 10.0902 31.2788 9.23221 31.0412C8.3557 30.7986 7.8252 29.8795 8.05349 28.9991L10.1231 21.0177C10.722 18.708 9.69602 16.5066 8.32122 15.037C6.56429 13.1588 5.50488 10.6838 5.50488 7.97488C5.50488 7.72276 5.6009 7.47137 5.78732 7.27016C5.80144 7.25491 5.81611 7.23994 5.83131 7.22526C6.04862 7.01544 6.35422 6.88867 6.68345 6.88867C7.01268 6.88867 7.31829 7.01544 7.5356 7.22526C7.54737 7.23662 7.55882 7.24817 7.56994 7.25988L7.57152 7.26228C7.57872 7.2732 7.60481 7.31274 7.64458 7.39421C7.70196 7.51176 7.76373 7.6665 7.82585 7.85143C7.95037 8.22211 8.04689 8.6249 8.1078 8.91247C8.16955 9.20397 8.25805 9.56233 8.41179 9.92941C9.13712 11.6612 10.1627 13.0036 11.5911 13.8901C13.0063 14.7684 14.6682 15.1066 16.5049 15.1066C20.9975 15.1066 24.0028 12.2259 24.9799 8.81792C25.05 8.57346 25.0857 8.34509 25.1088 8.18103C25.1187 8.1106 25.126 8.05552 25.1322 8.00884C25.1433 7.92526 25.1509 7.86825 25.1634 7.79845C25.1975 7.60866 25.2871 7.42464 25.4302 7.27016C25.4443 7.25493 25.459 7.23993 25.4742 7.22526C25.6915 7.01545 25.9971 6.88867 26.3263 6.88867Z" fill="#EBB558"/>
</svg>
