<svg width="36" height="36" viewBox="0 0 36 36" fill="none" xmlns="http://www.w3.org/2000/svg">
<path d="M30 12C30 11.4477 29.5523 11 29 11L10 11C9.44772 11 9 11.4477 9 12L9 17L30 17V12Z" fill="#F3D7D7"/>
<path fill-rule="evenodd" clip-rule="evenodd" d="M11 9H8C6.89543 9 6 9.89543 6 11V28C6 29.1046 6.89543 30 8 30H28C29.1046 30 30 29.1046 30 28V11C30 9.89543 29.1046 9 28 9H25V7C25 5.89543 24.1046 5 23 5H13C11.8954 5 11 5.89543 11 7V9ZM23.5 8.5H12.5V7C12.5 6.72386 12.7239 6.5 13 6.5H23C23.2761 6.5 23.5 6.72386 23.5 7V8.5ZM28.5 14.5V11C28.5 10.7239 28.2761 10.5 28 10.5H8C7.72386 10.5 7.5 10.7239 7.5 11L7.5 14.5L28.5 14.5ZM7.5 16L7.5 28C7.5 28.2761 7.72386 28.5 8 28.5H28C28.2761 28.5 28.5 28.2761 28.5 28V16L7.5 16Z" fill="#D96666"/>
<path d="M18 18C17.4477 18 17 18.4477 17 19V21H15C14.4477 21 14 21.4477 14 22C14 22.5523 14.4477 23 15 23H17V25C17 25.5523 17.4477 26 18 26C18.5523 26 19 25.5523 19 25V23H21C21.5523 23 22 22.5523 22 22C22 21.4477 21.5523 21 21 21H19V19C19 18.4477 18.5523 18 18 18Z" fill="#D96666"/>
</svg>
