<svg width="36" height="36" viewBox="0 0 36 36" fill="none" xmlns="http://www.w3.org/2000/svg">
<path d="M29.0741 17.3068C28.5405 17.8093 28.5059 18.9025 28.1807 20.3866C27.6787 22.7899 26.9299 23.2269 26.0203 23.8824C25.1107 24.5378 23.4051 24.9748 25.1107 23.1176C25.9504 22.2033 26.0293 21.5454 25.8509 21.1238C25.6784 20.7159 25.1417 20.8364 24.8403 21.1608C23.7745 22.3078 22.2495 23.761 21.4721 24.9748C20.8817 25.8965 20.9499 27.8393 21.1181 29.1814C21.1779 29.6583 21.5926 30 22.0732 30H24.274C24.891 30 25.3902 29.4307 25.5481 28.8342C25.7632 28.0219 26.309 26.9923 27.4985 26.0672C29.8863 24.2101 30 21.8067 30 20.9328V17.9997C30 17.4474 29.4761 16.9281 29.0741 17.3068Z" fill="#FFD6C0"/>
<path d="M6.92592 17.3068C7.45954 17.8093 7.49409 18.9025 7.81929 20.3866C8.32134 22.7899 9.07005 23.2269 9.9797 23.8824C10.8893 24.5378 12.5949 24.9748 10.8893 23.1176C10.0496 22.2033 9.97071 21.5454 10.1491 21.1238C10.3216 20.7159 10.8583 20.8364 11.1597 21.1608C12.2255 22.3078 13.7505 23.761 14.5279 24.9748C15.1183 25.8965 15.0501 27.8393 14.8819 29.1814C14.8221 29.6583 14.4074 30 13.9268 30H11.726C11.109 30 10.6098 29.4307 10.4519 28.8342C10.2368 28.0219 9.69096 26.9923 8.50152 26.0672C6.11371 24.2101 6 21.8067 6 20.9328V17.9997C6 17.4474 6.52386 16.9281 6.92592 17.3068Z" fill="#FFD6C0"/>
<path d="M17 7C16.4477 7 16 7.44772 16 8V10H14C13.4477 10 13 10.4477 13 11C13 11.5523 13.4477 12 14 12H16V14C16 14.5523 16.4477 15 17 15C17.5523 15 18 14.5523 18 14V12H20C20.5523 12 21 11.5523 21 11C21 10.4477 20.5523 10 20 10H18V8C18 7.44772 17.5523 7 17 7Z" fill="#E16736"/>
<path fill-rule="evenodd" clip-rule="evenodd" d="M17 18.5C21.1421 18.5 24.5 15.1421 24.5 11C24.5 6.85786 21.1421 3.5 17 3.5C12.8579 3.5 9.5 6.85786 9.5 11C9.5 15.1421 12.8579 18.5 17 18.5ZM23 11C23 14.3137 20.3137 17 17 17C13.6863 17 11 14.3137 11 11C11 7.68629 13.6863 5 17 5C20.3137 5 23 7.68629 23 11Z" fill="#E16736"/>
<path fill-rule="evenodd" clip-rule="evenodd" d="M25.3515 18.5794C25.5025 18.6575 25.6384 18.7534 25.7584 18.8635C25.8136 18.5963 25.8604 18.3393 25.9061 18.0847L25.919 18.0128C25.9702 17.7275 26.0239 17.4278 26.085 17.153C26.204 16.6179 26.4175 15.8064 27.0457 15.2148C27.4077 14.8739 27.8974 14.6576 28.446 14.6787C28.9606 14.6985 29.3711 14.9202 29.65 15.1534C30.1823 15.5985 30.5 16.2928 30.5 16.9997V19.9328C30.5 20.9678 30.3583 23.9655 27.4194 26.2513C26.4936 26.9713 26.1307 27.7178 25.9981 28.2182C25.8539 28.763 25.5578 29.2966 25.1323 29.7129C24.7029 30.133 24.0658 30.5 23.274 30.5H21.0732C19.891 30.5 18.7902 29.6483 18.6297 28.368C18.539 27.6442 18.4713 26.7323 18.5122 25.8509C18.5502 25.0343 18.6889 23.9776 19.209 23.1657C19.6747 22.4386 20.3288 21.6895 20.9491 21.0218C21.2656 20.6811 21.5896 20.3446 21.8936 20.0291L21.9217 19.9999C22.2188 19.6916 22.494 19.406 22.7414 19.1398C23.1018 18.7519 23.6339 18.4373 24.242 18.3754C24.5613 18.3429 24.9593 18.3766 25.3515 18.5794ZM25.1449 22.793C25.4342 22.586 25.7063 22.3914 25.9583 22.1352C26.4495 21.6356 26.8641 20.902 27.1807 19.3866C27.2676 18.9902 27.3337 18.6216 27.3941 18.2848C27.4304 18.083 27.4646 17.8921 27.5 17.7138C27.5286 17.5696 27.558 17.4333 27.5899 17.3055C27.6169 17.1975 27.6457 17.0954 27.6773 16.9997C27.7735 16.7079 27.896 16.4744 28.0741 16.3068C28.4761 15.9281 29 16.4474 29 16.9997V19.9328C29 20.8067 28.8863 23.2101 26.4985 25.0672C25.309 25.9923 24.7632 27.0219 24.5481 27.8342C24.3902 28.4307 23.891 29 23.274 29H21.0732C20.5926 29 20.1779 28.6583 20.1181 28.1814C19.9499 26.8393 19.8817 24.8965 20.4721 23.9748C21.0621 23.0536 22.0826 21.9946 23.0062 21.0362C23.1097 20.9288 23.2121 20.8226 23.3124 20.7181L23.435 20.5901C23.5754 20.4431 23.7112 20.2997 23.8403 20.1608C24.1417 19.8364 24.6784 19.7159 24.8509 20.1238C24.9516 20.3619 24.9703 20.6753 24.8163 21.0677C24.7984 21.1134 24.7781 21.1602 24.7553 21.2081C24.7361 21.2485 24.7151 21.2897 24.6922 21.3316C24.6337 21.439 24.5629 21.5515 24.4785 21.6691C24.4266 21.7416 24.3695 21.8159 24.3068 21.8922C24.2587 21.9509 24.2072 22.0107 24.1524 22.0717C24.1387 22.0869 24.1248 22.1023 24.1107 22.1176C22.5022 23.869 23.9274 23.5801 24.8579 22.9918C24.8986 22.9661 24.9383 22.9398 24.9768 22.9131C24.9915 22.9029 25.006 22.8927 25.0203 22.8824C25.0622 22.8522 25.1037 22.8225 25.1449 22.793Z" fill="#E16736"/>
<path fill-rule="evenodd" clip-rule="evenodd" d="M8.24158 18.8635C8.18645 18.5963 8.13964 18.3393 8.09392 18.0847L8.081 18.0127C8.02984 17.7274 7.9761 17.4278 7.915 17.153C7.79601 16.6179 7.58251 15.8064 6.95429 15.2148C6.59228 14.8739 6.10259 14.6576 5.55397 14.6787C5.0394 14.6985 4.62891 14.9202 4.35003 15.1534C3.81768 15.5985 3.5 16.2928 3.5 16.9997V19.9328C3.5 20.9678 3.64166 23.9655 6.58063 26.2513C7.5064 26.9713 7.86934 27.7178 8.00185 28.2182C8.14613 28.763 8.44225 29.2966 8.86769 29.7129C9.29706 30.133 9.93424 30.5 10.726 30.5H12.9268C14.109 30.5 15.2098 29.6483 15.3703 28.368C15.461 27.6442 15.5287 26.7323 15.4878 25.8509C15.4498 25.0343 15.3111 23.9776 14.791 23.1657C14.3253 22.4386 13.6712 21.6895 13.0509 21.0218C12.7344 20.6811 12.4104 20.3446 12.1064 20.0291L12.0783 19.9999C11.7812 19.6916 11.506 19.4061 11.2586 19.1398C10.8982 18.7519 10.3661 18.4373 9.758 18.3754C9.43867 18.3429 9.04071 18.3766 8.6485 18.5794C8.49749 18.6575 8.36156 18.7534 8.24158 18.8635ZM9.30778 21.3316C9.28493 21.2897 9.26393 21.2485 9.2447 21.2081C9.22193 21.1602 9.20164 21.1134 9.1837 21.0677C9.02966 20.6753 9.04836 20.3619 9.14909 20.1238C9.32164 19.7159 9.85829 19.8364 10.1597 20.1608C10.2888 20.2997 10.4246 20.4431 10.565 20.5901L10.6876 20.7181C10.788 20.8226 10.8902 20.9287 10.9937 21.0361C11.9173 21.9946 12.9379 23.0536 13.5279 23.9748C14.1183 24.8965 14.0501 26.8393 13.8819 28.1814C13.8221 28.6583 13.4074 29 12.9268 29H10.726C10.109 29 9.60982 28.4307 9.45187 27.8342C9.23677 27.0219 8.69096 25.9923 7.50152 25.0672C5.11371 23.2101 5 20.8067 5 19.9328V16.9997C5 16.4474 5.52386 15.9281 5.92592 16.3068C6.10397 16.4744 6.22646 16.7079 6.32272 16.9997C6.35431 17.0954 6.38308 17.1975 6.41006 17.3055C6.44197 17.4333 6.47138 17.5696 6.5 17.7138C6.53541 17.8922 6.56961 18.0828 6.60587 18.2848C6.6663 18.6216 6.73243 18.9902 6.81929 19.3866C7.13586 20.902 7.55049 21.6356 8.04171 22.1352C8.29366 22.3914 8.56577 22.586 8.85512 22.793C8.89629 22.8225 8.93784 22.8522 8.9797 22.8824C8.994 22.8927 9.00851 22.9029 9.02319 22.9131C9.06169 22.9398 9.10143 22.9661 9.14211 22.9918C10.0726 23.5801 11.4978 23.869 9.88934 22.1176C9.87521 22.1023 9.86129 22.0869 9.84759 22.0717C9.79276 22.0107 9.74133 21.9509 9.69317 21.8922C9.63054 21.8159 9.57341 21.7416 9.52146 21.6691C9.43707 21.5515 9.36633 21.439 9.30778 21.3316Z" fill="#E16736"/>
</svg>
