<svg width="16" height="16" viewBox="0 0 16 16" fill="none" xmlns="http://www.w3.org/2000/svg">
<path d="M3.5 9.16421C3.5 9.03161 3.55268 8.90443 3.64645 8.81066L7.64645 4.81066C7.84171 4.6154 8.15829 4.6154 8.35355 4.81066L12.3536 8.81066C12.4473 8.90443 12.5 9.03161 12.5 9.16421V12.75C12.5 13.0261 12.2761 13.25 12 13.25H9.41667C9.14052 13.25 8.91667 13.0261 8.91667 12.75V11.25C8.91667 10.7437 8.50626 10.3333 8 10.3333C7.49374 10.3333 7.08333 10.7437 7.08333 11.25V12.75C7.08333 13.0261 6.85947 13.25 6.58333 13.25H4C3.72386 13.25 3.5 13.0261 3.5 12.75V9.16421Z" stroke="#D9667B"/>
<path d="M1 9.25L7.29289 2.95711C7.68342 2.56658 8.31658 2.56658 8.70711 2.95711L15 9.25" stroke="#D9667B" stroke-linecap="round"/>
<mask id="path-3-outside-1_2019_275" maskUnits="userSpaceOnUse" x="10" y="2.75" width="3" height="6" fill="black">
<rect fill="white" x="10" y="2.75" width="3" height="6"/>
<path d="M11 4.03847C11 3.87915 11.1292 3.75 11.2885 3.75H11.5C11.7761 3.75 12 3.97386 12 4.25V5.25L11.075 4.23252C11.0267 4.17942 11 4.11024 11 4.03847Z"/>
</mask>
<path d="M12 5.25L11.2601 5.92267L13 7.83661V5.25H12ZM11.2885 4.75H11.5V2.75H11.2885V4.75ZM11 4.25V5.25H13V4.25H11ZM12.7399 4.57733L11.815 3.55985L10.3351 4.9052L11.2601 5.92267L12.7399 4.57733ZM11.815 3.55985C11.934 3.69082 12 3.86147 12 4.03847H10C10 4.359 10.1195 4.66802 10.3351 4.9052L11.815 3.55985ZM11.5 4.75C11.2239 4.75 11 4.52614 11 4.25H13C13 3.42157 12.3284 2.75 11.5 2.75V4.75ZM11.2885 2.75C10.5769 2.75 10 3.32687 10 4.03847H12C12 4.43144 11.6814 4.75 11.2885 4.75V2.75Z" fill="#D9667B" mask="url(#path-3-outside-1_2019_275)"/>
</svg>
