<svg width="24" height="24" viewBox="0 0 24 24" fill="none" xmlns="http://www.w3.org/2000/svg">
<path d="M4 16.4131L4.00175 16.4152L11.505 20.6961C12.1717 21.0765 13.0006 20.5951 13.0006 19.8276L13.0006 4.00149C13.0006 3.23217 12.1682 2.75098 11.5016 3.13492L4.30925 7.27706C4.15745 7.36449 3.98535 7.4105 3.81018 7.4105H2C1.44772 7.4105 1 7.85821 1 8.4105V15.4105C1 15.9628 1.44772 16.4105 2 16.4105H3.99629L4 16.4131Z" fill="white"/>
<path d="M20.9497 6.95296C22.2625 8.26572 23 10.0462 23 11.9027C23 13.7592 22.2625 15.5397 20.9497 16.8525C19.637 18.1652 17.8565 18.9027 16 18.9027C15.4477 18.9027 15 18.455 15 17.9027C15 17.3504 15.4477 16.9027 16 16.9027C17.3261 16.9027 18.5979 16.3759 19.5355 15.4382C20.4732 14.5006 21 13.2288 21 11.9027C21 10.5766 20.4732 9.30486 19.5355 8.36718C18.5979 7.42949 17.3261 6.90271 16 6.90271C15.4477 6.90271 15 6.45499 15 5.90271C15 5.35042 15.4477 4.90271 16 4.90271C17.8565 4.90271 19.637 5.64021 20.9497 6.95296Z" fill="white"/>
<path d="M19 12.015C19 11.2194 18.6839 10.4563 18.1213 9.89369C17.5587 9.33109 16.7957 9.01501 16 9.01501C15.4477 9.01501 15 9.46273 15 10.015C15 10.5673 15.4477 11.015 16 11.015C16.2652 11.015 16.5196 11.1204 16.7071 11.3079C16.8946 11.4954 17 11.7498 17 12.015C17 12.2802 16.8946 12.5346 16.7071 12.7221C16.5196 12.9097 16.2652 13.015 16 13.015C15.4477 13.015 15 13.4627 15 14.015C15 14.5673 15.4477 15.015 16 15.015C16.7956 15.015 17.5587 14.6989 18.1213 14.1363C18.6839 13.5737 19 12.8107 19 12.015Z" fill="white"/>
</svg>
