<svg width="24" height="24" viewBox="0 0 24 24" fill="none" xmlns="http://www.w3.org/2000/svg">
<path fill-rule="evenodd" clip-rule="evenodd" d="M21.0269 20.3628H2.97411C2.62609 20.3628 2.30451 20.1895 2.1305 19.9083C1.9565 19.627 1.9565 19.2804 2.13051 18.9992L11.1569 4.45372C11.331 4.17291 11.6523 4 12 4C12.3477 4 12.669 4.17291 12.8431 4.45372L21.8695 18.9992C22.0434 19.2803 22.0435 19.6267 21.8697 19.9079C21.696 20.1891 21.3747 20.3625 21.0269 20.3628ZM11.0003 17.1819C11.0003 16.6296 11.448 16.1819 12.0003 16.1819C12.5526 16.1819 13.0003 16.6296 13.0003 17.1819C13.0003 17.7342 12.5526 18.1819 12.0003 18.1819C11.448 18.1819 11.0003 17.7342 11.0003 17.1819ZM11.0003 14.1819V10.1819C11.0003 9.62964 11.448 9.18192 12.0003 9.18192C12.5526 9.18192 13.0003 9.62964 13.0003 10.1819V14.1819C13.0003 14.7342 12.5526 15.1819 12.0003 15.1819C11.448 15.1819 11.0003 14.7342 11.0003 14.1819Z" fill="white"/>
</svg>
