<svg width="24" height="24" viewBox="0 0 24 24" fill="none" xmlns="http://www.w3.org/2000/svg">
<path d="M12 22C10.896 21.9946 10.0009 21.1039 9.99 20H13.99C13.9924 20.2673 13.9418 20.5324 13.841 20.78C13.5785 21.3819 13.0427 21.8209 12.401 21.96H12.396H12.383H12.373H12.362H12.355C12.2381 21.9842 12.1193 21.9976 12 22ZM20 17.7639C20 18.4466 19.4466 19 18.7639 19H5.23607C4.55341 19 4 18.4466 4 17.7639C4 17.2957 4.26452 16.8677 4.68328 16.6584L6 16V10.5C5.94732 9.08912 6.26594 7.68913 6.924 6.44C7.57904 5.28151 8.6987 4.45888 10 4.18V4C10 2.89543 10.8954 2 12 2C13.1046 2 14 2.89543 14 4V4.18C16.579 4.794 18 7.038 18 10.5V16L19.3167 16.6584C19.7355 16.8677 20 17.2957 20 17.7639ZM21.8765 8.96413C21.9529 9.52586 21.4965 10 20.9296 10C20.3941 10 19.9608 9.57458 19.8826 9.04488C19.6101 7.19959 18.7492 5.49162 17.4314 4.17574C17.0064 3.75133 16.9548 3.05259 17.378 2.62638C17.733 2.26886 18.3031 2.22881 18.6717 2.57236C19.5607 3.40113 20.2915 4.38834 20.825 5.486C21.3582 6.58442 21.7125 7.7586 21.8765 8.96413ZM4.08733 9.04481C4.00916 9.57454 3.57584 10 3.04037 10C2.4735 10 2.0171 9.52589 2.09351 8.96419C2.25749 7.75863 2.61174 6.58443 3.145 5.486C3.67854 4.38833 4.4093 3.4011 5.29837 2.57232C5.66689 2.22879 6.23697 2.26885 6.59196 2.62634C7.0152 3.05256 6.96358 3.75131 6.5385 4.1757C5.22055 5.49149 4.35966 7.19948 4.08733 9.04481Z" fill="white"/>
</svg>
