<svg width="11" height="13" viewBox="0 0 11 13" fill="none" xmlns="http://www.w3.org/2000/svg">
<path d="M5.5 6.5C4.95312 6.5 4.45312 6.36719 4 6.10156C3.54688 5.83594 3.17969 5.46875 2.89844 5C2.63281 4.53125 2.5 4.03125 2.5 3.5C2.5 2.96875 2.63281 2.46875 2.89844 2C3.17969 1.53125 3.54688 1.16406 4 0.898438C4.45312 0.632813 4.95312 0.5 5.5 0.5C6.04688 0.5 6.54688 0.632813 7 0.898438C7.45312 1.16406 7.82031 1.53125 8.10156 2C8.36719 2.46875 8.5 2.96875 8.5 3.5C8.5 4.03125 8.36719 4.53125 8.10156 5C7.82031 5.46875 7.45312 5.83594 7 6.10156C6.54688 6.36719 6.04688 6.5 5.5 6.5ZM4.42188 7.625H6.57812C7.75 7.65625 8.73438 8.0625 9.53125 8.84375C10.3125 9.64062 10.7188 10.625 10.75 11.7969C10.75 12 10.6797 12.1641 10.5391 12.2891C10.4141 12.4297 10.25 12.5 10.0469 12.5H0.953125C0.75 12.5 0.585938 12.4297 0.460938 12.2891C0.320312 12.1641 0.25 12 0.25 11.7969C0.28125 10.625 0.6875 9.64062 1.46875 8.84375C2.26562 8.0625 3.25 7.65625 4.42188 7.625Z" fill="#94A3B8"/>
</svg>
