<svg width="16" height="17" viewBox="0 0 16 17" fill="none" xmlns="http://www.w3.org/2000/svg">
<path fill-rule="evenodd" clip-rule="evenodd" d="M8 5.93674C9.15323 5.93674 10.0881 5.00186 10.0881 3.84863C10.0881 2.6954 9.15323 1.76052 8 1.76052C6.84677 1.76052 5.91189 2.6954 5.91189 3.84863C5.91189 5.00186 6.84677 5.93674 8 5.93674ZM8 6.84863C9.65685 6.84863 11 5.50549 11 3.84863C11 2.19178 9.65685 0.848633 8 0.848633C6.34315 0.848633 5 2.19178 5 3.84863C5 5.50549 6.34315 6.84863 8 6.84863Z" fill="#D9667B"/>
<path fill-rule="evenodd" clip-rule="evenodd" d="M3.79513 11.4422C3.64974 11.442 3.50377 11.4141 3.37045 11.3553C2.94788 11.169 2.81243 10.7442 3.06791 10.4063L4.87107 8.02185C5.12654 7.68401 5.67621 7.56114 6.09878 7.7474C6.15194 7.77084 6.20056 7.79805 6.24443 7.82839C6.29731 7.83113 6.35046 7.83866 6.40292 7.85129C6.90684 7.97265 7.43596 8.03729 7.98161 8.03729C8.5969 8.03729 9.19117 7.9551 9.75199 7.80208L9.76652 7.79825C9.80877 7.76955 9.85536 7.74373 9.9061 7.72136C10.3272 7.53572 10.8751 7.65818 11.1297 7.99488L12.9325 10.3789C13.1871 10.7156 13.0521 11.1391 12.631 11.3247C12.536 11.3666 12.4345 11.3928 12.3314 11.4044C11.9775 11.4442 11.6046 11.3119 11.4074 11.0512L11.2517 10.8453L11.438 11.6799L11.8852 13.5095C11.9822 13.9067 11.5445 14.463 11 14.4531V14.4534L5.00024 14.4533L5.00008 15.1939L5 15.1939V14.4531C4.53979 14.3179 4.17535 13.8064 4.27314 13.4063L4.95778 10.6053L4.59816 11.0808C4.42328 11.3121 4.11057 11.4426 3.79513 11.4422ZM5.00006 15.2759C4.90046 15.2637 4.79966 15.243 4.6984 15.2133C3.79526 14.948 3.16166 14.0339 3.35358 13.2487L3.60498 12.2202C3.37503 12.2005 3.14697 12.145 2.93323 12.0508C2.0258 11.6508 1.72628 10.7113 2.2749 9.98582L4.07806 7.60136C4.59532 6.91734 5.68043 6.67477 6.53599 7.05189C6.55821 7.06169 6.58014 7.07185 6.60177 7.08236C6.622 7.08655 6.6422 7.09107 6.66235 7.09593C7.0832 7.19728 7.52503 7.25131 7.98161 7.25131C8.45489 7.25131 8.91253 7.19325 9.3475 7.08448C9.3869 7.0637 9.42738 7.04414 9.46889 7.02585C10.323 6.64936 11.4063 6.89151 11.9227 7.57439L13.7255 9.95845C14.2733 10.6828 13.9742 11.6209 13.0682 12.0202C12.892 12.0979 12.706 12.1493 12.5173 12.1758L12.8047 13.3519C12.9959 14.1342 12.4442 14.949 11.5445 15.2133C11.3656 15.2658 11.1856 15.2931 11.0094 15.2974L11.0001 15.3054H5.00005L5.00006 15.2759Z" fill="#D9667B"/>
<path fill-rule="evenodd" clip-rule="evenodd" d="M4.33287 14.4468L7.79539 14.6699L7.3554 15.9597C7.15284 16.5535 6.30171 16.8701 5.44121 16.6717C4.62322 16.4831 4.07568 15.8919 4.17938 15.3092L4.33287 14.4468ZM5.18844 15.7402C5.21779 15.7841 5.25568 15.8255 5.30079 15.8628C5.38989 15.9366 5.50715 15.9945 5.64238 16.0257C5.88525 16.0817 6.1263 16.0379 6.28052 15.926C6.35094 15.8748 6.40326 15.8095 6.42937 15.733L6.58767 15.2689L5.1748 15.1779L5.1236 15.4655C5.10679 15.56 5.1316 15.655 5.18844 15.7402Z" fill="#D9667B"/>
<path fill-rule="evenodd" clip-rule="evenodd" d="M8.31006 14.793L11.6984 14.5795L11.8514 15.4333C11.9557 16.0155 11.4181 16.604 10.6124 16.7898C9.75671 16.9871 8.90994 16.6605 8.71666 16.0588L8.31006 14.793ZM9.48437 15.3932L9.62917 15.844C9.65539 15.9256 9.71075 15.995 9.7858 16.0485C9.93913 16.1577 10.1746 16.2005 10.4118 16.1458C10.5428 16.1156 10.6567 16.0596 10.7439 15.9881C10.7925 15.9483 10.8328 15.9038 10.8632 15.8562C10.917 15.7722 10.94 15.6788 10.9233 15.5858L10.8732 15.3057L9.48437 15.3932Z" fill="#D9667B"/>
</svg>
