<svg width="35" height="35" viewBox="0 0 35 35" fill="none" xmlns="http://www.w3.org/2000/svg">
<path fill-rule="evenodd" clip-rule="evenodd" d="M29.6874 23.8571H13.5208C13.2293 23.8571 12.9434 23.7757 12.6947 23.6217L3.20413 17.7455C2.67701 17.4192 2 17.8028 2 18.4278V31.4C2 32.2837 2.70835 33 3.58214 33H30.4785C31.3523 33 32.0606 32.2837 32.0606 31.4V5.4C32.0606 4.73726 31.5293 4.2 30.874 4.2C30.228 4.2 29.7026 4.72204 29.6877 5.37172L22.5678 10.1719V12.2C21.694 12.2 20.9856 12.9163 20.9856 13.8V17C20.9856 17 20.9856 17 20.9856 17C20.9857 17.8836 21.694 18.6 22.5678 18.6H24.1499C25.0237 18.6 25.732 17.8837 25.7321 17.0001C25.7321 17.0001 25.7321 17.0001 25.7321 17.0001V13.8C25.7321 12.9163 25.0237 12.2 24.1499 12.2V11.0282L29.6874 7.2949V23.8571ZM4.37321 21.2835V30.6H29.6874V26.2571H13.5208C12.7919 26.2571 12.0772 26.0534 11.4555 25.6685L4.37321 21.2835ZM9.91069 14.6C12.969 14.6 15.4482 12.0928 15.4482 9C15.4482 5.90721 12.969 3.4 9.91069 3.4C6.85242 3.4 4.37321 5.90721 4.37321 9C4.37321 12.0928 6.85242 14.6 9.91069 14.6ZM9.91069 17C14.2796 17 17.8214 13.4183 17.8214 9C17.8214 4.58172 14.2796 1 9.91069 1C5.54173 1 2 4.58172 2 9C2 13.4183 5.54173 17 9.91069 17ZM24.1499 13.8H22.5678V15.4H24.1499V13.8ZM8.85588 6.86667C8.85588 6.27756 9.32812 5.8 9.91064 5.8C10.4932 5.8 10.9654 6.27756 10.9654 6.86667V7.93376H12.0202C12.6027 7.93376 13.075 8.41132 13.075 9.00042C13.075 9.58953 12.6027 10.0671 12.0202 10.0671H10.9654V11.1333C10.9654 11.7224 10.4932 12.2 9.91064 12.2C9.32812 12.2 8.85588 11.7224 8.85588 11.1333V10.0671H7.80117C7.21864 10.0671 6.74641 9.58953 6.74641 9.00042C6.74641 8.41132 7.21864 7.93376 7.80117 7.93376H8.85588V6.86667ZM24.1499 18.6H22.5678V21.0001C22.5678 21.4419 22.922 21.8001 23.3589 21.8001C23.7957 21.8001 24.1499 21.4419 24.1499 21.0001V18.6Z" fill="#D9667B"/>
</svg>
