<svg width="36" height="35" viewBox="0 0 36 35" fill="none" xmlns="http://www.w3.org/2000/svg">
<path fill-rule="evenodd" clip-rule="evenodd" d="M7.42423 5.43129C7.42423 4.31887 8.3287 3.41707 9.44442 3.41707H16.0678C16.4432 3.41707 16.8028 3.56743 17.066 3.83437L18.2486 5.03396H13.4907C11.0361 5.03396 9.0463 7.01791 9.0463 9.46525V26.5099C8.12124 26.3255 7.42423 25.5113 7.42423 24.5347V5.43129ZM9.06252 28.9499C6.78672 28.7568 5 26.8538 5 24.5347V5.43129C5 2.98396 6.98984 1 9.44442 1H16.0678C17.0934 1 18.076 1.41077 18.7949 2.14004L22.3754 5.77204C22.5402 5.89254 22.6961 6.02678 22.8412 6.174L28.3766 11.7891L29.9989 13.4066C30.1148 13.5221 30.2092 13.6465 30.2835 13.7765C30.8633 14.5416 31.1818 15.4785 31.1818 16.4478V19.017V28.5687C31.1818 31.016 29.192 33 26.7374 33H13.4907C11.1649 33 9.25641 31.2188 9.06252 28.9499ZM13.4907 7.45103C12.375 7.45103 11.4705 8.35283 11.4705 9.46525V28.5687C11.4705 29.6811 12.375 30.5829 13.4907 30.5829H26.7374C27.8531 30.5829 28.7576 29.6811 28.7576 28.5687V19.017V16.4478C28.7576 16.3966 28.7556 16.3456 28.7518 16.2949H22.7156C21.1536 16.2949 19.8873 15.0324 19.8873 13.475V7.45103H13.4907ZM27.0366 13.8778L26.655 13.4907L22.3116 9.16016V13.475C22.3116 13.6975 22.4925 13.8778 22.7156 13.8778H27.0366ZM22.0779 21.5893L19.6256 24.3837L18.1175 22.88L17.2604 22.0255L16.4033 22.88L13.171 26.1028C12.6977 26.5747 12.6977 27.3399 13.171 27.8119C13.6444 28.2839 14.4119 28.2839 14.8852 27.8119L17.2604 25.4437L18.8276 27.0062L19.7437 27.9196L20.5969 26.9475L24.1291 22.9226V23.7346C24.1291 24.402 24.6718 24.9431 25.3412 24.9431C26.0106 24.9431 26.5533 24.402 26.5533 23.7346V19.713C26.5533 19.7087 26.5533 19.7045 26.5533 19.7003V18.232L25.1146 18.5188C25.1066 18.5204 25.0986 18.522 25.0906 18.5236L21.0631 19.3268C20.4067 19.4577 19.981 20.0943 20.1122 20.7488C20.2435 21.4033 20.8821 21.8278 21.5385 21.6969L22.0779 21.5893Z" fill="#D9667B"/>
</svg>
