<svg width="35" height="35" viewBox="0 0 35 35" fill="none" xmlns="http://www.w3.org/2000/svg">
<path fill-rule="evenodd" clip-rule="evenodd" d="M23.5197 13.8924L25.5373 15.0573C25.7977 15.2073 26.1243 15.1614 26.3224 14.9469L27.1341 14.0683C27.3258 14.0915 27.5183 14.1043 27.7107 14.1065C27.8942 14.1084 28.0774 14.1004 28.2595 14.0827L29.0967 14.9856C29.3007 15.2054 29.6288 15.2597 29.8853 15.1161L31.8731 14.0029C32.1285 13.8581 32.2437 13.5561 32.1509 13.2748L31.7646 12.1197C31.9834 11.8237 32.1679 11.5042 32.3148 11.1667L33.5083 10.9237C33.7983 10.8634 34.0023 10.6126 34 10.3191L33.9701 8.04105C33.9662 7.74709 33.7551 7.49006 33.4628 7.42333L32.2623 7.14972C32.1879 6.98511 32.1042 6.82451 32.0116 6.66868C31.913 6.50064 31.8047 6.33807 31.6874 6.18179L32.0437 5.0373C32.1308 4.75842 32.0073 4.45234 31.7471 4.30172L29.7294 3.13683C29.4688 2.98674 29.142 3.03288 28.944 3.24771L28.1335 4.12924C27.9505 4.10588 27.7665 4.09206 27.5824 4.08784C27.3895 4.08558 27.1968 4.09404 27.0054 4.11319L26.1688 3.2107C25.9648 2.9905 25.6363 2.93604 25.3796 3.07988L23.3918 4.19304C23.136 4.33775 23.0207 4.64015 23.1137 4.92165L23.5009 6.07519C23.2822 6.37114 23.0977 6.6907 22.9507 7.02813L21.7572 7.2712C21.4672 7.33142 21.2632 7.58223 21.2656 7.87574L21.2983 10.154C21.3021 10.4482 21.5135 10.7055 21.8061 10.7721L23.006 11.0453C23.1614 11.3872 23.3544 11.7119 23.5815 12.0136L23.2221 13.157C23.1354 13.436 23.2592 13.742 23.5197 13.8924ZM27.6546 12.7951C29.6427 12.7951 31.2543 11.1835 31.2543 9.19551C31.2543 7.20748 29.6427 5.59587 27.6546 5.59587C25.6666 5.59587 24.055 7.20748 24.055 9.19551C24.055 11.1835 25.6666 12.7951 27.6546 12.7951ZM30.0545 9.19551C30.0545 10.5209 28.98 11.5953 27.6547 11.5953C26.3293 11.5953 25.2549 10.5209 25.2549 9.19551C25.2549 7.87016 26.3293 6.79576 27.6547 6.79576C28.98 6.79576 30.0545 7.87016 30.0545 9.19551ZM1.18057 5.16673L3.09735 7.06397C4.20154 6.02772 5.53325 5.24533 7.00031 4.78803C9.31004 4.06807 11.8016 4.20181 14.0209 5.1649C16.2403 6.12799 18.0399 7.85633 19.0917 10.035C19.6429 11.1767 19.9695 12.4022 20.0655 13.6465H20.7943C21.2454 13.6469 21.6354 13.952 21.7315 14.3796L22.1271 16.1337C22.3967 16.2488 22.6592 16.3788 22.9135 16.5231C23.1506 16.6562 23.3798 16.802 23.6 16.96L25.3648 16.4151C25.7947 16.2825 26.2618 16.4581 26.4873 16.8371L28.2349 19.7743C28.458 20.1539 28.3811 20.6328 28.0496 20.9285L26.6813 22.1395C26.7435 22.6881 26.7435 23.2417 26.6813 23.7903L28.0496 25.0013C28.3811 25.2971 28.458 25.7759 28.2349 26.1555L26.4873 29.0928C26.2618 29.4718 25.7947 29.6473 25.3648 29.5148L23.6 28.9698C23.3767 29.1294 23.1446 29.2771 22.9048 29.4123C22.6531 29.5538 22.3934 29.6816 22.1271 29.7952L21.7315 31.5456C21.635 31.9728 21.2451 32.2774 20.7943 32.2778H17.2992C16.848 32.2778 16.4577 31.9732 16.3611 31.5456L15.9703 29.7905C15.449 29.5689 14.9546 29.2918 14.4964 28.9642L12.7325 29.5092C12.3024 29.6423 11.8347 29.4666 11.6091 29.0872L9.8577 26.1518C9.63454 25.7722 9.71142 25.2934 10.043 24.9976L10.6094 24.4963C10.0272 24.5314 9.43987 24.516 8.85362 24.4488C6.45004 24.1731 4.22548 23.0431 2.58521 21.2647C1.18736 19.7492 0.293142 17.8486 0.00932899 15.8234C-0.0725253 15.2393 0.395164 14.7439 0.984635 14.7242C1.57411 14.7045 2.06064 15.1687 2.15906 15.7503C2.41507 17.263 3.10476 18.6777 4.15524 19.8167C5.44835 21.2187 7.20211 22.1095 9.09699 22.3268C9.8696 22.4155 10.6447 22.3897 11.3987 22.2554C11.4026 22.2155 11.4068 22.1757 11.4113 22.1358L10.043 20.9276C9.71094 20.6317 9.63402 20.1523 9.8577 19.7724L11.6053 16.8352C11.8309 16.4558 12.2985 16.2801 12.7287 16.4132L14.4926 16.9582C14.7269 16.7897 14.9709 16.6342 15.2233 16.4924C15.4656 16.3598 15.7149 16.2398 15.9703 16.1328L16.3621 14.3796C16.4581 13.952 16.8481 13.6469 17.2992 13.6465H17.9216C17.831 12.7221 17.5785 11.8134 17.1683 10.9636C16.339 9.24604 14.9204 7.88349 13.1707 7.12422C11.421 6.36496 9.45681 6.25952 7.63592 6.82712C6.50478 7.17971 5.4757 7.77744 4.61666 8.56778L6.54036 10.4719C6.79315 10.7221 6.61723 11.153 6.26155 11.1548L0.929081 11.1822C0.708587 11.1833 0.528927 11.0055 0.527797 10.785L0.500473 5.45253C0.49865 5.09684 0.927774 4.91651 1.18057 5.16673ZM14.8411 26.9017L15.6285 27.4607C15.806 27.5875 15.991 27.7041 16.1825 27.81C16.3627 27.9113 16.5483 28.0033 16.7385 28.0857L17.6343 28.4667L18.0731 30.4146H20.0223L20.4611 28.4658L21.357 28.0848C21.7481 27.9175 22.1193 27.7094 22.4641 27.4644L23.2524 26.9054L25.2122 27.511L26.1868 25.8733L24.6668 24.529L24.7743 23.5863C24.8216 23.1739 24.8216 22.7578 24.7743 22.3454L24.6668 21.4027L26.1877 20.0556L25.2122 18.417L23.2524 19.0225L22.4641 18.4636C22.1192 18.2174 21.748 18.0078 21.357 17.8385L20.4611 17.4575L20.0223 15.5096H18.0731L17.6324 17.4584L16.7385 17.8385C16.5482 17.9196 16.3626 18.0107 16.1825 18.1115C15.9921 18.217 15.8081 18.333 15.6314 18.4589L14.843 19.0179L12.8842 18.4124L11.9077 20.0556L13.4277 21.398L13.3202 22.3417C13.2729 22.754 13.2729 23.1702 13.3202 23.5825L13.4277 24.5253L11.9077 25.8695L12.8823 27.5072L14.8411 26.9017ZM19.0429 26.6884C16.9217 26.6884 15.2021 25.0201 15.2021 22.9621C15.2021 20.9042 16.9217 19.2359 19.0429 19.2359C21.1641 19.2359 22.8837 20.9042 22.8837 22.9621C22.8811 25.019 21.163 26.6858 19.0429 26.6884ZM19.0429 21.099C17.9938 21.1 17.1397 21.9177 17.1247 22.9354C17.1096 23.9532 17.9392 24.7942 18.9879 24.8244C20.0365 24.8546 20.9161 24.0628 20.9633 23.046V22.9621C20.9633 21.9331 20.1035 21.099 19.0429 21.099Z" fill="#D9667B"/>
</svg>
