<svg width="35" height="35" viewBox="0 0 35 35" fill="none" xmlns="http://www.w3.org/2000/svg">
<path fill-rule="evenodd" clip-rule="evenodd" d="M23.8197 3.39797H10.2348C9.80526 3.39797 9.45703 3.75584 9.45703 4.19729V15.6273L11.6751 16.2524C13.4715 16.7588 14.9472 17.8724 15.95 19.3187C17.2049 17.6894 18.9817 16.4656 21.1011 15.9466L24.5975 15.0903V4.19729C24.5975 3.75584 24.2493 3.39797 23.8197 3.39797ZM26.9309 14.5189V4.19729C26.9309 2.43148 25.538 1 23.8197 1H10.2348C8.51656 1 7.12363 2.43147 7.12363 4.19729V14.9696L3.45108 13.9345C3.20251 13.8645 2.94575 14.0148 2.87758 14.2702L2.33473 16.3043C0.971343 21.4131 3.89607 26.6905 8.8673 28.0916L14.7038 29.7366L15.3751 32.6315C15.4348 32.8891 15.6865 33.0482 15.9372 32.9868L24.8885 30.7947C29.9029 29.5668 32.9992 24.3938 31.8043 19.2407L30.6145 14.1098C30.5548 13.8522 30.3031 13.6931 30.0524 13.7545L26.9309 14.5189ZM15.4419 7.16732C15.4419 6.34418 16.0912 5.67689 16.8922 5.67689C17.6931 5.67689 18.3424 6.34418 18.3424 7.16732V8.65839H19.7927C20.5937 8.65839 21.243 9.32568 21.243 10.1488C21.243 10.972 20.5937 11.6392 19.7927 11.6392H18.3424V13.129C18.3424 13.9522 17.6931 14.6195 16.8922 14.6195C16.0912 14.6195 15.4419 13.9522 15.4419 13.129V11.6392H13.9916C13.1906 11.6392 12.5413 10.972 12.5413 10.1488C12.5413 9.32568 13.1906 8.65839 13.9916 8.65839H15.4419V7.16732ZM21.642 18.2792L26.376 17.1199C26.347 17.1534 26.3174 17.1871 26.2872 17.2211C25.4788 18.1297 24.2239 19.2136 22.0037 20.9248C18.9929 23.2454 17.4841 25.7646 16.6207 27.6584L16.4552 26.9448C15.559 23.0799 17.8812 19.2002 21.642 18.2792ZM28.0093 18.8391C28.4115 18.3871 28.7345 17.9575 29.008 17.5262L29.5344 19.7965C30.4306 23.6614 28.1084 27.5411 24.3476 28.4621L18.2316 29.9599L18.2543 29.9017C18.9994 27.9909 19.9769 25.4844 23.4037 22.8432C25.6281 21.1287 27.0399 19.9288 28.0093 18.8391ZM7.3743 17.5268L11.058 18.565C12.6154 19.004 13.8302 20.0944 14.4973 21.4779C14.28 21.9848 14.1081 22.516 13.9864 23.0655C13.6354 22.889 13.2256 22.646 12.7623 22.3303C11.7588 21.6464 10.6579 20.7296 9.61182 19.761C8.79381 19.0036 8.02292 18.2272 7.3743 17.5268ZM13.7915 25.5784L13.8705 27.0152L9.48446 25.779C6.0119 24.8003 3.87078 21.2997 4.41941 17.7282C4.63185 17.9923 4.8747 18.2788 5.14042 18.5795C5.929 19.4719 6.95114 20.5252 8.04992 21.5426C9.14594 22.5574 10.3404 23.5571 11.4727 24.3288C12.2176 24.8364 13.0177 25.3039 13.7915 25.5784Z" fill="#D9667B"/>
</svg>
